<?xml version="1.0" encoding="utf-8" standalone="no"?>
<!DOCTYPE svg PUBLIC "-//W3C//DTD SVG 1.1//EN"
  "http://www.w3.org/Graphics/SVG/1.1/DTD/svg11.dtd">
<!-- Created with matplotlib (https://matplotlib.org/) -->
<svg height="578.178125pt" version="1.1" viewBox="0 0 710.403125 578.178125" width="710.403125pt" xmlns="http://www.w3.org/2000/svg" xmlns:xlink="http://www.w3.org/1999/xlink">
 <defs>
  <style type="text/css">
*{stroke-linecap:butt;stroke-linejoin:round;}
  </style>
 </defs>
 <g id="figure_1">
  <g id="patch_1">
   <path d="M 0 578.178125 
L 710.403125 578.178125 
L 710.403125 0 
L 0 0 
z
" style="fill:#ffffff;"/>
  </g>
  <g id="axes_1">
   <g id="patch_2">
    <path d="M 30.103125 554.3 
L 699.703125 554.3 
L 699.703125 10.7 
L 30.103125 10.7 
z
" style="fill:#ffffff;"/>
   </g>
   <g id="matplotlib.axis_1">
    <g id="xtick_1">
     <g id="line2d_1">
      <defs>
       <path d="M 0 0 
L 0 3.5 
" id="md427cdc6b5" style="stroke:#000000;stroke-width:0.8;"/>
      </defs>
      <g>
       <use style="stroke:#000000;stroke-width:0.8;" x="60.539489" xlink:href="#md427cdc6b5" y="554.3"/>
      </g>
     </g>
     <g id="text_1">
      <!-- 0 -->
      <defs>
       <path d="M 31.78125 66.40625 
Q 24.171875 66.40625 20.328125 58.90625 
Q 16.5 51.421875 16.5 36.375 
Q 16.5 21.390625 20.328125 13.890625 
Q 24.171875 6.390625 31.78125 6.390625 
Q 39.453125 6.390625 43.28125 13.890625 
Q 47.125 21.390625 47.125 36.375 
Q 47.125 51.421875 43.28125 58.90625 
Q 39.453125 66.40625 31.78125 66.40625 
z
M 31.78125 74.21875 
Q 44.046875 74.21875 50.515625 64.515625 
Q 56.984375 54.828125 56.984375 36.375 
Q 56.984375 17.96875 50.515625 8.265625 
Q 44.046875 -1.421875 31.78125 -1.421875 
Q 19.53125 -1.421875 13.0625 8.265625 
Q 6.59375 17.96875 6.59375 36.375 
Q 6.59375 54.828125 13.0625 64.515625 
Q 19.53125 74.21875 31.78125 74.21875 
z
" id="DejaVuSans-48"/>
      </defs>
      <g transform="translate(57.358239 568.898438)scale(0.1 -0.1)">
       <use xlink:href="#DejaVuSans-48"/>
      </g>
     </g>
    </g>
    <g id="xtick_2">
     <g id="line2d_2">
      <g>
       <use style="stroke:#000000;stroke-width:0.8;" x="153.617053" xlink:href="#md427cdc6b5" y="554.3"/>
      </g>
     </g>
     <g id="text_2">
      <!-- 100 -->
      <defs>
       <path d="M 12.40625 8.296875 
L 28.515625 8.296875 
L 28.515625 63.921875 
L 10.984375 60.40625 
L 10.984375 69.390625 
L 28.421875 72.90625 
L 38.28125 72.90625 
L 38.28125 8.296875 
L 54.390625 8.296875 
L 54.390625 0 
L 12.40625 0 
z
" id="DejaVuSans-49"/>
      </defs>
      <g transform="translate(144.073303 568.898438)scale(0.1 -0.1)">
       <use xlink:href="#DejaVuSans-49"/>
       <use x="63.623047" xlink:href="#DejaVuSans-48"/>
       <use x="127.246094" xlink:href="#DejaVuSans-48"/>
      </g>
     </g>
    </g>
    <g id="xtick_3">
     <g id="line2d_3">
      <g>
       <use style="stroke:#000000;stroke-width:0.8;" x="246.694618" xlink:href="#md427cdc6b5" y="554.3"/>
      </g>
     </g>
     <g id="text_3">
      <!-- 200 -->
      <defs>
       <path d="M 19.1875 8.296875 
L 53.609375 8.296875 
L 53.609375 0 
L 7.328125 0 
L 7.328125 8.296875 
Q 12.9375 14.109375 22.625 23.890625 
Q 32.328125 33.6875 34.8125 36.53125 
Q 39.546875 41.84375 41.421875 45.53125 
Q 43.3125 49.21875 43.3125 52.78125 
Q 43.3125 58.59375 39.234375 62.25 
Q 35.15625 65.921875 28.609375 65.921875 
Q 23.96875 65.921875 18.8125 64.3125 
Q 13.671875 62.703125 7.8125 59.421875 
L 7.8125 69.390625 
Q 13.765625 71.78125 18.9375 73 
Q 24.125 74.21875 28.421875 74.21875 
Q 39.75 74.21875 46.484375 68.546875 
Q 53.21875 62.890625 53.21875 53.421875 
Q 53.21875 48.921875 51.53125 44.890625 
Q 49.859375 40.875 45.40625 35.40625 
Q 44.1875 33.984375 37.640625 27.21875 
Q 31.109375 20.453125 19.1875 8.296875 
z
" id="DejaVuSans-50"/>
      </defs>
      <g transform="translate(237.150868 568.898438)scale(0.1 -0.1)">
       <use xlink:href="#DejaVuSans-50"/>
       <use x="63.623047" xlink:href="#DejaVuSans-48"/>
       <use x="127.246094" xlink:href="#DejaVuSans-48"/>
      </g>
     </g>
    </g>
    <g id="xtick_4">
     <g id="line2d_4">
      <g>
       <use style="stroke:#000000;stroke-width:0.8;" x="339.772183" xlink:href="#md427cdc6b5" y="554.3"/>
      </g>
     </g>
     <g id="text_4">
      <!-- 300 -->
      <defs>
       <path d="M 40.578125 39.3125 
Q 47.65625 37.796875 51.625 33 
Q 55.609375 28.21875 55.609375 21.1875 
Q 55.609375 10.40625 48.1875 4.484375 
Q 40.765625 -1.421875 27.09375 -1.421875 
Q 22.515625 -1.421875 17.65625 -0.515625 
Q 12.796875 0.390625 7.625 2.203125 
L 7.625 11.71875 
Q 11.71875 9.328125 16.59375 8.109375 
Q 21.484375 6.890625 26.8125 6.890625 
Q 36.078125 6.890625 40.9375 10.546875 
Q 45.796875 14.203125 45.796875 21.1875 
Q 45.796875 27.640625 41.28125 31.265625 
Q 36.765625 34.90625 28.71875 34.90625 
L 20.21875 34.90625 
L 20.21875 43.015625 
L 29.109375 43.015625 
Q 36.375 43.015625 40.234375 45.921875 
Q 44.09375 48.828125 44.09375 54.296875 
Q 44.09375 59.90625 40.109375 62.90625 
Q 36.140625 65.921875 28.71875 65.921875 
Q 24.65625 65.921875 20.015625 65.03125 
Q 15.375 64.15625 9.8125 62.3125 
L 9.8125 71.09375 
Q 15.4375 72.65625 20.34375 73.4375 
Q 25.25 74.21875 29.59375 74.21875 
Q 40.828125 74.21875 47.359375 69.109375 
Q 53.90625 64.015625 53.90625 55.328125 
Q 53.90625 49.265625 50.4375 45.09375 
Q 46.96875 40.921875 40.578125 39.3125 
z
" id="DejaVuSans-51"/>
      </defs>
      <g transform="translate(330.228433 568.898438)scale(0.1 -0.1)">
       <use xlink:href="#DejaVuSans-51"/>
       <use x="63.623047" xlink:href="#DejaVuSans-48"/>
       <use x="127.246094" xlink:href="#DejaVuSans-48"/>
      </g>
     </g>
    </g>
    <g id="xtick_5">
     <g id="line2d_5">
      <g>
       <use style="stroke:#000000;stroke-width:0.8;" x="432.849747" xlink:href="#md427cdc6b5" y="554.3"/>
      </g>
     </g>
     <g id="text_5">
      <!-- 400 -->
      <defs>
       <path d="M 37.796875 64.3125 
L 12.890625 25.390625 
L 37.796875 25.390625 
z
M 35.203125 72.90625 
L 47.609375 72.90625 
L 47.609375 25.390625 
L 58.015625 25.390625 
L 58.015625 17.1875 
L 47.609375 17.1875 
L 47.609375 0 
L 37.796875 0 
L 37.796875 17.1875 
L 4.890625 17.1875 
L 4.890625 26.703125 
z
" id="DejaVuSans-52"/>
      </defs>
      <g transform="translate(423.305997 568.898438)scale(0.1 -0.1)">
       <use xlink:href="#DejaVuSans-52"/>
       <use x="63.623047" xlink:href="#DejaVuSans-48"/>
       <use x="127.246094" xlink:href="#DejaVuSans-48"/>
      </g>
     </g>
    </g>
    <g id="xtick_6">
     <g id="line2d_6">
      <g>
       <use style="stroke:#000000;stroke-width:0.8;" x="525.927312" xlink:href="#md427cdc6b5" y="554.3"/>
      </g>
     </g>
     <g id="text_6">
      <!-- 500 -->
      <defs>
       <path d="M 10.796875 72.90625 
L 49.515625 72.90625 
L 49.515625 64.59375 
L 19.828125 64.59375 
L 19.828125 46.734375 
Q 21.96875 47.46875 24.109375 47.828125 
Q 26.265625 48.1875 28.421875 48.1875 
Q 40.625 48.1875 47.75 41.5 
Q 54.890625 34.8125 54.890625 23.390625 
Q 54.890625 11.625 47.5625 5.09375 
Q 40.234375 -1.421875 26.90625 -1.421875 
Q 22.3125 -1.421875 17.546875 -0.640625 
Q 12.796875 0.140625 7.71875 1.703125 
L 7.71875 11.625 
Q 12.109375 9.234375 16.796875 8.0625 
Q 21.484375 6.890625 26.703125 6.890625 
Q 35.15625 6.890625 40.078125 11.328125 
Q 45.015625 15.765625 45.015625 23.390625 
Q 45.015625 31 40.078125 35.4375 
Q 35.15625 39.890625 26.703125 39.890625 
Q 22.75 39.890625 18.8125 39.015625 
Q 14.890625 38.140625 10.796875 36.28125 
z
" id="DejaVuSans-53"/>
      </defs>
      <g transform="translate(516.383562 568.898438)scale(0.1 -0.1)">
       <use xlink:href="#DejaVuSans-53"/>
       <use x="63.623047" xlink:href="#DejaVuSans-48"/>
       <use x="127.246094" xlink:href="#DejaVuSans-48"/>
      </g>
     </g>
    </g>
    <g id="xtick_7">
     <g id="line2d_7">
      <g>
       <use style="stroke:#000000;stroke-width:0.8;" x="619.004876" xlink:href="#md427cdc6b5" y="554.3"/>
      </g>
     </g>
     <g id="text_7">
      <!-- 600 -->
      <defs>
       <path d="M 33.015625 40.375 
Q 26.375 40.375 22.484375 35.828125 
Q 18.609375 31.296875 18.609375 23.390625 
Q 18.609375 15.53125 22.484375 10.953125 
Q 26.375 6.390625 33.015625 6.390625 
Q 39.65625 6.390625 43.53125 10.953125 
Q 47.40625 15.53125 47.40625 23.390625 
Q 47.40625 31.296875 43.53125 35.828125 
Q 39.65625 40.375 33.015625 40.375 
z
M 52.59375 71.296875 
L 52.59375 62.3125 
Q 48.875 64.0625 45.09375 64.984375 
Q 41.3125 65.921875 37.59375 65.921875 
Q 27.828125 65.921875 22.671875 59.328125 
Q 17.53125 52.734375 16.796875 39.40625 
Q 19.671875 43.65625 24.015625 45.921875 
Q 28.375 48.1875 33.59375 48.1875 
Q 44.578125 48.1875 50.953125 41.515625 
Q 57.328125 34.859375 57.328125 23.390625 
Q 57.328125 12.15625 50.6875 5.359375 
Q 44.046875 -1.421875 33.015625 -1.421875 
Q 20.359375 -1.421875 13.671875 8.265625 
Q 6.984375 17.96875 6.984375 36.375 
Q 6.984375 53.65625 15.1875 63.9375 
Q 23.390625 74.21875 37.203125 74.21875 
Q 40.921875 74.21875 44.703125 73.484375 
Q 48.484375 72.75 52.59375 71.296875 
z
" id="DejaVuSans-54"/>
      </defs>
      <g transform="translate(609.461126 568.898438)scale(0.1 -0.1)">
       <use xlink:href="#DejaVuSans-54"/>
       <use x="63.623047" xlink:href="#DejaVuSans-48"/>
       <use x="127.246094" xlink:href="#DejaVuSans-48"/>
      </g>
     </g>
    </g>
   </g>
   <g id="matplotlib.axis_2">
    <g id="ytick_1">
     <g id="line2d_8">
      <defs>
       <path d="M 0 0 
L -3.5 0 
" id="m8d8a43d29a" style="stroke:#000000;stroke-width:0.8;"/>
      </defs>
      <g>
       <use style="stroke:#000000;stroke-width:0.8;" x="30.103125" xlink:href="#m8d8a43d29a" y="529.590909"/>
      </g>
     </g>
     <g id="text_8">
      <!-- 0.0 -->
      <defs>
       <path d="M 10.6875 12.40625 
L 21 12.40625 
L 21 0 
L 10.6875 0 
z
" id="DejaVuSans-46"/>
      </defs>
      <g transform="translate(7.2 533.390128)scale(0.1 -0.1)">
       <use xlink:href="#DejaVuSans-48"/>
       <use x="63.623047" xlink:href="#DejaVuSans-46"/>
       <use x="95.410156" xlink:href="#DejaVuSans-48"/>
      </g>
     </g>
    </g>
    <g id="ytick_2">
     <g id="line2d_9">
      <g>
       <use style="stroke:#000000;stroke-width:0.8;" x="30.103125" xlink:href="#m8d8a43d29a" y="459.072829"/>
      </g>
     </g>
     <g id="text_9">
      <!-- 0.1 -->
      <g transform="translate(7.2 462.872048)scale(0.1 -0.1)">
       <use xlink:href="#DejaVuSans-48"/>
       <use x="63.623047" xlink:href="#DejaVuSans-46"/>
       <use x="95.410156" xlink:href="#DejaVuSans-49"/>
      </g>
     </g>
    </g>
    <g id="ytick_3">
     <g id="line2d_10">
      <g>
       <use style="stroke:#000000;stroke-width:0.8;" x="30.103125" xlink:href="#m8d8a43d29a" y="388.55475"/>
      </g>
     </g>
     <g id="text_10">
      <!-- 0.2 -->
      <g transform="translate(7.2 392.353968)scale(0.1 -0.1)">
       <use xlink:href="#DejaVuSans-48"/>
       <use x="63.623047" xlink:href="#DejaVuSans-46"/>
       <use x="95.410156" xlink:href="#DejaVuSans-50"/>
      </g>
     </g>
    </g>
    <g id="ytick_4">
     <g id="line2d_11">
      <g>
       <use style="stroke:#000000;stroke-width:0.8;" x="30.103125" xlink:href="#m8d8a43d29a" y="318.03667"/>
      </g>
     </g>
     <g id="text_11">
      <!-- 0.3 -->
      <g transform="translate(7.2 321.835889)scale(0.1 -0.1)">
       <use xlink:href="#DejaVuSans-48"/>
       <use x="63.623047" xlink:href="#DejaVuSans-46"/>
       <use x="95.410156" xlink:href="#DejaVuSans-51"/>
      </g>
     </g>
    </g>
    <g id="ytick_5">
     <g id="line2d_12">
      <g>
       <use style="stroke:#000000;stroke-width:0.8;" x="30.103125" xlink:href="#m8d8a43d29a" y="247.51859"/>
      </g>
     </g>
     <g id="text_12">
      <!-- 0.4 -->
      <g transform="translate(7.2 251.317809)scale(0.1 -0.1)">
       <use xlink:href="#DejaVuSans-48"/>
       <use x="63.623047" xlink:href="#DejaVuSans-46"/>
       <use x="95.410156" xlink:href="#DejaVuSans-52"/>
      </g>
     </g>
    </g>
    <g id="ytick_6">
     <g id="line2d_13">
      <g>
       <use style="stroke:#000000;stroke-width:0.8;" x="30.103125" xlink:href="#m8d8a43d29a" y="177.000511"/>
      </g>
     </g>
     <g id="text_13">
      <!-- 0.5 -->
      <g transform="translate(7.2 180.799729)scale(0.1 -0.1)">
       <use xlink:href="#DejaVuSans-48"/>
       <use x="63.623047" xlink:href="#DejaVuSans-46"/>
       <use x="95.410156" xlink:href="#DejaVuSans-53"/>
      </g>
     </g>
    </g>
    <g id="ytick_7">
     <g id="line2d_14">
      <g>
       <use style="stroke:#000000;stroke-width:0.8;" x="30.103125" xlink:href="#m8d8a43d29a" y="106.482431"/>
      </g>
     </g>
     <g id="text_14">
      <!-- 0.6 -->
      <g transform="translate(7.2 110.28165)scale(0.1 -0.1)">
       <use xlink:href="#DejaVuSans-48"/>
       <use x="63.623047" xlink:href="#DejaVuSans-46"/>
       <use x="95.410156" xlink:href="#DejaVuSans-54"/>
      </g>
     </g>
    </g>
    <g id="ytick_8">
     <g id="line2d_15">
      <g>
       <use style="stroke:#000000;stroke-width:0.8;" x="30.103125" xlink:href="#m8d8a43d29a" y="35.964351"/>
      </g>
     </g>
     <g id="text_15">
      <!-- 0.7 -->
      <defs>
       <path d="M 8.203125 72.90625 
L 55.078125 72.90625 
L 55.078125 68.703125 
L 28.609375 0 
L 18.3125 0 
L 43.21875 64.59375 
L 8.203125 64.59375 
z
" id="DejaVuSans-55"/>
      </defs>
      <g transform="translate(7.2 39.76357)scale(0.1 -0.1)">
       <use xlink:href="#DejaVuSans-48"/>
       <use x="63.623047" xlink:href="#DejaVuSans-46"/>
       <use x="95.410156" xlink:href="#DejaVuSans-55"/>
      </g>
     </g>
    </g>
   </g>
   <g id="line2d_16">
    <path clip-path="url(#p73f243b3ea)" d="M 60.539489 188.10572 
L 61.470264 157.566394 
L 62.40104 163.118999 
L 63.331816 182.553115 
L 64.262591 246.408069 
L 65.193367 215.868744 
L 66.124143 213.092441 
L 67.054918 160.342697 
L 67.985694 143.684883 
L 68.916469 96.487743 
L 69.847245 90.935138 
L 70.778021 60.395812 
L 71.708796 65.948417 
L 72.639572 46.5143 
L 73.570348 57.61951 
L 74.501123 40.961696 
L 75.431899 54.843207 
L 76.362675 38.185393 
L 77.29345 54.843207 
L 78.224226 38.185393 
L 79.155002 54.843207 
L 80.085777 38.185393 
L 81.016553 54.843207 
L 81.947329 38.185393 
L 82.878104 54.843207 
L 83.80888 38.185393 
L 84.739655 54.843207 
L 85.670431 38.185393 
L 86.601207 54.843207 
L 87.531982 38.185393 
L 88.462758 54.843207 
L 89.393534 38.185393 
L 90.324309 54.843207 
L 91.255085 38.185393 
L 92.185861 57.61951 
L 93.116636 38.185393 
L 94.047412 54.843207 
L 94.978188 38.185393 
L 95.908963 54.843207 
L 96.839739 38.185393 
L 97.770514 54.843207 
L 98.70129 38.185393 
L 99.632066 54.843207 
L 100.562841 38.185393 
L 101.493617 54.843207 
L 102.424393 38.185393 
L 103.355168 54.843207 
L 104.285944 38.185393 
L 105.21672 104.81665 
L 106.147495 149.237487 
L 107.078271 243.631767 
L 108.009047 238.079162 
L 108.939822 274.171093 
L 109.870598 263.065884 
L 110.801374 285.276302 
L 111.732149 271.394791 
L 112.662925 288.052605 
L 113.5937 274.171093 
L 114.524476 293.605209 
L 115.455252 279.723698 
L 116.386027 296.381512 
L 117.316803 282.5 
L 118.247579 299.157814 
L 119.178354 285.276302 
L 120.10913 301.934116 
L 121.039906 288.052605 
L 121.970681 304.710419 
L 122.901457 288.052605 
L 123.832233 307.486721 
L 124.763008 290.828907 
L 125.693784 310.263023 
L 126.62456 293.605209 
L 127.555335 310.263023 
L 128.486111 296.381512 
L 129.416886 313.039326 
L 130.347662 296.381512 
L 131.278438 313.039326 
L 132.209213 299.157814 
L 133.139989 313.039326 
L 134.070765 240.855465 
L 135.00154 271.394791 
L 135.932316 260.289581 
L 136.863092 285.276302 
L 137.793867 274.171093 
L 138.724643 293.605209 
L 139.655419 282.5 
L 140.586194 304.710419 
L 141.51697 290.828907 
L 142.447746 310.263023 
L 143.378521 296.381512 
L 144.309297 315.815628 
L 145.240072 301.934116 
L 146.170848 318.591931 
L 147.101624 304.710419 
L 148.032399 324.144535 
L 148.963175 307.486721 
L 149.893951 324.144535 
L 150.824726 310.263023 
L 151.755502 326.920838 
L 152.686278 313.039326 
L 153.617053 329.69714 
L 154.547829 313.039326 
L 155.478605 329.69714 
L 156.40938 313.039326 
L 157.340156 329.69714 
L 158.270932 315.815628 
L 159.201707 329.69714 
L 160.132483 313.039326 
L 161.063258 329.69714 
L 161.994034 315.815628 
L 162.92481 329.69714 
L 163.855585 313.039326 
L 164.786361 329.69714 
L 165.717137 313.039326 
L 166.647912 329.69714 
L 167.578688 315.815628 
L 168.509464 329.69714 
L 169.440239 315.815628 
L 170.371015 329.69714 
L 171.301791 313.039326 
L 172.232566 329.69714 
L 173.163342 313.039326 
L 174.094117 329.69714 
L 175.024893 315.815628 
L 175.955669 329.69714 
L 176.886444 315.815628 
L 177.81722 329.69714 
L 178.747996 315.815628 
L 179.678771 329.69714 
L 180.609547 315.815628 
L 181.540323 329.69714 
L 182.471098 315.815628 
L 183.401874 329.69714 
L 184.33265 315.815628 
L 185.263425 329.69714 
L 186.194201 315.815628 
L 187.124977 329.69714 
L 188.055752 315.815628 
L 188.986528 329.69714 
L 189.917303 313.039326 
L 190.848079 329.69714 
L 191.778855 315.815628 
L 192.70963 329.69714 
L 193.640406 315.815628 
L 194.571182 329.69714 
L 195.501957 315.815628 
L 196.432733 329.69714 
L 197.363509 315.815628 
L 198.294284 329.69714 
L 199.22506 315.815628 
L 200.155836 329.69714 
L 201.086611 315.815628 
L 202.017387 329.69714 
L 202.948163 315.815628 
L 203.878938 329.69714 
L 204.809714 313.039326 
L 205.740489 329.69714 
L 206.671265 313.039326 
L 207.602041 329.69714 
L 208.532816 313.039326 
L 209.463592 329.69714 
L 210.394368 315.815628 
L 211.325143 329.69714 
L 212.255919 315.815628 
L 213.186695 329.69714 
L 214.11747 313.039326 
L 215.048246 329.69714 
L 215.979022 313.039326 
L 216.909797 329.69714 
L 217.840573 313.039326 
L 218.771349 329.69714 
L 219.702124 313.039326 
L 220.6329 329.69714 
L 221.563675 313.039326 
L 222.494451 329.69714 
L 223.425227 315.815628 
L 224.356002 329.69714 
L 225.286778 315.815628 
L 226.217554 329.69714 
L 227.148329 313.039326 
L 228.079105 329.69714 
L 229.009881 315.815628 
L 229.940656 329.69714 
L 230.871432 313.039326 
L 231.802208 329.69714 
L 232.732983 315.815628 
L 233.663759 329.69714 
L 234.594535 315.815628 
L 235.52531 329.69714 
L 236.456086 315.815628 
L 237.386861 329.69714 
L 238.317637 313.039326 
L 239.248413 329.69714 
L 240.179188 274.171093 
L 241.109964 288.052605 
L 242.04074 240.855465 
L 242.971515 235.30286 
L 243.902291 196.434627 
L 244.833067 193.658325 
L 245.763842 160.342697 
L 246.694618 163.118999 
L 247.625394 168.671604 
L 248.556169 246.408069 
L 249.486945 215.868744 
L 250.41772 213.092441 
L 251.348496 165.895301 
L 252.279272 149.237487 
L 253.210047 99.264045 
L 254.140823 90.935138 
L 255.071599 57.61951 
L 256.002374 63.172114 
L 256.93315 40.961696 
L 257.863926 54.843207 
L 258.794701 38.185393 
L 259.725477 52.066905 
L 260.656253 35.409091 
L 261.587028 49.290603 
L 262.517804 35.409091 
L 263.44858 49.290603 
L 264.379355 35.409091 
L 265.310131 49.290603 
L 266.240906 35.409091 
L 267.171682 49.290603 
L 268.102458 35.409091 
L 269.033233 49.290603 
L 269.964009 35.409091 
L 270.894785 49.290603 
L 271.82556 35.409091 
L 272.756336 49.290603 
L 273.687112 35.409091 
L 274.617887 52.066905 
L 275.548663 35.409091 
L 276.479439 49.290603 
L 277.410214 35.409091 
L 278.34099 49.290603 
L 279.271766 35.409091 
L 280.202541 49.290603 
L 281.133317 35.409091 
L 282.064092 52.066905 
L 282.994868 35.409091 
L 283.925644 52.066905 
L 284.856419 35.409091 
L 285.787195 49.290603 
L 286.717971 35.409091 
L 287.648746 52.066905 
L 288.579522 35.409091 
L 289.510298 49.290603 
L 290.441073 35.409091 
L 291.371849 52.066905 
L 292.302625 35.409091 
L 293.2334 52.066905 
L 294.164176 38.185393 
L 295.094952 529.590909 
L 296.025727 160.342697 
L 296.956503 243.631767 
L 297.887278 232.526558 
L 298.818054 274.171093 
L 299.74883 263.065884 
L 300.679605 285.276302 
L 301.610381 271.394791 
L 302.541157 288.052605 
L 303.471932 276.947395 
L 304.402708 293.605209 
L 305.333484 279.723698 
L 306.264259 296.381512 
L 307.195035 282.5 
L 308.125811 299.157814 
L 309.056586 285.276302 
L 309.987362 304.710419 
L 310.918138 288.052605 
L 311.848913 304.710419 
L 312.779689 290.828907 
L 313.710464 307.486721 
L 314.64124 293.605209 
L 315.572016 310.263023 
L 316.502791 293.605209 
L 317.433567 310.263023 
L 318.364343 296.381512 
L 319.295118 313.039326 
L 320.225894 296.381512 
L 321.15667 313.039326 
L 322.087445 296.381512 
L 323.018221 313.039326 
L 323.948997 271.394791 
L 324.879772 265.842186 
L 325.810548 257.513279 
L 326.741323 279.723698 
L 327.672099 271.394791 
L 328.602875 290.828907 
L 329.53365 279.723698 
L 330.464426 301.934116 
L 331.395202 288.052605 
L 332.325977 307.486721 
L 333.256753 293.605209 
L 334.187529 315.815628 
L 335.118304 299.157814 
L 336.04908 318.591931 
L 336.979856 304.710419 
L 337.910631 321.368233 
L 338.841407 307.486721 
L 339.772183 324.144535 
L 340.702958 310.263023 
L 341.633734 326.920838 
L 342.564509 313.039326 
L 343.495285 329.69714 
L 344.426061 313.039326 
L 345.356836 329.69714 
L 346.287612 313.039326 
L 347.218388 329.69714 
L 348.149163 313.039326 
L 349.079939 329.69714 
L 350.010715 315.815628 
L 350.94149 329.69714 
L 351.872266 315.815628 
L 352.803042 329.69714 
L 353.733817 315.815628 
L 354.664593 329.69714 
L 355.595369 315.815628 
L 356.526144 329.69714 
L 357.45692 315.815628 
L 358.387695 329.69714 
L 359.318471 313.039326 
L 360.249247 329.69714 
L 361.180022 315.815628 
L 362.110798 329.69714 
L 363.041574 315.815628 
L 363.972349 329.69714 
L 364.903125 313.039326 
L 365.833901 329.69714 
L 366.764676 315.815628 
L 367.695452 329.69714 
L 368.626228 315.815628 
L 369.557003 329.69714 
L 370.487779 315.815628 
L 371.418555 329.69714 
L 372.34933 313.039326 
L 373.280106 329.69714 
L 374.210881 313.039326 
L 375.141657 329.69714 
L 376.072433 313.039326 
L 377.003208 329.69714 
L 377.933984 315.815628 
L 378.86476 329.69714 
L 379.795535 315.815628 
L 380.726311 329.69714 
L 381.657087 315.815628 
L 382.587862 329.69714 
L 383.518638 315.815628 
L 384.449414 329.69714 
L 385.380189 315.815628 
L 386.310965 329.69714 
L 387.241741 315.815628 
L 388.172516 329.69714 
L 389.103292 315.815628 
L 390.034067 329.69714 
L 390.964843 232.526558 
L 391.895619 279.723698 
L 392.826394 232.526558 
L 393.75717 226.973953 
L 394.687946 190.882022 
L 395.618721 188.10572 
L 396.549497 157.566394 
L 397.480273 163.118999 
L 398.411048 182.553115 
L 399.341824 246.408069 
L 400.2726 215.868744 
L 401.203375 213.092441 
L 402.134151 160.342697 
L 403.064927 143.684883 
L 403.995702 96.487743 
L 404.926478 90.935138 
L 405.857253 60.395812 
L 406.788029 65.948417 
L 407.718805 46.5143 
L 408.64958 57.61951 
L 409.580356 40.961696 
L 410.511132 54.843207 
L 411.441907 38.185393 
L 412.372683 54.843207 
L 413.303459 38.185393 
L 414.234234 54.843207 
L 415.16501 38.185393 
L 416.095786 54.843207 
L 417.026561 38.185393 
L 417.957337 54.843207 
L 418.888112 38.185393 
L 419.818888 54.843207 
L 420.749664 38.185393 
L 421.680439 54.843207 
L 422.611215 38.185393 
L 423.541991 54.843207 
L 424.472766 38.185393 
L 425.403542 54.843207 
L 426.334318 38.185393 
L 427.265093 57.61951 
L 428.195869 38.185393 
L 429.126645 54.843207 
L 430.05742 38.185393 
L 430.988196 54.843207 
L 431.918972 38.185393 
L 432.849747 54.843207 
L 433.780523 38.185393 
L 434.711298 54.843207 
L 435.642074 38.185393 
L 436.57285 54.843207 
L 437.503625 38.185393 
L 438.434401 54.843207 
L 439.365177 38.185393 
L 440.295952 104.81665 
L 441.226728 149.237487 
L 442.157504 243.631767 
L 443.088279 238.079162 
L 444.019055 274.171093 
L 444.949831 263.065884 
L 445.880606 285.276302 
L 446.811382 271.394791 
L 447.742158 288.052605 
L 448.672933 274.171093 
L 449.603709 293.605209 
L 450.534484 279.723698 
L 451.46526 296.381512 
L 452.396036 282.5 
L 453.326811 299.157814 
L 454.257587 285.276302 
L 455.188363 301.934116 
L 456.119138 288.052605 
L 457.049914 304.710419 
L 457.98069 288.052605 
L 458.911465 307.486721 
L 459.842241 290.828907 
L 460.773017 310.263023 
L 461.703792 293.605209 
L 462.634568 310.263023 
L 463.565344 296.381512 
L 464.496119 313.039326 
L 465.426895 296.381512 
L 466.35767 313.039326 
L 467.288446 299.157814 
L 468.219222 313.039326 
L 469.149997 240.855465 
L 470.080773 271.394791 
L 471.011549 260.289581 
L 471.942324 285.276302 
L 472.8731 274.171093 
L 473.803876 293.605209 
L 474.734651 282.5 
L 475.665427 304.710419 
L 476.596203 290.828907 
L 477.526978 310.263023 
L 478.457754 296.381512 
L 479.38853 315.815628 
L 480.319305 301.934116 
L 481.250081 318.591931 
L 482.180856 304.710419 
L 483.111632 324.144535 
L 484.042408 307.486721 
L 484.973183 324.144535 
L 485.903959 310.263023 
L 486.834735 326.920838 
L 487.76551 313.039326 
L 488.696286 329.69714 
L 489.627062 313.039326 
L 490.557837 329.69714 
L 491.488613 313.039326 
L 492.419389 329.69714 
L 493.350164 315.815628 
L 494.28094 329.69714 
L 495.211715 313.039326 
L 496.142491 329.69714 
L 497.073267 315.815628 
L 498.004042 329.69714 
L 498.934818 313.039326 
L 499.865594 329.69714 
L 500.796369 313.039326 
L 501.727145 329.69714 
L 502.657921 315.815628 
L 503.588696 329.69714 
L 504.519472 315.815628 
L 505.450248 329.69714 
L 506.381023 313.039326 
L 507.311799 329.69714 
L 508.242575 313.039326 
L 509.17335 329.69714 
L 510.104126 315.815628 
L 511.034901 329.69714 
L 511.965677 315.815628 
L 512.896453 329.69714 
L 513.827228 315.815628 
L 514.758004 329.69714 
L 515.68878 315.815628 
L 516.619555 329.69714 
L 517.550331 315.815628 
L 518.481107 329.69714 
L 519.411882 315.815628 
L 520.342658 329.69714 
L 521.273434 315.815628 
L 522.204209 329.69714 
L 523.134985 315.815628 
L 524.065761 329.69714 
L 524.996536 313.039326 
L 525.927312 329.69714 
L 526.858087 315.815628 
L 527.788863 329.69714 
L 528.719639 315.815628 
L 529.650414 329.69714 
L 530.58119 315.815628 
L 531.511966 329.69714 
L 532.442741 315.815628 
L 533.373517 329.69714 
L 534.304293 315.815628 
L 535.235068 329.69714 
L 536.165844 315.815628 
L 537.09662 329.69714 
L 538.027395 315.815628 
L 538.958171 329.69714 
L 539.888947 313.039326 
L 540.819722 329.69714 
L 541.750498 313.039326 
L 542.681273 329.69714 
L 543.612049 313.039326 
L 544.542825 329.69714 
L 545.4736 315.815628 
L 546.404376 329.69714 
L 547.335152 315.815628 
L 548.265927 329.69714 
L 549.196703 313.039326 
L 550.127479 329.69714 
L 551.058254 313.039326 
L 551.98903 329.69714 
L 552.919806 313.039326 
L 553.850581 329.69714 
L 554.781357 313.039326 
L 555.712133 329.69714 
L 556.642908 313.039326 
L 557.573684 329.69714 
L 558.504459 315.815628 
L 559.435235 329.69714 
L 560.366011 315.815628 
L 561.296786 329.69714 
L 562.227562 313.039326 
L 563.158338 329.69714 
L 564.089113 315.815628 
L 565.019889 329.69714 
L 565.950665 313.039326 
L 566.88144 329.69714 
L 567.812216 315.815628 
L 568.742992 329.69714 
L 569.673767 315.815628 
L 570.604543 329.69714 
L 571.535318 315.815628 
L 572.466094 329.69714 
L 573.39687 313.039326 
L 574.327645 329.69714 
L 575.258421 274.171093 
L 576.189197 288.052605 
L 577.119972 240.855465 
L 578.050748 235.30286 
L 578.981524 196.434627 
L 579.912299 193.658325 
L 580.843075 160.342697 
L 581.773851 163.118999 
L 582.704626 168.671604 
L 583.635402 246.408069 
L 584.566178 215.868744 
L 585.496953 213.092441 
L 586.427729 165.895301 
L 587.358504 149.237487 
L 588.28928 99.264045 
L 589.220056 90.935138 
L 590.150831 57.61951 
L 591.081607 63.172114 
L 592.012383 40.961696 
L 592.943158 54.843207 
L 593.873934 38.185393 
L 594.80471 52.066905 
L 595.735485 35.409091 
L 596.666261 49.290603 
L 597.597037 35.409091 
L 598.527812 49.290603 
L 599.458588 35.409091 
L 600.389364 49.290603 
L 601.320139 35.409091 
L 602.250915 49.290603 
L 603.18169 35.409091 
L 604.112466 49.290603 
L 605.043242 35.409091 
L 605.974017 49.290603 
L 606.904793 35.409091 
L 607.835569 49.290603 
L 608.766344 35.409091 
L 609.69712 52.066905 
L 610.627896 35.409091 
L 611.558671 49.290603 
L 612.489447 35.409091 
L 613.420223 49.290603 
L 614.350998 35.409091 
L 615.281774 49.290603 
L 616.21255 35.409091 
L 617.143325 52.066905 
L 618.074101 35.409091 
L 619.004876 52.066905 
L 619.935652 35.409091 
L 620.866428 49.290603 
L 621.797203 35.409091 
L 622.727979 52.066905 
L 623.658755 35.409091 
L 624.58953 49.290603 
L 625.520306 35.409091 
L 626.451082 52.066905 
L 627.381857 35.409091 
L 628.312633 52.066905 
L 629.243409 38.185393 
L 630.174184 529.590909 
L 631.10496 160.342697 
L 632.035736 243.631767 
L 632.966511 232.526558 
L 633.897287 274.171093 
L 634.828062 263.065884 
L 635.758838 285.276302 
L 636.689614 271.394791 
L 637.620389 288.052605 
L 638.551165 276.947395 
L 639.481941 293.605209 
L 640.412716 279.723698 
L 641.343492 296.381512 
L 642.274268 282.5 
L 643.205043 299.157814 
L 644.135819 285.276302 
L 645.066595 304.710419 
L 645.99737 288.052605 
L 646.928146 304.710419 
L 647.858921 290.828907 
L 648.789697 307.486721 
L 649.720473 293.605209 
L 650.651248 310.263023 
L 651.582024 293.605209 
L 652.5128 310.263023 
L 653.443575 296.381512 
L 654.374351 313.039326 
L 655.305127 296.381512 
L 656.235902 313.039326 
L 657.166678 296.381512 
L 658.097454 313.039326 
L 659.028229 271.394791 
L 659.959005 265.842186 
L 660.889781 257.513279 
L 661.820556 279.723698 
L 662.751332 271.394791 
L 663.682107 290.828907 
L 664.612883 279.723698 
L 665.543659 301.934116 
L 666.474434 288.052605 
L 667.40521 307.486721 
L 668.335986 293.605209 
L 669.266761 315.815628 
L 669.266761 315.815628 
" style="fill:none;stroke:#1f77b4;stroke-linecap:square;stroke-width:1.5;"/>
   </g>
   <g id="patch_3">
    <path d="M 30.103125 554.3 
L 30.103125 10.7 
" style="fill:none;stroke:#000000;stroke-linecap:square;stroke-linejoin:miter;stroke-width:0.8;"/>
   </g>
   <g id="patch_4">
    <path d="M 699.703125 554.3 
L 699.703125 10.7 
" style="fill:none;stroke:#000000;stroke-linecap:square;stroke-linejoin:miter;stroke-width:0.8;"/>
   </g>
   <g id="patch_5">
    <path d="M 30.103125 554.3 
L 699.703125 554.3 
" style="fill:none;stroke:#000000;stroke-linecap:square;stroke-linejoin:miter;stroke-width:0.8;"/>
   </g>
   <g id="patch_6">
    <path d="M 30.103125 10.7 
L 699.703125 10.7 
" style="fill:none;stroke:#000000;stroke-linecap:square;stroke-linejoin:miter;stroke-width:0.8;"/>
   </g>
  </g>
 </g>
 <defs>
  <clipPath id="p73f243b3ea">
   <rect height="543.6" width="669.6" x="30.103125" y="10.7"/>
  </clipPath>
 </defs>
</svg>
