<?xml version="1.0" encoding="utf-8" standalone="no"?>
<!DOCTYPE svg PUBLIC "-//W3C//DTD SVG 1.1//EN"
  "http://www.w3.org/Graphics/SVG/1.1/DTD/svg11.dtd">
<!-- Created with matplotlib (https://matplotlib.org/) -->
<svg height="578.178125pt" version="1.1" viewBox="0 0 710.403125 578.178125" width="710.403125pt" xmlns="http://www.w3.org/2000/svg" xmlns:xlink="http://www.w3.org/1999/xlink">
 <defs>
  <style type="text/css">
*{stroke-linecap:butt;stroke-linejoin:round;}
  </style>
 </defs>
 <g id="figure_1">
  <g id="patch_1">
   <path d="M 0 578.178125 
L 710.403125 578.178125 
L 710.403125 0 
L 0 0 
z
" style="fill:#ffffff;"/>
  </g>
  <g id="axes_1">
   <g id="patch_2">
    <path d="M 30.103125 554.3 
L 699.703125 554.3 
L 699.703125 10.7 
L 30.103125 10.7 
z
" style="fill:#ffffff;"/>
   </g>
   <g id="matplotlib.axis_1">
    <g id="xtick_1">
     <g id="line2d_1">
      <defs>
       <path d="M 0 0 
L 0 3.5 
" id="m40e7edd219" style="stroke:#000000;stroke-width:0.8;"/>
      </defs>
      <g>
       <use style="stroke:#000000;stroke-width:0.8;" x="60.539489" xlink:href="#m40e7edd219" y="554.3"/>
      </g>
     </g>
     <g id="text_1">
      <!-- 0 -->
      <defs>
       <path d="M 31.78125 66.40625 
Q 24.171875 66.40625 20.328125 58.90625 
Q 16.5 51.421875 16.5 36.375 
Q 16.5 21.390625 20.328125 13.890625 
Q 24.171875 6.390625 31.78125 6.390625 
Q 39.453125 6.390625 43.28125 13.890625 
Q 47.125 21.390625 47.125 36.375 
Q 47.125 51.421875 43.28125 58.90625 
Q 39.453125 66.40625 31.78125 66.40625 
z
M 31.78125 74.21875 
Q 44.046875 74.21875 50.515625 64.515625 
Q 56.984375 54.828125 56.984375 36.375 
Q 56.984375 17.96875 50.515625 8.265625 
Q 44.046875 -1.421875 31.78125 -1.421875 
Q 19.53125 -1.421875 13.0625 8.265625 
Q 6.59375 17.96875 6.59375 36.375 
Q 6.59375 54.828125 13.0625 64.515625 
Q 19.53125 74.21875 31.78125 74.21875 
z
" id="DejaVuSans-48"/>
      </defs>
      <g transform="translate(57.358239 568.898438)scale(0.1 -0.1)">
       <use xlink:href="#DejaVuSans-48"/>
      </g>
     </g>
    </g>
    <g id="xtick_2">
     <g id="line2d_2">
      <g>
       <use style="stroke:#000000;stroke-width:0.8;" x="173.266761" xlink:href="#m40e7edd219" y="554.3"/>
      </g>
     </g>
     <g id="text_2">
      <!-- 100 -->
      <defs>
       <path d="M 12.40625 8.296875 
L 28.515625 8.296875 
L 28.515625 63.921875 
L 10.984375 60.40625 
L 10.984375 69.390625 
L 28.421875 72.90625 
L 38.28125 72.90625 
L 38.28125 8.296875 
L 54.390625 8.296875 
L 54.390625 0 
L 12.40625 0 
z
" id="DejaVuSans-49"/>
      </defs>
      <g transform="translate(163.723011 568.898438)scale(0.1 -0.1)">
       <use xlink:href="#DejaVuSans-49"/>
       <use x="63.623047" xlink:href="#DejaVuSans-48"/>
       <use x="127.246094" xlink:href="#DejaVuSans-48"/>
      </g>
     </g>
    </g>
    <g id="xtick_3">
     <g id="line2d_3">
      <g>
       <use style="stroke:#000000;stroke-width:0.8;" x="285.994034" xlink:href="#m40e7edd219" y="554.3"/>
      </g>
     </g>
     <g id="text_3">
      <!-- 200 -->
      <defs>
       <path d="M 19.1875 8.296875 
L 53.609375 8.296875 
L 53.609375 0 
L 7.328125 0 
L 7.328125 8.296875 
Q 12.9375 14.109375 22.625 23.890625 
Q 32.328125 33.6875 34.8125 36.53125 
Q 39.546875 41.84375 41.421875 45.53125 
Q 43.3125 49.21875 43.3125 52.78125 
Q 43.3125 58.59375 39.234375 62.25 
Q 35.15625 65.921875 28.609375 65.921875 
Q 23.96875 65.921875 18.8125 64.3125 
Q 13.671875 62.703125 7.8125 59.421875 
L 7.8125 69.390625 
Q 13.765625 71.78125 18.9375 73 
Q 24.125 74.21875 28.421875 74.21875 
Q 39.75 74.21875 46.484375 68.546875 
Q 53.21875 62.890625 53.21875 53.421875 
Q 53.21875 48.921875 51.53125 44.890625 
Q 49.859375 40.875 45.40625 35.40625 
Q 44.1875 33.984375 37.640625 27.21875 
Q 31.109375 20.453125 19.1875 8.296875 
z
" id="DejaVuSans-50"/>
      </defs>
      <g transform="translate(276.450284 568.898438)scale(0.1 -0.1)">
       <use xlink:href="#DejaVuSans-50"/>
       <use x="63.623047" xlink:href="#DejaVuSans-48"/>
       <use x="127.246094" xlink:href="#DejaVuSans-48"/>
      </g>
     </g>
    </g>
    <g id="xtick_4">
     <g id="line2d_4">
      <g>
       <use style="stroke:#000000;stroke-width:0.8;" x="398.721307" xlink:href="#m40e7edd219" y="554.3"/>
      </g>
     </g>
     <g id="text_4">
      <!-- 300 -->
      <defs>
       <path d="M 40.578125 39.3125 
Q 47.65625 37.796875 51.625 33 
Q 55.609375 28.21875 55.609375 21.1875 
Q 55.609375 10.40625 48.1875 4.484375 
Q 40.765625 -1.421875 27.09375 -1.421875 
Q 22.515625 -1.421875 17.65625 -0.515625 
Q 12.796875 0.390625 7.625 2.203125 
L 7.625 11.71875 
Q 11.71875 9.328125 16.59375 8.109375 
Q 21.484375 6.890625 26.8125 6.890625 
Q 36.078125 6.890625 40.9375 10.546875 
Q 45.796875 14.203125 45.796875 21.1875 
Q 45.796875 27.640625 41.28125 31.265625 
Q 36.765625 34.90625 28.71875 34.90625 
L 20.21875 34.90625 
L 20.21875 43.015625 
L 29.109375 43.015625 
Q 36.375 43.015625 40.234375 45.921875 
Q 44.09375 48.828125 44.09375 54.296875 
Q 44.09375 59.90625 40.109375 62.90625 
Q 36.140625 65.921875 28.71875 65.921875 
Q 24.65625 65.921875 20.015625 65.03125 
Q 15.375 64.15625 9.8125 62.3125 
L 9.8125 71.09375 
Q 15.4375 72.65625 20.34375 73.4375 
Q 25.25 74.21875 29.59375 74.21875 
Q 40.828125 74.21875 47.359375 69.109375 
Q 53.90625 64.015625 53.90625 55.328125 
Q 53.90625 49.265625 50.4375 45.09375 
Q 46.96875 40.921875 40.578125 39.3125 
z
" id="DejaVuSans-51"/>
      </defs>
      <g transform="translate(389.177557 568.898438)scale(0.1 -0.1)">
       <use xlink:href="#DejaVuSans-51"/>
       <use x="63.623047" xlink:href="#DejaVuSans-48"/>
       <use x="127.246094" xlink:href="#DejaVuSans-48"/>
      </g>
     </g>
    </g>
    <g id="xtick_5">
     <g id="line2d_5">
      <g>
       <use style="stroke:#000000;stroke-width:0.8;" x="511.44858" xlink:href="#m40e7edd219" y="554.3"/>
      </g>
     </g>
     <g id="text_5">
      <!-- 400 -->
      <defs>
       <path d="M 37.796875 64.3125 
L 12.890625 25.390625 
L 37.796875 25.390625 
z
M 35.203125 72.90625 
L 47.609375 72.90625 
L 47.609375 25.390625 
L 58.015625 25.390625 
L 58.015625 17.1875 
L 47.609375 17.1875 
L 47.609375 0 
L 37.796875 0 
L 37.796875 17.1875 
L 4.890625 17.1875 
L 4.890625 26.703125 
z
" id="DejaVuSans-52"/>
      </defs>
      <g transform="translate(501.90483 568.898438)scale(0.1 -0.1)">
       <use xlink:href="#DejaVuSans-52"/>
       <use x="63.623047" xlink:href="#DejaVuSans-48"/>
       <use x="127.246094" xlink:href="#DejaVuSans-48"/>
      </g>
     </g>
    </g>
    <g id="xtick_6">
     <g id="line2d_6">
      <g>
       <use style="stroke:#000000;stroke-width:0.8;" x="624.175852" xlink:href="#m40e7edd219" y="554.3"/>
      </g>
     </g>
     <g id="text_6">
      <!-- 500 -->
      <defs>
       <path d="M 10.796875 72.90625 
L 49.515625 72.90625 
L 49.515625 64.59375 
L 19.828125 64.59375 
L 19.828125 46.734375 
Q 21.96875 47.46875 24.109375 47.828125 
Q 26.265625 48.1875 28.421875 48.1875 
Q 40.625 48.1875 47.75 41.5 
Q 54.890625 34.8125 54.890625 23.390625 
Q 54.890625 11.625 47.5625 5.09375 
Q 40.234375 -1.421875 26.90625 -1.421875 
Q 22.3125 -1.421875 17.546875 -0.640625 
Q 12.796875 0.140625 7.71875 1.703125 
L 7.71875 11.625 
Q 12.109375 9.234375 16.796875 8.0625 
Q 21.484375 6.890625 26.703125 6.890625 
Q 35.15625 6.890625 40.078125 11.328125 
Q 45.015625 15.765625 45.015625 23.390625 
Q 45.015625 31 40.078125 35.4375 
Q 35.15625 39.890625 26.703125 39.890625 
Q 22.75 39.890625 18.8125 39.015625 
Q 14.890625 38.140625 10.796875 36.28125 
z
" id="DejaVuSans-53"/>
      </defs>
      <g transform="translate(614.632102 568.898438)scale(0.1 -0.1)">
       <use xlink:href="#DejaVuSans-53"/>
       <use x="63.623047" xlink:href="#DejaVuSans-48"/>
       <use x="127.246094" xlink:href="#DejaVuSans-48"/>
      </g>
     </g>
    </g>
   </g>
   <g id="matplotlib.axis_2">
    <g id="ytick_1">
     <g id="line2d_7">
      <defs>
       <path d="M 0 0 
L -3.5 0 
" id="m801142786f" style="stroke:#000000;stroke-width:0.8;"/>
      </defs>
      <g>
       <use style="stroke:#000000;stroke-width:0.8;" x="30.103125" xlink:href="#m801142786f" y="529.591978"/>
      </g>
     </g>
     <g id="text_7">
      <!-- 0.0 -->
      <defs>
       <path d="M 10.6875 12.40625 
L 21 12.40625 
L 21 0 
L 10.6875 0 
z
" id="DejaVuSans-46"/>
      </defs>
      <g transform="translate(7.2 533.391197)scale(0.1 -0.1)">
       <use xlink:href="#DejaVuSans-48"/>
       <use x="63.623047" xlink:href="#DejaVuSans-46"/>
       <use x="95.410156" xlink:href="#DejaVuSans-48"/>
      </g>
     </g>
    </g>
    <g id="ytick_2">
     <g id="line2d_8">
      <g>
       <use style="stroke:#000000;stroke-width:0.8;" x="30.103125" xlink:href="#m801142786f" y="430.755164"/>
      </g>
     </g>
     <g id="text_8">
      <!-- 0.2 -->
      <g transform="translate(7.2 434.554383)scale(0.1 -0.1)">
       <use xlink:href="#DejaVuSans-48"/>
       <use x="63.623047" xlink:href="#DejaVuSans-46"/>
       <use x="95.410156" xlink:href="#DejaVuSans-50"/>
      </g>
     </g>
    </g>
    <g id="ytick_3">
     <g id="line2d_9">
      <g>
       <use style="stroke:#000000;stroke-width:0.8;" x="30.103125" xlink:href="#m801142786f" y="331.91835"/>
      </g>
     </g>
     <g id="text_9">
      <!-- 0.4 -->
      <g transform="translate(7.2 335.717569)scale(0.1 -0.1)">
       <use xlink:href="#DejaVuSans-48"/>
       <use x="63.623047" xlink:href="#DejaVuSans-46"/>
       <use x="95.410156" xlink:href="#DejaVuSans-52"/>
      </g>
     </g>
    </g>
    <g id="ytick_4">
     <g id="line2d_10">
      <g>
       <use style="stroke:#000000;stroke-width:0.8;" x="30.103125" xlink:href="#m801142786f" y="233.081536"/>
      </g>
     </g>
     <g id="text_10">
      <!-- 0.6 -->
      <defs>
       <path d="M 33.015625 40.375 
Q 26.375 40.375 22.484375 35.828125 
Q 18.609375 31.296875 18.609375 23.390625 
Q 18.609375 15.53125 22.484375 10.953125 
Q 26.375 6.390625 33.015625 6.390625 
Q 39.65625 6.390625 43.53125 10.953125 
Q 47.40625 15.53125 47.40625 23.390625 
Q 47.40625 31.296875 43.53125 35.828125 
Q 39.65625 40.375 33.015625 40.375 
z
M 52.59375 71.296875 
L 52.59375 62.3125 
Q 48.875 64.0625 45.09375 64.984375 
Q 41.3125 65.921875 37.59375 65.921875 
Q 27.828125 65.921875 22.671875 59.328125 
Q 17.53125 52.734375 16.796875 39.40625 
Q 19.671875 43.65625 24.015625 45.921875 
Q 28.375 48.1875 33.59375 48.1875 
Q 44.578125 48.1875 50.953125 41.515625 
Q 57.328125 34.859375 57.328125 23.390625 
Q 57.328125 12.15625 50.6875 5.359375 
Q 44.046875 -1.421875 33.015625 -1.421875 
Q 20.359375 -1.421875 13.671875 8.265625 
Q 6.984375 17.96875 6.984375 36.375 
Q 6.984375 53.65625 15.1875 63.9375 
Q 23.390625 74.21875 37.203125 74.21875 
Q 40.921875 74.21875 44.703125 73.484375 
Q 48.484375 72.75 52.59375 71.296875 
z
" id="DejaVuSans-54"/>
      </defs>
      <g transform="translate(7.2 236.880755)scale(0.1 -0.1)">
       <use xlink:href="#DejaVuSans-48"/>
       <use x="63.623047" xlink:href="#DejaVuSans-46"/>
       <use x="95.410156" xlink:href="#DejaVuSans-54"/>
      </g>
     </g>
    </g>
    <g id="ytick_5">
     <g id="line2d_11">
      <g>
       <use style="stroke:#000000;stroke-width:0.8;" x="30.103125" xlink:href="#m801142786f" y="134.244722"/>
      </g>
     </g>
     <g id="text_11">
      <!-- 0.8 -->
      <defs>
       <path d="M 31.78125 34.625 
Q 24.75 34.625 20.71875 30.859375 
Q 16.703125 27.09375 16.703125 20.515625 
Q 16.703125 13.921875 20.71875 10.15625 
Q 24.75 6.390625 31.78125 6.390625 
Q 38.8125 6.390625 42.859375 10.171875 
Q 46.921875 13.96875 46.921875 20.515625 
Q 46.921875 27.09375 42.890625 30.859375 
Q 38.875 34.625 31.78125 34.625 
z
M 21.921875 38.8125 
Q 15.578125 40.375 12.03125 44.71875 
Q 8.5 49.078125 8.5 55.328125 
Q 8.5 64.0625 14.71875 69.140625 
Q 20.953125 74.21875 31.78125 74.21875 
Q 42.671875 74.21875 48.875 69.140625 
Q 55.078125 64.0625 55.078125 55.328125 
Q 55.078125 49.078125 51.53125 44.71875 
Q 48 40.375 41.703125 38.8125 
Q 48.828125 37.15625 52.796875 32.3125 
Q 56.78125 27.484375 56.78125 20.515625 
Q 56.78125 9.90625 50.3125 4.234375 
Q 43.84375 -1.421875 31.78125 -1.421875 
Q 19.734375 -1.421875 13.25 4.234375 
Q 6.78125 9.90625 6.78125 20.515625 
Q 6.78125 27.484375 10.78125 32.3125 
Q 14.796875 37.15625 21.921875 38.8125 
z
M 18.3125 54.390625 
Q 18.3125 48.734375 21.84375 45.5625 
Q 25.390625 42.390625 31.78125 42.390625 
Q 38.140625 42.390625 41.71875 45.5625 
Q 45.3125 48.734375 45.3125 54.390625 
Q 45.3125 60.0625 41.71875 63.234375 
Q 38.140625 66.40625 31.78125 66.40625 
Q 25.390625 66.40625 21.84375 63.234375 
Q 18.3125 60.0625 18.3125 54.390625 
z
" id="DejaVuSans-56"/>
      </defs>
      <g transform="translate(7.2 138.043941)scale(0.1 -0.1)">
       <use xlink:href="#DejaVuSans-48"/>
       <use x="63.623047" xlink:href="#DejaVuSans-46"/>
       <use x="95.410156" xlink:href="#DejaVuSans-56"/>
      </g>
     </g>
    </g>
    <g id="ytick_6">
     <g id="line2d_12">
      <g>
       <use style="stroke:#000000;stroke-width:0.8;" x="30.103125" xlink:href="#m801142786f" y="35.407909"/>
      </g>
     </g>
     <g id="text_12">
      <!-- 1.0 -->
      <g transform="translate(7.2 39.207127)scale(0.1 -0.1)">
       <use xlink:href="#DejaVuSans-49"/>
       <use x="63.623047" xlink:href="#DejaVuSans-46"/>
       <use x="95.410156" xlink:href="#DejaVuSans-48"/>
      </g>
     </g>
    </g>
   </g>
   <g id="line2d_13">
    <path clip-path="url(#p0a4a6c8d7c)" d="M 60.539489 63.239906 
L 61.666761 82.727154 
L 62.794034 106.700894 
L 63.921307 134.622729 
L 66.175852 199.727844 
L 72.939489 413.420084 
L 74.066761 443.266229 
L 75.194034 469.501937 
L 76.321307 491.538011 
L 77.44858 508.879567 
L 78.575852 521.137152 
L 79.703125 528.035487 
L 80.830398 529.419651 
L 81.95767 525.258557 
L 83.084943 515.645655 
L 84.212216 500.79683 
L 85.339489 481.045556 
L 86.466761 456.835401 
L 87.594034 428.710076 
L 89.84858 363.314188 
L 96.612216 149.825028 
L 97.739489 120.164203 
L 98.866761 94.149116 
L 99.994034 72.364009 
L 101.121307 55.29813 
L 102.24858 43.334741 
L 103.375852 36.742514 
L 104.503125 35.669496 
L 105.630398 40.139785 
L 106.75767 50.052988 
L 107.884943 65.186475 
L 109.012216 85.200382 
L 110.139489 109.645238 
L 111.266761 137.972066 
L 113.521307 203.654103 
L 120.284943 416.925095 
L 121.412216 446.398503 
L 122.539489 472.191131 
L 123.666761 493.72373 
L 124.794034 510.512726 
L 125.921307 522.181074 
L 127.04858 528.466727 
L 128.175852 529.228523 
L 129.303125 524.449355 
L 130.430398 514.236552 
L 131.55767 498.819471 
L 132.684943 478.544348 
L 133.812216 453.866517 
L 134.939489 425.340189 
L 137.194034 359.376644 
L 143.95767 146.338897 
L 145.084943 117.054988 
L 146.212216 91.486643 
L 147.339489 70.208073 
L 148.466761 53.697147 
L 149.594034 42.324666 
L 150.721307 36.346031 
L 151.84858 35.895509 
L 152.975852 40.983219 
L 154.103125 51.494901 
L 155.230398 67.194485 
L 156.35767 87.729392 
L 157.484943 112.638454 
L 158.612216 141.362265 
L 160.866761 207.602655 
L 167.630398 420.3921 
L 168.75767 449.484439 
L 169.884943 474.826694 
L 171.012216 495.849731 
L 172.139489 512.08142 
L 173.266761 523.157231 
L 174.394034 528.828425 
L 175.521307 528.96764 
L 176.64858 523.571748 
L 177.775852 512.761931 
L 178.903125 496.780953 
L 180.030398 475.987713 
L 181.15767 450.849182 
L 182.284943 421.929917 
L 184.539489 355.417365 
L 190.175852 174.925314 
L 192.430398 113.99255 
L 193.55767 88.878176 
L 194.684943 68.112157 
L 195.812216 52.160853 
L 196.939489 41.382495 
L 198.066761 36.019143 
L 199.194034 36.191245 
L 200.321307 41.894937 
L 201.44858 53.002125 
L 202.575852 69.263367 
L 203.703125 90.31347 
L 204.830398 115.679694 
L 205.95767 144.792368 
L 208.212216 211.572382 
L 213.84858 391.943355 
L 214.975852 423.820119 
L 216.103125 452.523164 
L 217.230398 477.407881 
L 218.35767 497.915413 
L 219.484943 513.585205 
L 220.612216 524.065348 
L 221.739489 529.12048 
L 222.866761 528.637073 
L 223.994034 522.625984 
L 225.121307 511.222209 
L 226.24858 494.681853 
L 227.375852 473.376375 
L 228.503125 447.784251 
L 229.630398 418.480225 
L 231.884943 351.43747 
L 237.521307 171.200325 
L 238.64858 139.483101 
L 239.775852 110.977753 
L 240.903125 86.324451 
L 242.030398 66.076855 
L 243.15767 50.689682 
L 244.284943 40.508496 
L 245.412216 35.761942 
L 246.539489 36.556619 
L 247.666761 42.87468 
L 248.794034 54.574236 
L 249.921307 71.392538 
L 251.04858 92.951885 
L 252.175852 118.768099 
L 253.303125 148.261405 
L 255.55767 215.562163 
L 261.194034 395.65274 
L 262.321307 427.208184 
L 263.44858 455.513819 
L 264.575852 479.933963 
L 265.703125 499.920191 
L 266.830398 515.023657 
L 267.95767 524.905169 
L 269.084943 529.342809 
L 270.212216 528.236917 
L 271.339489 521.61233 
L 272.466761 509.617822 
L 273.594034 492.522762 
L 274.721307 470.711071 
L 275.84858 444.67259 
L 276.975852 414.992088 
L 279.230398 347.438085 
L 284.866761 167.506805 
L 285.994034 136.115373 
L 287.121307 108.011451 
L 288.24858 83.826191 
L 289.375852 64.102742 
L 290.503125 49.284051 
L 291.630398 39.702914 
L 292.75767 35.574501 
L 293.884943 36.991529 
L 295.012216 43.922173 
L 296.139489 56.210787 
L 297.266761 73.581395 
L 298.394034 95.64389 
L 299.521307 121.902796 
L 301.775852 184.569971 
L 305.15767 292.994718 
L 307.412216 365.481207 
L 309.666761 430.555336 
L 310.794034 458.455559 
L 311.921307 482.404225 
L 313.04858 501.863499 
L 314.175852 516.396368 
L 315.303125 525.676455 
L 316.430398 529.495349 
L 317.55767 527.767285 
L 318.684943 520.531073 
L 319.812216 507.949222 
L 320.939489 490.304294 
L 322.066761 467.992555 
L 323.194034 441.515079 
L 325.44858 378.521623 
L 328.830398 269.93246 
L 331.084943 197.567302 
L 333.339489 132.789033 
L 334.466761 105.094482 
L 335.594034 81.384101 
L 336.721307 62.190377 
L 337.84858 47.944357 
L 338.975852 38.965978 
L 340.103125 35.456873 
L 341.230398 37.49585 
L 342.35767 45.037118 
L 343.484943 57.911317 
L 344.612216 75.829319 
L 345.739489 98.388725 
L 346.866761 125.082899 
L 349.121307 188.398183 
L 352.503125 297.144087 
L 354.75767 369.382797 
L 357.012216 433.860629 
L 358.139489 461.347551 
L 359.266761 484.817969 
L 360.394034 503.744788 
L 361.521307 517.702951 
L 362.64858 526.378989 
L 363.775852 529.578056 
L 364.903125 527.22831 
L 366.030398 519.382518 
L 367.15767 506.216882 
L 368.284943 488.027073 
L 369.412216 465.221595 
L 370.539489 438.31261 
L 372.794034 374.679973 
L 376.175852 265.785013 
L 378.430398 193.677857 
L 380.684943 129.505021 
L 381.812216 102.22767 
L 382.939489 78.998873 
L 384.066761 60.340299 
L 385.194034 46.670978 
L 386.321307 38.297895 
L 387.44858 35.409091 
L 388.575852 38.069441 
L 389.703125 46.219201 
L 390.830398 59.675344 
L 391.95767 78.135675 
L 393.084943 101.185613 
L 394.212216 128.307508 
L 396.466761 192.253 
L 399.84858 301.289317 
L 402.103125 373.259824 
L 404.35767 437.123129 
L 405.484943 464.188979 
L 406.612216 487.174513 
L 407.739489 505.563524 
L 408.866761 518.943036 
L 409.994034 527.012572 
L 411.121307 529.590909 
L 412.24858 526.620143 
L 413.375852 518.166991 
L 414.503125 504.421292 
L 415.630398 485.691745 
L 416.75767 462.398975 
L 417.884943 435.066088 
L 420.139489 370.812261 
L 423.521307 261.642293 
L 425.775852 189.813524 
L 428.030398 126.264264 
L 429.15767 99.411827 
L 430.284943 76.671181 
L 431.412216 58.553032 
L 432.539489 45.464275 
L 433.666761 37.698856 
L 434.794034 35.431169 
L 435.921307 38.71214 
L 437.04858 47.468088 
L 438.175852 61.502371 
L 439.303125 80.49981 
L 440.430398 104.033765 
L 441.55767 131.575712 
L 443.812216 196.133333 
L 447.194034 305.429235 
L 449.44858 377.11119 
L 451.703125 440.341912 
L 452.830398 466.979039 
L 453.95767 489.47319 
L 455.084943 507.319195 
L 456.212216 520.116272 
L 457.339489 527.577025 
L 458.466761 529.533903 
L 459.594034 525.942957 
L 460.721307 516.884834 
L 461.84858 502.562958 
L 462.975852 483.298969 
L 464.103125 459.525494 
L 465.230398 431.776433 
L 467.484943 366.919581 
L 474.24858 153.068145 
L 475.375852 123.06768 
L 476.503125 96.647748 
L 477.630398 74.401682 
L 478.75767 56.829081 
L 479.884943 44.324589 
L 481.012216 37.169029 
L 482.139489 35.5231 
L 483.266761 39.423765 
L 484.394034 48.783424 
L 485.521307 63.39188 
L 486.64858 82.921057 
L 487.775852 106.932374 
L 488.903125 134.886586 
L 491.15767 200.038084 
L 497.921307 413.699151 
L 499.04858 443.51607 
L 500.175852 469.716942 
L 501.303125 491.71335 
L 502.430398 509.011304 
L 503.55767 521.222328 
L 504.684943 528.072188 
L 505.812216 529.407053 
L 506.939489 525.196944 
L 508.066761 515.536411 
L 509.194034 500.642407 
L 510.321307 480.849422 
L 511.44858 456.601962 
L 512.575852 428.444574 
L 514.830398 363.003034 
L 521.594034 149.547439 
L 522.721307 119.916173 
L 523.84858 93.936214 
L 524.975852 72.191018 
L 526.103125 55.168934 
L 527.230398 43.252242 
L 528.35767 36.708564 
L 529.484943 35.684858 
L 530.612216 40.204114 
L 531.739489 50.164839 
L 532.866761 65.343337 
L 533.994034 85.398731 
L 535.121307 109.880621 
L 536.24858 138.239195 
L 538.503125 203.96615 
L 545.266761 417.201186 
L 546.394034 446.644705 
L 547.521307 472.401914 
L 548.64858 493.894361 
L 549.775852 510.639372 
L 550.903125 522.26089 
L 552.030398 528.497922 
L 553.15767 529.210397 
L 554.284943 524.382314 
L 555.412216 514.122102 
L 556.539489 498.660182 
L 557.666761 478.343797 
L 558.794034 453.629208 
L 559.921307 425.071452 
L 562.175852 359.063727 
L 568.939489 146.064322 
L 570.066761 116.810632 
L 571.194034 91.277994 
L 572.321307 70.039815 
L 573.44858 53.57306 
L 574.575852 42.247537 
L 575.703125 36.317592 
L 576.830398 35.916398 
L 577.95767 41.052967 
L 579.084943 51.611942 
L 580.212216 67.35619 
L 581.339489 87.932131 
L 582.466761 112.877672 
L 583.594034 141.632591 
L 585.84858 207.91642 
L 592.612216 420.665138 
L 593.739489 449.726932 
L 594.866761 475.033195 
L 595.994034 496.015604 
L 597.121307 512.202939 
L 598.24858 523.231667 
L 599.375852 528.854106 
L 600.503125 528.943989 
L 601.630398 523.499298 
L 602.75767 512.642307 
L 603.884943 496.616843 
L 605.012216 475.782802 
L 606.139489 450.608071 
L 607.266761 421.658022 
L 609.521307 355.102773 
L 615.15767 174.629058 
L 617.412216 113.751937 
L 618.539489 88.673837 
L 619.666761 67.948681 
L 620.794034 52.04191 
L 621.921307 41.310758 
L 623.04858 35.996222 
L 624.175852 36.217655 
L 625.303125 41.970084 
L 626.430398 53.124323 
L 627.55767 69.429871 
L 628.684943 90.520541 
L 629.812216 115.922681 
L 630.939489 145.065814 
L 633.194034 211.887778 
L 638.830398 392.238393 
L 639.95767 424.090027 
L 641.084943 452.761879 
L 642.212216 477.610043 
L 643.339489 498.076482 
L 644.466761 513.701563 
L 645.594034 524.134382 
L 646.721307 529.140639 
L 647.84858 528.607906 
L 648.975852 522.548145 
L 650.103125 511.097446 
L 651.230398 494.512967 
L 652.35767 473.16716 
L 653.484943 447.539406 
L 654.612216 418.205248 
L 656.866761 351.121293 
L 662.503125 170.906524 
L 663.630398 139.214787 
L 664.75767 110.740952 
L 665.884943 86.124481 
L 667.012216 65.918206 
L 668.139489 50.575918 
L 669.266761 40.44217 
L 669.266761 40.44217 
" style="fill:none;stroke:#1f77b4;stroke-linecap:square;stroke-width:1.5;"/>
   </g>
   <g id="patch_3">
    <path d="M 30.103125 554.3 
L 30.103125 10.7 
" style="fill:none;stroke:#000000;stroke-linecap:square;stroke-linejoin:miter;stroke-width:0.8;"/>
   </g>
   <g id="patch_4">
    <path d="M 699.703125 554.3 
L 699.703125 10.7 
" style="fill:none;stroke:#000000;stroke-linecap:square;stroke-linejoin:miter;stroke-width:0.8;"/>
   </g>
   <g id="patch_5">
    <path d="M 30.103125 554.3 
L 699.703125 554.3 
" style="fill:none;stroke:#000000;stroke-linecap:square;stroke-linejoin:miter;stroke-width:0.8;"/>
   </g>
   <g id="patch_6">
    <path d="M 30.103125 10.7 
L 699.703125 10.7 
" style="fill:none;stroke:#000000;stroke-linecap:square;stroke-linejoin:miter;stroke-width:0.8;"/>
   </g>
  </g>
 </g>
 <defs>
  <clipPath id="p0a4a6c8d7c">
   <rect height="543.6" width="669.6" x="30.103125" y="10.7"/>
  </clipPath>
 </defs>
</svg>
