<?xml version="1.0" encoding="utf-8" standalone="no"?>
<!DOCTYPE svg PUBLIC "-//W3C//DTD SVG 1.1//EN"
  "http://www.w3.org/Graphics/SVG/1.1/DTD/svg11.dtd">
<!-- Created with matplotlib (https://matplotlib.org/) -->
<svg height="578.178125pt" version="1.1" viewBox="0 0 710.403125 578.178125" width="710.403125pt" xmlns="http://www.w3.org/2000/svg" xmlns:xlink="http://www.w3.org/1999/xlink">
 <defs>
  <style type="text/css">
*{stroke-linecap:butt;stroke-linejoin:round;}
  </style>
 </defs>
 <g id="figure_1">
  <g id="patch_1">
   <path d="M 0 578.178125 
L 710.403125 578.178125 
L 710.403125 0 
L 0 0 
z
" style="fill:#ffffff;"/>
  </g>
  <g id="axes_1">
   <g id="patch_2">
    <path d="M 30.103125 554.3 
L 699.703125 554.3 
L 699.703125 10.7 
L 30.103125 10.7 
z
" style="fill:#ffffff;"/>
   </g>
   <g id="matplotlib.axis_1">
    <g id="xtick_1">
     <g id="line2d_1">
      <defs>
       <path d="M 0 0 
L 0 3.5 
" id="me08f2e6f33" style="stroke:#000000;stroke-width:0.8;"/>
      </defs>
      <g>
       <use style="stroke:#000000;stroke-width:0.8;" x="60.539489" xlink:href="#me08f2e6f33" y="554.3"/>
      </g>
     </g>
     <g id="text_1">
      <!-- 0 -->
      <defs>
       <path d="M 31.78125 66.40625 
Q 24.171875 66.40625 20.328125 58.90625 
Q 16.5 51.421875 16.5 36.375 
Q 16.5 21.390625 20.328125 13.890625 
Q 24.171875 6.390625 31.78125 6.390625 
Q 39.453125 6.390625 43.28125 13.890625 
Q 47.125 21.390625 47.125 36.375 
Q 47.125 51.421875 43.28125 58.90625 
Q 39.453125 66.40625 31.78125 66.40625 
z
M 31.78125 74.21875 
Q 44.046875 74.21875 50.515625 64.515625 
Q 56.984375 54.828125 56.984375 36.375 
Q 56.984375 17.96875 50.515625 8.265625 
Q 44.046875 -1.421875 31.78125 -1.421875 
Q 19.53125 -1.421875 13.0625 8.265625 
Q 6.59375 17.96875 6.59375 36.375 
Q 6.59375 54.828125 13.0625 64.515625 
Q 19.53125 74.21875 31.78125 74.21875 
z
" id="DejaVuSans-48"/>
      </defs>
      <g transform="translate(57.358239 568.898438)scale(0.1 -0.1)">
       <use xlink:href="#DejaVuSans-48"/>
      </g>
     </g>
    </g>
    <g id="xtick_2">
     <g id="line2d_2">
      <g>
       <use style="stroke:#000000;stroke-width:0.8;" x="143.869711" xlink:href="#me08f2e6f33" y="554.3"/>
      </g>
     </g>
     <g id="text_2">
      <!-- 200 -->
      <defs>
       <path d="M 19.1875 8.296875 
L 53.609375 8.296875 
L 53.609375 0 
L 7.328125 0 
L 7.328125 8.296875 
Q 12.9375 14.109375 22.625 23.890625 
Q 32.328125 33.6875 34.8125 36.53125 
Q 39.546875 41.84375 41.421875 45.53125 
Q 43.3125 49.21875 43.3125 52.78125 
Q 43.3125 58.59375 39.234375 62.25 
Q 35.15625 65.921875 28.609375 65.921875 
Q 23.96875 65.921875 18.8125 64.3125 
Q 13.671875 62.703125 7.8125 59.421875 
L 7.8125 69.390625 
Q 13.765625 71.78125 18.9375 73 
Q 24.125 74.21875 28.421875 74.21875 
Q 39.75 74.21875 46.484375 68.546875 
Q 53.21875 62.890625 53.21875 53.421875 
Q 53.21875 48.921875 51.53125 44.890625 
Q 49.859375 40.875 45.40625 35.40625 
Q 44.1875 33.984375 37.640625 27.21875 
Q 31.109375 20.453125 19.1875 8.296875 
z
" id="DejaVuSans-50"/>
      </defs>
      <g transform="translate(134.325961 568.898438)scale(0.1 -0.1)">
       <use xlink:href="#DejaVuSans-50"/>
       <use x="63.623047" xlink:href="#DejaVuSans-48"/>
       <use x="127.246094" xlink:href="#DejaVuSans-48"/>
      </g>
     </g>
    </g>
    <g id="xtick_3">
     <g id="line2d_3">
      <g>
       <use style="stroke:#000000;stroke-width:0.8;" x="227.199933" xlink:href="#me08f2e6f33" y="554.3"/>
      </g>
     </g>
     <g id="text_3">
      <!-- 400 -->
      <defs>
       <path d="M 37.796875 64.3125 
L 12.890625 25.390625 
L 37.796875 25.390625 
z
M 35.203125 72.90625 
L 47.609375 72.90625 
L 47.609375 25.390625 
L 58.015625 25.390625 
L 58.015625 17.1875 
L 47.609375 17.1875 
L 47.609375 0 
L 37.796875 0 
L 37.796875 17.1875 
L 4.890625 17.1875 
L 4.890625 26.703125 
z
" id="DejaVuSans-52"/>
      </defs>
      <g transform="translate(217.656183 568.898438)scale(0.1 -0.1)">
       <use xlink:href="#DejaVuSans-52"/>
       <use x="63.623047" xlink:href="#DejaVuSans-48"/>
       <use x="127.246094" xlink:href="#DejaVuSans-48"/>
      </g>
     </g>
    </g>
    <g id="xtick_4">
     <g id="line2d_4">
      <g>
       <use style="stroke:#000000;stroke-width:0.8;" x="310.530155" xlink:href="#me08f2e6f33" y="554.3"/>
      </g>
     </g>
     <g id="text_4">
      <!-- 600 -->
      <defs>
       <path d="M 33.015625 40.375 
Q 26.375 40.375 22.484375 35.828125 
Q 18.609375 31.296875 18.609375 23.390625 
Q 18.609375 15.53125 22.484375 10.953125 
Q 26.375 6.390625 33.015625 6.390625 
Q 39.65625 6.390625 43.53125 10.953125 
Q 47.40625 15.53125 47.40625 23.390625 
Q 47.40625 31.296875 43.53125 35.828125 
Q 39.65625 40.375 33.015625 40.375 
z
M 52.59375 71.296875 
L 52.59375 62.3125 
Q 48.875 64.0625 45.09375 64.984375 
Q 41.3125 65.921875 37.59375 65.921875 
Q 27.828125 65.921875 22.671875 59.328125 
Q 17.53125 52.734375 16.796875 39.40625 
Q 19.671875 43.65625 24.015625 45.921875 
Q 28.375 48.1875 33.59375 48.1875 
Q 44.578125 48.1875 50.953125 41.515625 
Q 57.328125 34.859375 57.328125 23.390625 
Q 57.328125 12.15625 50.6875 5.359375 
Q 44.046875 -1.421875 33.015625 -1.421875 
Q 20.359375 -1.421875 13.671875 8.265625 
Q 6.984375 17.96875 6.984375 36.375 
Q 6.984375 53.65625 15.1875 63.9375 
Q 23.390625 74.21875 37.203125 74.21875 
Q 40.921875 74.21875 44.703125 73.484375 
Q 48.484375 72.75 52.59375 71.296875 
z
" id="DejaVuSans-54"/>
      </defs>
      <g transform="translate(300.986405 568.898438)scale(0.1 -0.1)">
       <use xlink:href="#DejaVuSans-54"/>
       <use x="63.623047" xlink:href="#DejaVuSans-48"/>
       <use x="127.246094" xlink:href="#DejaVuSans-48"/>
      </g>
     </g>
    </g>
    <g id="xtick_5">
     <g id="line2d_5">
      <g>
       <use style="stroke:#000000;stroke-width:0.8;" x="393.860377" xlink:href="#me08f2e6f33" y="554.3"/>
      </g>
     </g>
     <g id="text_5">
      <!-- 800 -->
      <defs>
       <path d="M 31.78125 34.625 
Q 24.75 34.625 20.71875 30.859375 
Q 16.703125 27.09375 16.703125 20.515625 
Q 16.703125 13.921875 20.71875 10.15625 
Q 24.75 6.390625 31.78125 6.390625 
Q 38.8125 6.390625 42.859375 10.171875 
Q 46.921875 13.96875 46.921875 20.515625 
Q 46.921875 27.09375 42.890625 30.859375 
Q 38.875 34.625 31.78125 34.625 
z
M 21.921875 38.8125 
Q 15.578125 40.375 12.03125 44.71875 
Q 8.5 49.078125 8.5 55.328125 
Q 8.5 64.0625 14.71875 69.140625 
Q 20.953125 74.21875 31.78125 74.21875 
Q 42.671875 74.21875 48.875 69.140625 
Q 55.078125 64.0625 55.078125 55.328125 
Q 55.078125 49.078125 51.53125 44.71875 
Q 48 40.375 41.703125 38.8125 
Q 48.828125 37.15625 52.796875 32.3125 
Q 56.78125 27.484375 56.78125 20.515625 
Q 56.78125 9.90625 50.3125 4.234375 
Q 43.84375 -1.421875 31.78125 -1.421875 
Q 19.734375 -1.421875 13.25 4.234375 
Q 6.78125 9.90625 6.78125 20.515625 
Q 6.78125 27.484375 10.78125 32.3125 
Q 14.796875 37.15625 21.921875 38.8125 
z
M 18.3125 54.390625 
Q 18.3125 48.734375 21.84375 45.5625 
Q 25.390625 42.390625 31.78125 42.390625 
Q 38.140625 42.390625 41.71875 45.5625 
Q 45.3125 48.734375 45.3125 54.390625 
Q 45.3125 60.0625 41.71875 63.234375 
Q 38.140625 66.40625 31.78125 66.40625 
Q 25.390625 66.40625 21.84375 63.234375 
Q 18.3125 60.0625 18.3125 54.390625 
z
" id="DejaVuSans-56"/>
      </defs>
      <g transform="translate(384.316627 568.898438)scale(0.1 -0.1)">
       <use xlink:href="#DejaVuSans-56"/>
       <use x="63.623047" xlink:href="#DejaVuSans-48"/>
       <use x="127.246094" xlink:href="#DejaVuSans-48"/>
      </g>
     </g>
    </g>
    <g id="xtick_6">
     <g id="line2d_6">
      <g>
       <use style="stroke:#000000;stroke-width:0.8;" x="477.190599" xlink:href="#me08f2e6f33" y="554.3"/>
      </g>
     </g>
     <g id="text_6">
      <!-- 1000 -->
      <defs>
       <path d="M 12.40625 8.296875 
L 28.515625 8.296875 
L 28.515625 63.921875 
L 10.984375 60.40625 
L 10.984375 69.390625 
L 28.421875 72.90625 
L 38.28125 72.90625 
L 38.28125 8.296875 
L 54.390625 8.296875 
L 54.390625 0 
L 12.40625 0 
z
" id="DejaVuSans-49"/>
      </defs>
      <g transform="translate(464.465599 568.898438)scale(0.1 -0.1)">
       <use xlink:href="#DejaVuSans-49"/>
       <use x="63.623047" xlink:href="#DejaVuSans-48"/>
       <use x="127.246094" xlink:href="#DejaVuSans-48"/>
       <use x="190.869141" xlink:href="#DejaVuSans-48"/>
      </g>
     </g>
    </g>
    <g id="xtick_7">
     <g id="line2d_7">
      <g>
       <use style="stroke:#000000;stroke-width:0.8;" x="560.520821" xlink:href="#me08f2e6f33" y="554.3"/>
      </g>
     </g>
     <g id="text_7">
      <!-- 1200 -->
      <g transform="translate(547.795821 568.898438)scale(0.1 -0.1)">
       <use xlink:href="#DejaVuSans-49"/>
       <use x="63.623047" xlink:href="#DejaVuSans-50"/>
       <use x="127.246094" xlink:href="#DejaVuSans-48"/>
       <use x="190.869141" xlink:href="#DejaVuSans-48"/>
      </g>
     </g>
    </g>
    <g id="xtick_8">
     <g id="line2d_8">
      <g>
       <use style="stroke:#000000;stroke-width:0.8;" x="643.851044" xlink:href="#me08f2e6f33" y="554.3"/>
      </g>
     </g>
     <g id="text_8">
      <!-- 1400 -->
      <g transform="translate(631.126044 568.898438)scale(0.1 -0.1)">
       <use xlink:href="#DejaVuSans-49"/>
       <use x="63.623047" xlink:href="#DejaVuSans-52"/>
       <use x="127.246094" xlink:href="#DejaVuSans-48"/>
       <use x="190.869141" xlink:href="#DejaVuSans-48"/>
      </g>
     </g>
    </g>
   </g>
   <g id="matplotlib.axis_2">
    <g id="ytick_1">
     <g id="line2d_9">
      <defs>
       <path d="M 0 0 
L -3.5 0 
" id="m8825e56b1b" style="stroke:#000000;stroke-width:0.8;"/>
      </defs>
      <g>
       <use style="stroke:#000000;stroke-width:0.8;" x="30.103125" xlink:href="#m8825e56b1b" y="510.493713"/>
      </g>
     </g>
     <g id="text_9">
      <!-- 0.2 -->
      <defs>
       <path d="M 10.6875 12.40625 
L 21 12.40625 
L 21 0 
L 10.6875 0 
z
" id="DejaVuSans-46"/>
      </defs>
      <g transform="translate(7.2 514.292932)scale(0.1 -0.1)">
       <use xlink:href="#DejaVuSans-48"/>
       <use x="63.623047" xlink:href="#DejaVuSans-46"/>
       <use x="95.410156" xlink:href="#DejaVuSans-50"/>
      </g>
     </g>
    </g>
    <g id="ytick_2">
     <g id="line2d_10">
      <g>
       <use style="stroke:#000000;stroke-width:0.8;" x="30.103125" xlink:href="#m8825e56b1b" y="443.150971"/>
      </g>
     </g>
     <g id="text_10">
      <!-- 0.3 -->
      <defs>
       <path d="M 40.578125 39.3125 
Q 47.65625 37.796875 51.625 33 
Q 55.609375 28.21875 55.609375 21.1875 
Q 55.609375 10.40625 48.1875 4.484375 
Q 40.765625 -1.421875 27.09375 -1.421875 
Q 22.515625 -1.421875 17.65625 -0.515625 
Q 12.796875 0.390625 7.625 2.203125 
L 7.625 11.71875 
Q 11.71875 9.328125 16.59375 8.109375 
Q 21.484375 6.890625 26.8125 6.890625 
Q 36.078125 6.890625 40.9375 10.546875 
Q 45.796875 14.203125 45.796875 21.1875 
Q 45.796875 27.640625 41.28125 31.265625 
Q 36.765625 34.90625 28.71875 34.90625 
L 20.21875 34.90625 
L 20.21875 43.015625 
L 29.109375 43.015625 
Q 36.375 43.015625 40.234375 45.921875 
Q 44.09375 48.828125 44.09375 54.296875 
Q 44.09375 59.90625 40.109375 62.90625 
Q 36.140625 65.921875 28.71875 65.921875 
Q 24.65625 65.921875 20.015625 65.03125 
Q 15.375 64.15625 9.8125 62.3125 
L 9.8125 71.09375 
Q 15.4375 72.65625 20.34375 73.4375 
Q 25.25 74.21875 29.59375 74.21875 
Q 40.828125 74.21875 47.359375 69.109375 
Q 53.90625 64.015625 53.90625 55.328125 
Q 53.90625 49.265625 50.4375 45.09375 
Q 46.96875 40.921875 40.578125 39.3125 
z
" id="DejaVuSans-51"/>
      </defs>
      <g transform="translate(7.2 446.950189)scale(0.1 -0.1)">
       <use xlink:href="#DejaVuSans-48"/>
       <use x="63.623047" xlink:href="#DejaVuSans-46"/>
       <use x="95.410156" xlink:href="#DejaVuSans-51"/>
      </g>
     </g>
    </g>
    <g id="ytick_3">
     <g id="line2d_11">
      <g>
       <use style="stroke:#000000;stroke-width:0.8;" x="30.103125" xlink:href="#m8825e56b1b" y="375.808228"/>
      </g>
     </g>
     <g id="text_11">
      <!-- 0.4 -->
      <g transform="translate(7.2 379.607447)scale(0.1 -0.1)">
       <use xlink:href="#DejaVuSans-48"/>
       <use x="63.623047" xlink:href="#DejaVuSans-46"/>
       <use x="95.410156" xlink:href="#DejaVuSans-52"/>
      </g>
     </g>
    </g>
    <g id="ytick_4">
     <g id="line2d_12">
      <g>
       <use style="stroke:#000000;stroke-width:0.8;" x="30.103125" xlink:href="#m8825e56b1b" y="308.465485"/>
      </g>
     </g>
     <g id="text_12">
      <!-- 0.5 -->
      <defs>
       <path d="M 10.796875 72.90625 
L 49.515625 72.90625 
L 49.515625 64.59375 
L 19.828125 64.59375 
L 19.828125 46.734375 
Q 21.96875 47.46875 24.109375 47.828125 
Q 26.265625 48.1875 28.421875 48.1875 
Q 40.625 48.1875 47.75 41.5 
Q 54.890625 34.8125 54.890625 23.390625 
Q 54.890625 11.625 47.5625 5.09375 
Q 40.234375 -1.421875 26.90625 -1.421875 
Q 22.3125 -1.421875 17.546875 -0.640625 
Q 12.796875 0.140625 7.71875 1.703125 
L 7.71875 11.625 
Q 12.109375 9.234375 16.796875 8.0625 
Q 21.484375 6.890625 26.703125 6.890625 
Q 35.15625 6.890625 40.078125 11.328125 
Q 45.015625 15.765625 45.015625 23.390625 
Q 45.015625 31 40.078125 35.4375 
Q 35.15625 39.890625 26.703125 39.890625 
Q 22.75 39.890625 18.8125 39.015625 
Q 14.890625 38.140625 10.796875 36.28125 
z
" id="DejaVuSans-53"/>
      </defs>
      <g transform="translate(7.2 312.264704)scale(0.1 -0.1)">
       <use xlink:href="#DejaVuSans-48"/>
       <use x="63.623047" xlink:href="#DejaVuSans-46"/>
       <use x="95.410156" xlink:href="#DejaVuSans-53"/>
      </g>
     </g>
    </g>
    <g id="ytick_5">
     <g id="line2d_13">
      <g>
       <use style="stroke:#000000;stroke-width:0.8;" x="30.103125" xlink:href="#m8825e56b1b" y="241.122743"/>
      </g>
     </g>
     <g id="text_13">
      <!-- 0.6 -->
      <g transform="translate(7.2 244.921961)scale(0.1 -0.1)">
       <use xlink:href="#DejaVuSans-48"/>
       <use x="63.623047" xlink:href="#DejaVuSans-46"/>
       <use x="95.410156" xlink:href="#DejaVuSans-54"/>
      </g>
     </g>
    </g>
    <g id="ytick_6">
     <g id="line2d_14">
      <g>
       <use style="stroke:#000000;stroke-width:0.8;" x="30.103125" xlink:href="#m8825e56b1b" y="173.78"/>
      </g>
     </g>
     <g id="text_14">
      <!-- 0.7 -->
      <defs>
       <path d="M 8.203125 72.90625 
L 55.078125 72.90625 
L 55.078125 68.703125 
L 28.609375 0 
L 18.3125 0 
L 43.21875 64.59375 
L 8.203125 64.59375 
z
" id="DejaVuSans-55"/>
      </defs>
      <g transform="translate(7.2 177.579219)scale(0.1 -0.1)">
       <use xlink:href="#DejaVuSans-48"/>
       <use x="63.623047" xlink:href="#DejaVuSans-46"/>
       <use x="95.410156" xlink:href="#DejaVuSans-55"/>
      </g>
     </g>
    </g>
    <g id="ytick_7">
     <g id="line2d_15">
      <g>
       <use style="stroke:#000000;stroke-width:0.8;" x="30.103125" xlink:href="#m8825e56b1b" y="106.437257"/>
      </g>
     </g>
     <g id="text_15">
      <!-- 0.8 -->
      <g transform="translate(7.2 110.236476)scale(0.1 -0.1)">
       <use xlink:href="#DejaVuSans-48"/>
       <use x="63.623047" xlink:href="#DejaVuSans-46"/>
       <use x="95.410156" xlink:href="#DejaVuSans-56"/>
      </g>
     </g>
    </g>
    <g id="ytick_8">
     <g id="line2d_16">
      <g>
       <use style="stroke:#000000;stroke-width:0.8;" x="30.103125" xlink:href="#m8825e56b1b" y="39.094515"/>
      </g>
     </g>
     <g id="text_16">
      <!-- 0.9 -->
      <defs>
       <path d="M 10.984375 1.515625 
L 10.984375 10.5 
Q 14.703125 8.734375 18.5 7.8125 
Q 22.3125 6.890625 25.984375 6.890625 
Q 35.75 6.890625 40.890625 13.453125 
Q 46.046875 20.015625 46.78125 33.40625 
Q 43.953125 29.203125 39.59375 26.953125 
Q 35.25 24.703125 29.984375 24.703125 
Q 19.046875 24.703125 12.671875 31.3125 
Q 6.296875 37.9375 6.296875 49.421875 
Q 6.296875 60.640625 12.9375 67.421875 
Q 19.578125 74.21875 30.609375 74.21875 
Q 43.265625 74.21875 49.921875 64.515625 
Q 56.59375 54.828125 56.59375 36.375 
Q 56.59375 19.140625 48.40625 8.859375 
Q 40.234375 -1.421875 26.421875 -1.421875 
Q 22.703125 -1.421875 18.890625 -0.6875 
Q 15.09375 0.046875 10.984375 1.515625 
z
M 30.609375 32.421875 
Q 37.25 32.421875 41.125 36.953125 
Q 45.015625 41.5 45.015625 49.421875 
Q 45.015625 57.28125 41.125 61.84375 
Q 37.25 66.40625 30.609375 66.40625 
Q 23.96875 66.40625 20.09375 61.84375 
Q 16.21875 57.28125 16.21875 49.421875 
Q 16.21875 41.5 20.09375 36.953125 
Q 23.96875 32.421875 30.609375 32.421875 
z
" id="DejaVuSans-57"/>
      </defs>
      <g transform="translate(7.2 42.893733)scale(0.1 -0.1)">
       <use xlink:href="#DejaVuSans-48"/>
       <use x="63.623047" xlink:href="#DejaVuSans-46"/>
       <use x="95.410156" xlink:href="#DejaVuSans-57"/>
      </g>
     </g>
    </g>
   </g>
   <g id="line2d_17">
    <path clip-path="url(#p9eb34692f1)" d="M 60.539489 385.524345 
L 60.95614 382.17396 
L 61.372791 370.447612 
L 61.789442 206.278737 
L 62.206093 236.432203 
L 62.622744 214.6547 
L 63.039395 211.304314 
L 63.456046 281.662404 
L 63.872698 398.925886 
L 64.289349 410.652234 
L 64.706 415.677812 
L 65.122651 427.40416 
L 65.955953 414.002619 
L 66.789255 425.728968 
L 67.205906 425.728968 
L 67.622558 419.028197 
L 68.039209 407.301849 
L 69.289162 343.64453 
L 69.705813 336.94376 
L 70.539115 357.046071 
L 70.955766 370.447612 
L 71.372418 378.823575 
L 71.789069 370.447612 
L 72.20572 373.797997 
L 72.622371 385.524345 
L 73.039022 393.900308 
L 73.455673 382.17396 
L 73.872324 378.823575 
L 74.288975 377.148382 
L 74.705626 388.87473 
L 75.122278 393.900308 
L 75.538929 403.951464 
L 75.95558 408.977042 
L 76.372231 405.626656 
L 76.788882 405.626656 
L 77.205533 400.601079 
L 77.622184 403.951464 
L 78.038835 400.601079 
L 78.455486 393.900308 
L 78.872138 398.925886 
L 79.288789 373.797997 
L 79.70544 94.040832 
L 80.122091 246.483359 
L 80.955393 253.184129 
L 81.372044 378.823575 
L 81.788695 432.429738 
L 82.205346 434.104931 
L 82.621998 412.327427 
L 83.038649 430.754545 
L 83.4553 419.028197 
L 84.705253 408.977042 
L 85.121904 407.301849 
L 85.538555 393.900308 
L 85.955206 368.772419 
L 86.788509 341.969337 
L 87.20516 338.618952 
L 88.038462 365.422034 
L 88.455113 365.422034 
L 88.871764 368.772419 
L 89.288415 367.097227 
L 89.705066 370.447612 
L 90.121717 378.823575 
L 90.538369 367.097227 
L 90.95502 367.097227 
L 91.371671 383.849153 
L 91.788322 387.199538 
L 92.204973 387.199538 
L 92.621624 382.17396 
L 93.038275 383.849153 
L 93.454926 395.575501 
L 93.871577 383.849153 
L 94.288229 377.148382 
L 94.70488 378.823575 
L 95.121531 387.199538 
L 95.538182 392.225116 
L 95.954833 395.575501 
L 96.371484 395.575501 
L 96.788135 378.823575 
L 97.204786 52.161017 
L 97.621437 244.808166 
L 98.038089 192.877196 
L 98.45474 164.398921 
L 98.871391 239.782589 
L 99.288042 358.721263 
L 99.704693 412.327427 
L 100.121344 437.455316 
L 100.537995 449.181664 
L 101.371297 429.079353 
L 102.2046 442.480894 
L 102.621251 444.156086 
L 103.037902 434.104931 
L 104.704506 363.746841 
L 105.121157 358.721263 
L 105.537809 358.721263 
L 105.95446 370.447612 
L 106.371111 375.47319 
L 106.787762 373.797997 
L 107.204413 370.447612 
L 107.621064 370.447612 
L 108.454366 377.148382 
L 108.871017 377.148382 
L 109.287669 378.823575 
L 109.70432 382.17396 
L 110.120971 387.199538 
L 110.954273 393.900308 
L 111.370924 390.549923 
L 111.787575 392.225116 
L 112.204226 395.575501 
L 113.037529 395.575501 
L 113.45418 393.900308 
L 113.870831 388.87473 
L 114.287482 380.498767 
L 114.704133 35.409091 
L 115.120784 231.406626 
L 115.537435 224.705855 
L 115.954086 233.081818 
L 116.370737 357.046071 
L 116.787389 372.122804 
L 117.20404 427.40416 
L 117.620691 430.754545 
L 118.037342 445.831279 
L 118.453993 442.480894 
L 118.870644 440.805701 
L 119.287295 435.780123 
L 119.703946 425.728968 
L 120.120597 424.053775 
L 120.537249 414.002619 
L 121.370551 377.148382 
L 122.203853 358.721263 
L 122.620504 357.046071 
L 123.037155 372.122804 
L 123.453806 378.823575 
L 123.870457 373.797997 
L 124.287109 373.797997 
L 124.70376 385.524345 
L 125.120411 383.849153 
L 125.537062 387.199538 
L 125.953713 383.849153 
L 126.787015 398.925886 
L 127.620317 412.327427 
L 128.036969 405.626656 
L 128.45362 408.977042 
L 128.870271 414.002619 
L 129.286922 417.353005 
L 129.703573 415.677812 
L 130.120224 412.327427 
L 130.536875 415.677812 
L 130.953526 407.301849 
L 131.370177 402.276271 
L 131.786829 218.005085 
L 132.20348 268.260863 
L 132.620131 268.260863 
L 133.036782 296.739137 
L 133.453433 419.028197 
L 133.870084 477.659938 
L 134.286735 454.207242 
L 134.703386 422.378582 
L 135.120037 439.130508 
L 135.536689 430.754545 
L 135.95334 442.480894 
L 136.786642 435.780123 
L 137.203293 425.728968 
L 137.619944 420.70339 
L 138.453246 360.396456 
L 139.286549 345.319723 
L 140.119851 375.47319 
L 140.536502 380.498767 
L 141.786455 400.601079 
L 142.203106 398.925886 
L 142.619757 398.925886 
L 143.036409 408.977042 
L 143.45306 415.677812 
L 143.869711 417.353005 
L 144.286362 417.353005 
L 144.703013 419.028197 
L 145.119664 419.028197 
L 145.536315 427.40416 
L 146.369617 434.104931 
L 146.786269 429.079353 
L 147.20292 427.40416 
L 147.619571 434.104931 
L 148.036222 432.429738 
L 148.452873 420.70339 
L 148.869524 87.340062 
L 149.286175 264.910478 
L 149.702826 261.560092 
L 150.119477 308.465485 
L 150.536129 474.309553 
L 150.95278 470.959168 
L 151.369431 445.831279 
L 151.786082 457.557627 
L 152.202733 457.557627 
L 152.619384 459.23282 
L 153.452686 477.659938 
L 153.869337 481.010324 
L 154.285989 479.335131 
L 154.70264 457.557627 
L 155.535942 387.199538 
L 155.952593 367.097227 
L 156.369244 365.422034 
L 156.785895 377.148382 
L 158.4525 408.977042 
L 158.869151 405.626656 
L 159.702453 405.626656 
L 160.119104 417.353005 
L 160.535755 417.353005 
L 160.952406 420.70339 
L 161.369057 419.028197 
L 161.785709 422.378582 
L 162.20236 422.378582 
L 162.619011 429.079353 
L 163.035662 429.079353 
L 163.452313 425.728968 
L 163.868964 424.053775 
L 164.285615 420.70339 
L 164.702266 422.378582 
L 165.535569 290.038367 
L 165.95222 268.260863 
L 166.368871 283.337596 
L 166.785522 412.327427 
L 167.202173 465.93359 
L 167.618824 462.583205 
L 168.035475 437.455316 
L 168.452126 445.831279 
L 168.868777 449.181664 
L 169.70208 432.429738 
L 170.118731 432.429738 
L 170.535382 449.181664 
L 170.952033 455.882435 
L 171.368684 442.480894 
L 171.785335 424.053775 
L 172.201986 395.575501 
L 172.618637 390.549923 
L 173.035289 400.601079 
L 173.45194 403.951464 
L 173.868591 410.652234 
L 174.285242 410.652234 
L 174.701893 405.626656 
L 175.118544 424.053775 
L 175.535195 425.728968 
L 175.951846 429.079353 
L 176.368497 429.079353 
L 176.785149 430.754545 
L 177.2018 435.780123 
L 177.618451 437.455316 
L 178.035102 434.104931 
L 178.451753 434.104931 
L 178.868404 435.780123 
L 179.285055 445.831279 
L 179.701706 440.805701 
L 180.118357 432.429738 
L 180.535009 435.780123 
L 181.368311 432.429738 
L 181.784962 403.951464 
L 182.201613 172.774884 
L 182.618264 283.337596 
L 183.034915 305.1151 
L 183.451566 345.319723 
L 183.868217 514.514176 
L 184.284869 502.787827 
L 184.70152 474.309553 
L 185.118171 459.23282 
L 185.534822 450.856857 
L 185.951473 439.130508 
L 186.784775 435.780123 
L 187.201426 439.130508 
L 187.618077 430.754545 
L 188.034729 414.002619 
L 188.45138 410.652234 
L 188.868031 375.47319 
L 189.284682 372.122804 
L 189.701333 378.823575 
L 190.117984 368.772419 
L 190.534635 390.549923 
L 190.951286 402.276271 
L 191.367937 405.626656 
L 191.784589 412.327427 
L 192.20124 422.378582 
L 192.617891 414.002619 
L 193.034542 415.677812 
L 193.451193 425.728968 
L 193.867844 425.728968 
L 194.284495 429.079353 
L 194.701146 424.053775 
L 195.117797 427.40416 
L 195.534449 432.429738 
L 195.9511 440.805701 
L 196.367751 434.104931 
L 196.784402 435.780123 
L 197.617704 435.780123 
L 198.034355 442.480894 
L 199.284308 432.429738 
L 199.70096 422.378582 
L 200.117611 156.022958 
L 200.534262 285.012789 
L 200.950913 261.560092 
L 201.367564 281.662404 
L 201.784215 408.977042 
L 202.200866 491.061479 
L 202.617517 502.787827 
L 203.034168 469.283975 
L 203.45082 477.659938 
L 203.867471 464.258398 
L 204.284122 459.23282 
L 204.700773 462.583205 
L 205.117424 462.583205 
L 205.950726 455.882435 
L 207.20068 385.524345 
L 207.617331 380.498767 
L 208.033982 373.797997 
L 208.867284 400.601079 
L 209.283935 402.276271 
L 209.700586 408.977042 
L 210.117237 412.327427 
L 210.533888 412.327427 
L 210.95054 417.353005 
L 211.367191 414.002619 
L 211.783842 417.353005 
L 212.617144 430.754545 
L 213.450446 427.40416 
L 213.867097 430.754545 
L 214.283748 435.780123 
L 214.7004 437.455316 
L 215.117051 437.455316 
L 215.950353 424.053775 
L 216.367004 427.40416 
L 216.783655 425.728968 
L 217.200306 420.70339 
L 217.616957 390.549923 
L 218.033608 256.534515 
L 218.45026 283.337596 
L 218.866911 290.038367 
L 219.283562 382.17396 
L 219.700213 512.838983 
L 220.533515 424.053775 
L 220.950166 445.831279 
L 221.366817 434.104931 
L 221.783468 430.754545 
L 222.20012 434.104931 
L 222.616771 439.130508 
L 223.033422 439.130508 
L 223.450073 427.40416 
L 224.283375 387.199538 
L 224.700026 378.823575 
L 225.116677 363.746841 
L 225.533328 370.447612 
L 225.94998 383.849153 
L 226.366631 387.199538 
L 226.783282 402.276271 
L 227.199933 403.951464 
L 227.616584 400.601079 
L 228.033235 395.575501 
L 228.449886 402.276271 
L 228.866537 405.626656 
L 229.283188 425.728968 
L 229.69984 422.378582 
L 230.116491 425.728968 
L 230.533142 432.429738 
L 231.366444 432.429738 
L 231.783095 439.130508 
L 232.199746 437.455316 
L 232.616397 434.104931 
L 233.033048 434.104931 
L 233.4497 439.130508 
L 233.866351 432.429738 
L 234.283002 422.378582 
L 234.699653 402.276271 
L 235.116304 112.467951 
L 235.532955 278.312018 
L 235.949606 288.363174 
L 236.366257 286.687982 
L 236.782908 414.002619 
L 237.19956 432.429738 
L 237.616211 469.283975 
L 238.032862 460.908012 
L 238.449513 472.634361 
L 238.866164 444.156086 
L 239.282815 455.882435 
L 239.699466 459.23282 
L 240.116117 452.532049 
L 240.532768 435.780123 
L 240.94942 430.754545 
L 241.782722 390.549923 
L 242.199373 380.498767 
L 242.616024 367.097227 
L 243.032675 365.422034 
L 243.449326 372.122804 
L 243.865977 388.87473 
L 244.282628 390.549923 
L 244.69928 395.575501 
L 245.115931 383.849153 
L 245.532582 402.276271 
L 245.949233 398.925886 
L 246.365884 408.977042 
L 246.782535 397.250693 
L 247.199186 402.276271 
L 247.615837 410.652234 
L 248.032488 414.002619 
L 248.44914 402.276271 
L 248.865791 400.601079 
L 249.282442 407.301849 
L 249.699093 420.70339 
L 250.115744 424.053775 
L 250.532395 420.70339 
L 250.949046 419.028197 
L 251.365697 414.002619 
L 251.782348 397.250693 
L 252.199 149.322188 
L 252.615651 256.534515 
L 253.032302 233.081818 
L 253.448953 231.406626 
L 253.865604 367.097227 
L 254.282255 449.181664 
L 254.698906 475.984746 
L 255.115557 460.908012 
L 255.532208 469.283975 
L 255.94886 455.882435 
L 256.365511 457.557627 
L 256.782162 460.908012 
L 257.615464 457.557627 
L 258.448766 429.079353 
L 258.865417 398.925886 
L 259.282068 377.148382 
L 259.69872 370.447612 
L 260.115371 377.148382 
L 260.532022 388.87473 
L 260.948673 390.549923 
L 261.365324 387.199538 
L 262.198626 390.549923 
L 262.615277 393.900308 
L 263.031928 392.225116 
L 263.44858 385.524345 
L 264.281882 398.925886 
L 264.698533 402.276271 
L 265.115184 408.977042 
L 265.948486 408.977042 
L 266.365137 415.677812 
L 266.781788 417.353005 
L 267.19844 412.327427 
L 267.615091 397.250693 
L 268.031742 397.250693 
L 268.448393 402.276271 
L 269.698346 231.406626 
L 270.114997 201.253159 
L 270.531648 228.05624 
L 270.9483 382.17396 
L 271.781602 444.156086 
L 272.614904 462.583205 
L 273.864857 444.156086 
L 274.69816 434.104931 
L 275.114811 424.053775 
L 275.948113 378.823575 
L 276.364764 370.447612 
L 276.781415 375.47319 
L 277.614717 393.900308 
L 278.44802 403.951464 
L 278.864671 400.601079 
L 279.281322 410.652234 
L 279.697973 403.951464 
L 280.114624 403.951464 
L 280.531275 407.301849 
L 280.947926 419.028197 
L 281.364577 415.677812 
L 281.781228 420.70339 
L 282.614531 417.353005 
L 283.031182 425.728968 
L 283.447833 429.079353 
L 283.864484 424.053775 
L 284.281135 424.053775 
L 284.697786 422.378582 
L 285.114437 425.728968 
L 285.531088 417.353005 
L 285.94774 48.810632 
L 286.364391 259.8849 
L 286.781042 273.286441 
L 287.197693 328.567797 
L 287.614344 467.608783 
L 288.030995 439.130508 
L 288.447646 435.780123 
L 288.864297 450.856857 
L 289.6976 447.506471 
L 290.114251 430.754545 
L 290.530902 429.079353 
L 290.947553 429.079353 
L 291.364204 417.353005 
L 291.780855 417.353005 
L 292.614157 372.122804 
L 293.44746 365.422034 
L 293.864111 375.47319 
L 294.280762 388.87473 
L 294.697413 390.549923 
L 295.114064 390.549923 
L 295.530715 392.225116 
L 295.947366 410.652234 
L 296.364017 398.925886 
L 296.780668 397.250693 
L 297.19732 402.276271 
L 297.613971 408.977042 
L 298.030622 410.652234 
L 298.447273 420.70339 
L 298.863924 417.353005 
L 299.280575 419.028197 
L 299.697226 427.40416 
L 300.113877 432.429738 
L 300.530528 427.40416 
L 300.94718 425.728968 
L 301.363831 427.40416 
L 301.780482 427.40416 
L 302.197133 422.378582 
L 302.613784 129.219877 
L 303.030435 279.987211 
L 303.447086 269.936055 
L 303.863737 293.388752 
L 304.280388 457.557627 
L 304.69704 481.010324 
L 305.113691 477.659938 
L 305.530342 470.959168 
L 305.946993 479.335131 
L 306.363644 484.360709 
L 306.780295 481.010324 
L 307.196946 486.035901 
L 307.613597 486.035901 
L 308.030248 482.685516 
L 308.4469 472.634361 
L 309.696853 387.199538 
L 310.113504 378.823575 
L 310.530155 385.524345 
L 310.946806 395.575501 
L 311.780108 407.301849 
L 312.196759 412.327427 
L 312.613411 415.677812 
L 313.446713 415.677812 
L 313.863364 417.353005 
L 314.696666 432.429738 
L 315.113317 434.104931 
L 315.529968 429.079353 
L 315.946619 434.104931 
L 316.363271 435.780123 
L 316.779922 439.130508 
L 317.196573 435.780123 
L 318.029875 432.429738 
L 318.863177 432.429738 
L 319.279828 425.728968 
L 319.696479 403.951464 
L 320.113131 94.040832 
L 320.529782 283.337596 
L 320.946433 273.286441 
L 321.363084 278.312018 
L 322.196386 455.882435 
L 322.613037 477.659938 
L 323.029688 464.258398 
L 323.862991 470.959168 
L 324.279642 467.608783 
L 324.696293 472.634361 
L 325.112944 479.335131 
L 325.529595 475.984746 
L 326.362897 462.583205 
L 327.196199 429.079353 
L 328.029502 385.524345 
L 328.446153 373.797997 
L 328.862804 380.498767 
L 329.279455 395.575501 
L 329.696106 402.276271 
L 330.112757 400.601079 
L 330.529408 410.652234 
L 330.946059 407.301849 
L 331.362711 414.002619 
L 331.779362 410.652234 
L 332.196013 415.677812 
L 332.612664 412.327427 
L 333.029315 422.378582 
L 333.445966 422.378582 
L 333.862617 424.053775 
L 334.279268 422.378582 
L 334.695919 430.754545 
L 335.529222 430.754545 
L 335.945873 432.429738 
L 336.779175 425.728968 
L 337.195826 430.754545 
L 337.612477 427.40416 
L 338.029128 410.652234 
L 338.445779 117.493529 
L 338.862431 285.012789 
L 339.279082 276.636826 
L 339.695733 285.012789 
L 340.112384 424.053775 
L 340.529035 465.93359 
L 340.945686 482.685516 
L 341.362337 469.283975 
L 341.778988 474.309553 
L 342.195639 467.608783 
L 342.612291 474.309553 
L 343.028942 460.908012 
L 343.445593 465.93359 
L 343.862244 462.583205 
L 344.695546 422.378582 
L 345.112197 410.652234 
L 345.528848 383.849153 
L 345.945499 373.797997 
L 346.362151 370.447612 
L 346.778802 377.148382 
L 347.612104 397.250693 
L 348.028755 417.353005 
L 348.445406 408.977042 
L 349.278708 415.677812 
L 349.695359 415.677812 
L 350.112011 425.728968 
L 350.945313 425.728968 
L 351.361964 429.079353 
L 351.778615 437.455316 
L 353.028568 437.455316 
L 353.445219 435.780123 
L 353.861871 439.130508 
L 354.278522 440.805701 
L 354.695173 440.805701 
L 355.111824 432.429738 
L 355.528475 427.40416 
L 355.945126 179.475655 
L 356.361777 291.713559 
L 356.778428 263.235285 
L 357.195079 278.312018 
L 357.611731 425.728968 
L 358.028382 464.258398 
L 358.445033 477.659938 
L 358.861684 469.283975 
L 359.278335 477.659938 
L 359.694986 475.984746 
L 360.111637 481.010324 
L 360.528288 491.061479 
L 360.944939 489.386287 
L 361.361591 482.685516 
L 361.778242 469.283975 
L 362.194893 449.181664 
L 363.028195 393.900308 
L 363.444846 373.797997 
L 363.861497 372.122804 
L 364.278148 383.849153 
L 364.694799 392.225116 
L 365.111451 395.575501 
L 365.528102 395.575501 
L 365.944753 397.250693 
L 366.361404 408.977042 
L 367.611357 403.951464 
L 368.028008 410.652234 
L 368.444659 410.652234 
L 368.861311 419.028197 
L 369.277962 419.028197 
L 370.111264 415.677812 
L 370.527915 417.353005 
L 370.944566 417.353005 
L 371.361217 414.002619 
L 371.777868 414.002619 
L 372.194519 408.977042 
L 372.611171 398.925886 
L 373.027822 83.989676 
L 373.444473 258.209707 
L 373.861124 239.782589 
L 374.277775 254.859322 
L 374.694426 393.900308 
L 375.111077 422.378582 
L 375.527728 435.780123 
L 375.944379 435.780123 
L 376.361031 455.882435 
L 376.777682 454.207242 
L 377.610984 454.207242 
L 378.027635 449.181664 
L 378.860937 442.480894 
L 379.277588 430.754545 
L 380.110891 383.849153 
L 380.527542 368.772419 
L 380.944193 367.097227 
L 381.360844 373.797997 
L 381.777495 377.148382 
L 382.194146 378.823575 
L 382.610797 382.17396 
L 383.027448 387.199538 
L 383.444099 385.524345 
L 383.860751 388.87473 
L 384.277402 388.87473 
L 384.694053 393.900308 
L 385.110704 403.951464 
L 385.527355 408.977042 
L 385.944006 408.977042 
L 386.360657 402.276271 
L 386.777308 410.652234 
L 387.193959 408.977042 
L 387.610611 420.70339 
L 388.443913 407.301849 
L 388.860564 408.977042 
L 389.277215 414.002619 
L 389.693866 109.117565 
L 390.110517 251.508937 
L 390.527168 241.457781 
L 390.943819 256.534515 
L 391.360471 385.524345 
L 391.777122 440.805701 
L 392.193773 469.283975 
L 392.610424 457.557627 
L 393.027075 464.258398 
L 393.443726 460.908012 
L 394.277028 444.156086 
L 394.693679 440.805701 
L 395.110331 435.780123 
L 395.526982 435.780123 
L 395.943633 419.028197 
L 396.776935 375.47319 
L 397.193586 360.396456 
L 397.610237 372.122804 
L 398.443539 387.199538 
L 398.860191 388.87473 
L 399.276842 385.524345 
L 400.110144 398.925886 
L 400.526795 393.900308 
L 400.943446 395.575501 
L 401.360097 400.601079 
L 401.776748 408.977042 
L 402.193399 412.327427 
L 402.610051 412.327427 
L 403.026702 408.977042 
L 403.443353 407.301849 
L 403.860004 419.028197 
L 404.276655 417.353005 
L 404.693306 408.977042 
L 405.109957 408.977042 
L 405.526608 407.301849 
L 405.943259 407.301849 
L 406.359911 373.797997 
L 406.776562 204.603544 
L 407.193213 231.406626 
L 407.609864 234.757011 
L 408.026515 273.286441 
L 408.443166 419.028197 
L 408.859817 414.002619 
L 409.276468 435.780123 
L 409.693119 444.156086 
L 410.109771 464.258398 
L 410.943073 454.207242 
L 411.359724 452.532049 
L 411.776375 449.181664 
L 412.193026 449.181664 
L 412.609677 435.780123 
L 413.859631 368.772419 
L 414.276282 362.071649 
L 414.692933 368.772419 
L 415.109584 370.447612 
L 415.526235 375.47319 
L 415.942886 378.823575 
L 416.776188 382.17396 
L 417.192839 373.797997 
L 418.026142 380.498767 
L 418.442793 390.549923 
L 418.859444 392.225116 
L 419.276095 388.87473 
L 419.692746 388.87473 
L 420.109397 393.900308 
L 420.526048 395.575501 
L 420.942699 398.925886 
L 421.35935 398.925886 
L 421.776002 393.900308 
L 422.192653 390.549923 
L 422.609304 392.225116 
L 423.025955 383.849153 
L 423.442606 102.416795 
L 423.859257 236.432203 
L 424.275908 218.005085 
L 424.692559 238.107396 
L 425.10921 352.020493 
L 425.525862 420.70339 
L 425.942513 432.429738 
L 426.359164 408.977042 
L 427.192466 430.754545 
L 427.609117 430.754545 
L 428.025768 440.805701 
L 428.442419 447.506471 
L 428.85907 450.856857 
L 429.275722 447.506471 
L 429.692373 424.053775 
L 430.109024 387.199538 
L 430.525675 360.396456 
L 430.942326 341.969337 
L 431.358977 346.994915 
L 432.60893 370.447612 
L 433.025582 377.148382 
L 433.442233 380.498767 
L 433.858884 385.524345 
L 434.275535 375.47319 
L 434.692186 390.549923 
L 435.108837 392.225116 
L 435.525488 398.925886 
L 435.942139 393.900308 
L 436.35879 398.925886 
L 437.192093 412.327427 
L 437.608744 410.652234 
L 438.442046 410.652234 
L 438.858697 412.327427 
L 439.275348 408.977042 
L 439.691999 414.002619 
L 440.10865 390.549923 
L 440.525302 97.391217 
L 440.941953 261.560092 
L 441.358604 271.611248 
L 441.775255 320.191834 
L 442.191906 477.659938 
L 442.608557 479.335131 
L 443.025208 447.506471 
L 443.441859 435.780123 
L 443.85851 429.079353 
L 444.275162 410.652234 
L 444.691813 402.276271 
L 445.108464 403.951464 
L 445.525115 424.053775 
L 445.941766 427.40416 
L 446.358417 420.70339 
L 446.775068 402.276271 
L 447.191719 377.148382 
L 447.60837 375.47319 
L 448.025022 362.071649 
L 448.441673 355.370878 
L 448.858324 373.797997 
L 449.274975 377.148382 
L 449.691626 387.199538 
L 450.108277 387.199538 
L 450.524928 390.549923 
L 450.941579 387.199538 
L 451.774882 398.925886 
L 452.191533 398.925886 
L 452.608184 400.601079 
L 453.024835 403.951464 
L 453.441486 403.951464 
L 453.858137 412.327427 
L 454.274788 414.002619 
L 455.10809 410.652234 
L 455.524742 410.652234 
L 455.941393 414.002619 
L 456.358044 415.677812 
L 456.774695 414.002619 
L 457.191346 410.652234 
L 457.607997 405.626656 
L 458.024648 372.122804 
L 458.441299 248.158552 
L 458.85795 253.184129 
L 459.274602 249.833744 
L 459.691253 279.987211 
L 460.107904 427.40416 
L 460.524555 464.258398 
L 460.941206 482.685516 
L 461.357857 459.23282 
L 461.774508 465.93359 
L 462.191159 455.882435 
L 462.60781 452.532049 
L 463.024462 450.856857 
L 463.441113 450.856857 
L 463.857764 452.532049 
L 464.274415 455.882435 
L 464.691066 435.780123 
L 465.524368 385.524345 
L 465.941019 373.797997 
L 466.35767 372.122804 
L 466.774322 372.122804 
L 467.190973 380.498767 
L 467.607624 385.524345 
L 468.440926 403.951464 
L 468.857577 403.951464 
L 469.274228 400.601079 
L 469.690879 398.925886 
L 470.10753 407.301849 
L 470.524182 410.652234 
L 470.940833 420.70339 
L 471.357484 417.353005 
L 471.774135 415.677812 
L 472.190786 419.028197 
L 472.607437 417.353005 
L 473.024088 424.053775 
L 473.440739 419.028197 
L 473.85739 420.70339 
L 474.274042 414.002619 
L 474.690693 419.028197 
L 475.107344 415.677812 
L 475.523995 407.301849 
L 475.940646 393.900308 
L 476.357297 82.314484 
L 476.773948 269.936055 
L 477.190599 268.260863 
L 477.60725 293.388752 
L 478.023902 407.301849 
L 478.440553 467.608783 
L 478.857204 455.882435 
L 479.273855 425.728968 
L 479.690506 434.104931 
L 480.107157 424.053775 
L 480.523808 422.378582 
L 480.940459 424.053775 
L 481.35711 434.104931 
L 482.190413 419.028197 
L 482.607064 407.301849 
L 483.857017 360.396456 
L 484.273668 355.370878 
L 484.690319 352.020493 
L 485.523622 370.447612 
L 485.940273 383.849153 
L 486.356924 392.225116 
L 486.773575 393.900308 
L 487.606877 412.327427 
L 488.023528 414.002619 
L 488.440179 425.728968 
L 488.85683 430.754545 
L 489.273482 432.429738 
L 489.690133 435.780123 
L 490.523435 435.780123 
L 490.940086 432.429738 
L 491.356737 437.455316 
L 491.773388 435.780123 
L 492.190039 439.130508 
L 492.60669 432.429738 
L 493.023342 422.378582 
L 493.439993 405.626656 
L 493.856644 181.150847 
L 494.273295 276.636826 
L 494.689946 274.961633 
L 495.106597 295.063945 
L 495.523248 449.181664 
L 495.939899 465.93359 
L 496.35655 474.309553 
L 496.773202 464.258398 
L 497.189853 467.608783 
L 497.606504 469.283975 
L 498.023155 460.908012 
L 498.439806 467.608783 
L 498.856457 454.207242 
L 499.273108 450.856857 
L 500.10641 429.079353 
L 500.523062 400.601079 
L 500.939713 388.87473 
L 501.356364 385.524345 
L 501.773015 387.199538 
L 502.189666 408.977042 
L 502.606317 407.301849 
L 503.022968 417.353005 
L 503.439619 422.378582 
L 503.85627 422.378582 
L 504.272922 430.754545 
L 504.689573 424.053775 
L 505.106224 427.40416 
L 505.522875 425.728968 
L 505.939526 420.70339 
L 506.356177 442.480894 
L 506.772828 437.455316 
L 507.189479 450.856857 
L 507.60613 450.856857 
L 508.022782 444.156086 
L 508.439433 449.181664 
L 508.856084 435.780123 
L 509.689386 442.480894 
L 510.106037 432.429738 
L 510.522688 115.818336 
L 510.939339 286.687982 
L 511.35599 266.58567 
L 511.772642 290.038367 
L 512.605944 514.514176 
L 513.022595 521.214946 
L 513.439246 489.386287 
L 515.10585 464.258398 
L 515.522502 464.258398 
L 515.939153 459.23282 
L 516.355804 452.532049 
L 516.772455 435.780123 
L 517.189106 405.626656 
L 517.605757 385.524345 
L 518.022408 378.823575 
L 518.85571 400.601079 
L 519.272362 403.951464 
L 519.689013 408.977042 
L 520.522315 405.626656 
L 520.938966 407.301849 
L 521.355617 410.652234 
L 521.772268 412.327427 
L 522.188919 415.677812 
L 522.60557 415.677812 
L 523.022222 419.028197 
L 523.438873 419.028197 
L 523.855524 430.754545 
L 524.272175 430.754545 
L 524.688826 437.455316 
L 525.105477 439.130508 
L 525.522128 430.754545 
L 525.938779 425.728968 
L 526.35543 424.053775 
L 526.772082 412.327427 
L 527.188733 85.664869 
L 527.605384 266.58567 
L 528.022035 243.132974 
L 528.438686 244.808166 
L 529.271988 444.156086 
L 529.688639 469.283975 
L 530.10529 464.258398 
L 530.521942 464.258398 
L 530.938593 459.23282 
L 531.355244 452.532049 
L 532.188546 452.532049 
L 532.605197 450.856857 
L 533.021848 444.156086 
L 533.85515 397.250693 
L 534.271801 372.122804 
L 534.688453 363.746841 
L 535.105104 372.122804 
L 535.521755 385.524345 
L 535.938406 382.17396 
L 536.355057 385.524345 
L 536.771708 385.524345 
L 537.188359 388.87473 
L 537.60501 390.549923 
L 538.021661 387.199538 
L 538.438313 390.549923 
L 538.854964 388.87473 
L 539.271615 397.250693 
L 539.688266 398.925886 
L 540.104917 398.925886 
L 540.521568 400.601079 
L 540.938219 397.250693 
L 541.35487 400.601079 
L 541.771521 407.301849 
L 542.604824 380.498767 
L 543.021475 380.498767 
L 543.438126 390.549923 
L 543.854777 378.823575 
L 544.271428 45.460247 
L 544.688079 239.782589 
L 545.10473 221.35547 
L 545.521381 184.501233 
L 545.938033 278.312018 
L 546.354684 402.276271 
L 546.771335 417.353005 
L 547.187986 410.652234 
L 547.604637 435.780123 
L 548.021288 432.429738 
L 548.437939 417.353005 
L 548.85459 412.327427 
L 549.271241 408.977042 
L 550.104544 398.925886 
L 550.937846 365.422034 
L 551.354497 357.046071 
L 551.771148 367.097227 
L 552.187799 368.772419 
L 553.021101 382.17396 
L 553.437753 385.524345 
L 553.854404 395.575501 
L 554.271055 390.549923 
L 554.687706 392.225116 
L 555.104357 378.823575 
L 555.937659 403.951464 
L 556.35431 407.301849 
L 556.770961 407.301849 
L 557.187613 395.575501 
L 557.604264 412.327427 
L 558.020915 408.977042 
L 558.437566 417.353005 
L 558.854217 410.652234 
L 559.270868 410.652234 
L 559.687519 402.276271 
L 560.10417 407.301849 
L 560.520821 407.301849 
L 560.937473 395.575501 
L 561.354124 259.8849 
L 561.770775 273.286441 
L 562.187426 249.833744 
L 562.604077 285.012789 
L 563.437379 524.565331 
L 563.85403 487.711094 
L 564.270681 422.378582 
L 564.687333 440.805701 
L 565.103984 439.130508 
L 565.520635 419.028197 
L 565.937286 410.652234 
L 566.353937 415.677812 
L 567.187239 398.925886 
L 567.60389 373.797997 
L 568.020541 360.396456 
L 568.853844 343.64453 
L 569.270495 343.64453 
L 570.103797 360.396456 
L 570.520448 372.122804 
L 570.937099 377.148382 
L 571.35375 375.47319 
L 571.770401 377.148382 
L 572.603704 383.849153 
L 573.020355 388.87473 
L 573.437006 388.87473 
L 573.853657 387.199538 
L 574.270308 388.87473 
L 575.10361 402.276271 
L 575.520261 400.601079 
L 575.936913 400.601079 
L 576.353564 398.925886 
L 576.770215 403.951464 
L 577.186866 402.276271 
L 578.020168 392.225116 
L 578.436819 383.849153 
L 578.85347 48.810632 
L 579.270121 236.432203 
L 579.686773 212.979507 
L 580.103424 231.406626 
L 580.936726 457.557627 
L 581.353377 450.856857 
L 581.770028 410.652234 
L 582.186679 427.40416 
L 582.60333 424.053775 
L 583.436633 437.455316 
L 583.853284 440.805701 
L 584.269935 447.506471 
L 584.686586 440.805701 
L 585.103237 430.754545 
L 585.519888 405.626656 
L 586.35319 340.294145 
L 586.769841 331.918182 
L 588.019795 350.3453 
L 588.853097 353.695686 
L 589.686399 360.396456 
L 590.10305 357.046071 
L 590.519701 355.370878 
L 590.936353 360.396456 
L 591.353004 367.097227 
L 591.769655 368.772419 
L 592.186306 368.772419 
L 592.602957 367.097227 
L 593.019608 372.122804 
L 593.436259 372.122804 
L 593.85291 373.797997 
L 594.269561 370.447612 
L 594.686213 370.447612 
L 595.102864 367.097227 
L 595.519515 373.797997 
L 595.936166 368.772419 
L 596.352817 355.370878 
L 596.769468 169.424499 
L 597.186119 224.705855 
L 597.60277 216.329892 
L 598.019421 223.030663 
L 598.436073 310.140678 
L 598.852724 449.181664 
L 599.269375 414.002619 
L 599.686026 403.951464 
L 600.102677 402.276271 
L 600.519328 395.575501 
L 600.935979 377.148382 
L 601.35263 378.823575 
L 601.769281 382.17396 
L 602.185933 392.225116 
L 602.602584 407.301849 
L 603.019235 405.626656 
L 603.435886 400.601079 
L 603.852537 388.87473 
L 604.269188 360.396456 
L 604.685839 343.64453 
L 605.10249 338.618952 
L 605.519141 331.918182 
L 605.935793 348.670108 
L 606.352444 352.020493 
L 606.769095 362.071649 
L 607.185746 360.396456 
L 607.602397 367.097227 
L 608.019048 378.823575 
L 608.435699 382.17396 
L 608.85235 378.823575 
L 609.269001 385.524345 
L 609.685653 387.199538 
L 610.102304 393.900308 
L 610.518955 392.225116 
L 610.935606 393.900308 
L 611.352257 392.225116 
L 611.768908 397.250693 
L 612.185559 397.250693 
L 612.60221 415.677812 
L 613.435513 395.575501 
L 613.852164 407.301849 
L 614.268815 405.626656 
L 614.685466 174.450077 
L 615.102117 258.209707 
L 615.518768 258.209707 
L 615.935419 285.012789 
L 616.768721 522.890139 
L 617.185373 494.411864 
L 617.602024 440.805701 
L 618.018675 435.780123 
L 618.435326 442.480894 
L 618.851977 425.728968 
L 619.268628 425.728968 
L 619.685279 419.028197 
L 620.518581 415.677812 
L 620.935233 417.353005 
L 621.351884 402.276271 
L 621.768535 380.498767 
L 622.185186 373.797997 
L 622.601837 362.071649 
L 623.018488 385.524345 
L 623.435139 392.225116 
L 623.85179 402.276271 
L 624.268441 402.276271 
L 624.685093 415.677812 
L 625.101744 410.652234 
L 625.518395 403.951464 
L 625.935046 407.301849 
L 626.351697 414.002619 
L 626.768348 415.677812 
L 627.184999 420.70339 
L 627.60165 415.677812 
L 628.018301 417.353005 
L 628.434953 422.378582 
L 628.851604 424.053775 
L 629.268255 429.079353 
L 629.684906 424.053775 
L 630.101557 415.677812 
L 630.518208 419.028197 
L 630.934859 417.353005 
L 631.35151 392.225116 
L 631.768161 189.52681 
L 632.184813 248.158552 
L 632.601464 253.184129 
L 633.018115 353.695686 
L 633.434766 529.590909 
L 633.851417 511.16379 
L 634.268068 467.608783 
L 634.684719 465.93359 
L 635.518021 444.156086 
L 635.934673 447.506471 
L 636.351324 444.156086 
L 636.767975 445.831279 
L 637.184626 434.104931 
L 637.601277 430.754545 
L 638.017928 412.327427 
L 638.434579 387.199538 
L 638.85123 373.797997 
L 639.267881 372.122804 
L 640.101184 385.524345 
L 640.517835 383.849153 
L 640.934486 387.199538 
L 641.351137 387.199538 
L 641.767788 388.87473 
L 642.184439 388.87473 
L 642.60109 390.549923 
L 643.017741 395.575501 
L 643.434393 398.925886 
L 643.851044 403.951464 
L 644.267695 398.925886 
L 644.684346 395.575501 
L 645.100997 398.925886 
L 645.517648 403.951464 
L 645.934299 403.951464 
L 646.35095 395.575501 
L 647.184252 392.225116 
L 647.600904 385.524345 
L 648.017555 114.143143 
L 648.434206 248.158552 
L 648.850857 244.808166 
L 649.267508 274.961633 
L 649.684159 412.327427 
L 650.10081 445.831279 
L 650.517461 434.104931 
L 650.934112 410.652234 
L 651.350764 410.652234 
L 651.767415 408.977042 
L 652.184066 410.652234 
L 652.600717 410.652234 
L 653.434019 397.250693 
L 653.85067 393.900308 
L 654.267321 397.250693 
L 655.100624 357.046071 
L 655.517275 352.020493 
L 655.933926 357.046071 
L 656.350577 367.097227 
L 657.183879 378.823575 
L 657.60053 377.148382 
L 658.017181 382.17396 
L 658.433832 395.575501 
L 658.850484 392.225116 
L 660.100437 407.301849 
L 660.517088 403.951464 
L 660.933739 410.652234 
L 661.35039 412.327427 
L 661.767041 407.301849 
L 662.183692 412.327427 
L 662.600344 414.002619 
L 663.016995 414.002619 
L 663.433646 402.276271 
L 663.850297 407.301849 
L 664.266948 398.925886 
L 664.683599 40.434669 
L 665.10025 269.936055 
L 665.516901 274.961633 
L 665.933552 316.841448 
L 666.350204 491.061479 
L 666.766855 481.010324 
L 667.183506 452.532049 
L 668.016808 429.079353 
L 668.433459 429.079353 
L 668.85011 430.754545 
L 669.266761 415.677812 
L 669.266761 415.677812 
" style="fill:none;stroke:#1f77b4;stroke-linecap:square;stroke-width:1.5;"/>
   </g>
   <g id="patch_3">
    <path d="M 30.103125 554.3 
L 30.103125 10.7 
" style="fill:none;stroke:#000000;stroke-linecap:square;stroke-linejoin:miter;stroke-width:0.8;"/>
   </g>
   <g id="patch_4">
    <path d="M 699.703125 554.3 
L 699.703125 10.7 
" style="fill:none;stroke:#000000;stroke-linecap:square;stroke-linejoin:miter;stroke-width:0.8;"/>
   </g>
   <g id="patch_5">
    <path d="M 30.103125 554.3 
L 699.703125 554.3 
" style="fill:none;stroke:#000000;stroke-linecap:square;stroke-linejoin:miter;stroke-width:0.8;"/>
   </g>
   <g id="patch_6">
    <path d="M 30.103125 10.7 
L 699.703125 10.7 
" style="fill:none;stroke:#000000;stroke-linecap:square;stroke-linejoin:miter;stroke-width:0.8;"/>
   </g>
  </g>
 </g>
 <defs>
  <clipPath id="p9eb34692f1">
   <rect height="543.6" width="669.6" x="30.103125" y="10.7"/>
  </clipPath>
 </defs>
</svg>
