<?xml version="1.0" encoding="utf-8" standalone="no"?>
<!DOCTYPE svg PUBLIC "-//W3C//DTD SVG 1.1//EN"
  "http://www.w3.org/Graphics/SVG/1.1/DTD/svg11.dtd">
<!-- Created with matplotlib (https://matplotlib.org/) -->
<svg height="578.178125pt" version="1.1" viewBox="0 0 700.8625 578.178125" width="700.8625pt" xmlns="http://www.w3.org/2000/svg" xmlns:xlink="http://www.w3.org/1999/xlink">
 <defs>
  <style type="text/css">
*{stroke-linecap:butt;stroke-linejoin:round;}
  </style>
 </defs>
 <g id="figure_1">
  <g id="patch_1">
   <path d="M 0 578.178125 
L 700.8625 578.178125 
L 700.8625 0 
L 0 0 
z
" style="fill:#ffffff;"/>
  </g>
  <g id="axes_1">
   <g id="patch_2">
    <path d="M 20.5625 554.3 
L 690.1625 554.3 
L 690.1625 10.7 
L 20.5625 10.7 
z
" style="fill:#ffffff;"/>
   </g>
   <g id="matplotlib.axis_1">
    <g id="xtick_1">
     <g id="line2d_1">
      <defs>
       <path d="M 0 0 
L 0 3.5 
" id="m59aa4a1772" style="stroke:#000000;stroke-width:0.8;"/>
      </defs>
      <g>
       <use style="stroke:#000000;stroke-width:0.8;" x="50.998864" xlink:href="#m59aa4a1772" y="554.3"/>
      </g>
     </g>
     <g id="text_1">
      <!-- 0 -->
      <defs>
       <path d="M 31.78125 66.40625 
Q 24.171875 66.40625 20.328125 58.90625 
Q 16.5 51.421875 16.5 36.375 
Q 16.5 21.390625 20.328125 13.890625 
Q 24.171875 6.390625 31.78125 6.390625 
Q 39.453125 6.390625 43.28125 13.890625 
Q 47.125 21.390625 47.125 36.375 
Q 47.125 51.421875 43.28125 58.90625 
Q 39.453125 66.40625 31.78125 66.40625 
z
M 31.78125 74.21875 
Q 44.046875 74.21875 50.515625 64.515625 
Q 56.984375 54.828125 56.984375 36.375 
Q 56.984375 17.96875 50.515625 8.265625 
Q 44.046875 -1.421875 31.78125 -1.421875 
Q 19.53125 -1.421875 13.0625 8.265625 
Q 6.59375 17.96875 6.59375 36.375 
Q 6.59375 54.828125 13.0625 64.515625 
Q 19.53125 74.21875 31.78125 74.21875 
z
" id="DejaVuSans-48"/>
      </defs>
      <g transform="translate(47.817614 568.898438)scale(0.1 -0.1)">
       <use xlink:href="#DejaVuSans-48"/>
      </g>
     </g>
    </g>
    <g id="xtick_2">
     <g id="line2d_2">
      <g>
       <use style="stroke:#000000;stroke-width:0.8;" x="163.767903" xlink:href="#m59aa4a1772" y="554.3"/>
      </g>
     </g>
     <g id="text_2">
      <!-- 500 -->
      <defs>
       <path d="M 10.796875 72.90625 
L 49.515625 72.90625 
L 49.515625 64.59375 
L 19.828125 64.59375 
L 19.828125 46.734375 
Q 21.96875 47.46875 24.109375 47.828125 
Q 26.265625 48.1875 28.421875 48.1875 
Q 40.625 48.1875 47.75 41.5 
Q 54.890625 34.8125 54.890625 23.390625 
Q 54.890625 11.625 47.5625 5.09375 
Q 40.234375 -1.421875 26.90625 -1.421875 
Q 22.3125 -1.421875 17.546875 -0.640625 
Q 12.796875 0.140625 7.71875 1.703125 
L 7.71875 11.625 
Q 12.109375 9.234375 16.796875 8.0625 
Q 21.484375 6.890625 26.703125 6.890625 
Q 35.15625 6.890625 40.078125 11.328125 
Q 45.015625 15.765625 45.015625 23.390625 
Q 45.015625 31 40.078125 35.4375 
Q 35.15625 39.890625 26.703125 39.890625 
Q 22.75 39.890625 18.8125 39.015625 
Q 14.890625 38.140625 10.796875 36.28125 
z
" id="DejaVuSans-53"/>
      </defs>
      <g transform="translate(154.224153 568.898438)scale(0.1 -0.1)">
       <use xlink:href="#DejaVuSans-53"/>
       <use x="63.623047" xlink:href="#DejaVuSans-48"/>
       <use x="127.246094" xlink:href="#DejaVuSans-48"/>
      </g>
     </g>
    </g>
    <g id="xtick_3">
     <g id="line2d_3">
      <g>
       <use style="stroke:#000000;stroke-width:0.8;" x="276.536942" xlink:href="#m59aa4a1772" y="554.3"/>
      </g>
     </g>
     <g id="text_3">
      <!-- 1000 -->
      <defs>
       <path d="M 12.40625 8.296875 
L 28.515625 8.296875 
L 28.515625 63.921875 
L 10.984375 60.40625 
L 10.984375 69.390625 
L 28.421875 72.90625 
L 38.28125 72.90625 
L 38.28125 8.296875 
L 54.390625 8.296875 
L 54.390625 0 
L 12.40625 0 
z
" id="DejaVuSans-49"/>
      </defs>
      <g transform="translate(263.811942 568.898438)scale(0.1 -0.1)">
       <use xlink:href="#DejaVuSans-49"/>
       <use x="63.623047" xlink:href="#DejaVuSans-48"/>
       <use x="127.246094" xlink:href="#DejaVuSans-48"/>
       <use x="190.869141" xlink:href="#DejaVuSans-48"/>
      </g>
     </g>
    </g>
    <g id="xtick_4">
     <g id="line2d_4">
      <g>
       <use style="stroke:#000000;stroke-width:0.8;" x="389.305981" xlink:href="#m59aa4a1772" y="554.3"/>
      </g>
     </g>
     <g id="text_4">
      <!-- 1500 -->
      <g transform="translate(376.580981 568.898438)scale(0.1 -0.1)">
       <use xlink:href="#DejaVuSans-49"/>
       <use x="63.623047" xlink:href="#DejaVuSans-53"/>
       <use x="127.246094" xlink:href="#DejaVuSans-48"/>
       <use x="190.869141" xlink:href="#DejaVuSans-48"/>
      </g>
     </g>
    </g>
    <g id="xtick_5">
     <g id="line2d_5">
      <g>
       <use style="stroke:#000000;stroke-width:0.8;" x="502.07502" xlink:href="#m59aa4a1772" y="554.3"/>
      </g>
     </g>
     <g id="text_5">
      <!-- 2000 -->
      <defs>
       <path d="M 19.1875 8.296875 
L 53.609375 8.296875 
L 53.609375 0 
L 7.328125 0 
L 7.328125 8.296875 
Q 12.9375 14.109375 22.625 23.890625 
Q 32.328125 33.6875 34.8125 36.53125 
Q 39.546875 41.84375 41.421875 45.53125 
Q 43.3125 49.21875 43.3125 52.78125 
Q 43.3125 58.59375 39.234375 62.25 
Q 35.15625 65.921875 28.609375 65.921875 
Q 23.96875 65.921875 18.8125 64.3125 
Q 13.671875 62.703125 7.8125 59.421875 
L 7.8125 69.390625 
Q 13.765625 71.78125 18.9375 73 
Q 24.125 74.21875 28.421875 74.21875 
Q 39.75 74.21875 46.484375 68.546875 
Q 53.21875 62.890625 53.21875 53.421875 
Q 53.21875 48.921875 51.53125 44.890625 
Q 49.859375 40.875 45.40625 35.40625 
Q 44.1875 33.984375 37.640625 27.21875 
Q 31.109375 20.453125 19.1875 8.296875 
z
" id="DejaVuSans-50"/>
      </defs>
      <g transform="translate(489.35002 568.898438)scale(0.1 -0.1)">
       <use xlink:href="#DejaVuSans-50"/>
       <use x="63.623047" xlink:href="#DejaVuSans-48"/>
       <use x="127.246094" xlink:href="#DejaVuSans-48"/>
       <use x="190.869141" xlink:href="#DejaVuSans-48"/>
      </g>
     </g>
    </g>
    <g id="xtick_6">
     <g id="line2d_6">
      <g>
       <use style="stroke:#000000;stroke-width:0.8;" x="614.844059" xlink:href="#m59aa4a1772" y="554.3"/>
      </g>
     </g>
     <g id="text_6">
      <!-- 2500 -->
      <g transform="translate(602.119059 568.898438)scale(0.1 -0.1)">
       <use xlink:href="#DejaVuSans-50"/>
       <use x="63.623047" xlink:href="#DejaVuSans-53"/>
       <use x="127.246094" xlink:href="#DejaVuSans-48"/>
       <use x="190.869141" xlink:href="#DejaVuSans-48"/>
      </g>
     </g>
    </g>
   </g>
   <g id="matplotlib.axis_2">
    <g id="ytick_1">
     <g id="line2d_7">
      <defs>
       <path d="M 0 0 
L -3.5 0 
" id="md5b296188c" style="stroke:#000000;stroke-width:0.8;"/>
      </defs>
      <g>
       <use style="stroke:#000000;stroke-width:0.8;" x="20.5625" xlink:href="#md5b296188c" y="457.432156"/>
      </g>
     </g>
     <g id="text_7">
      <!-- 3 -->
      <defs>
       <path d="M 40.578125 39.3125 
Q 47.65625 37.796875 51.625 33 
Q 55.609375 28.21875 55.609375 21.1875 
Q 55.609375 10.40625 48.1875 4.484375 
Q 40.765625 -1.421875 27.09375 -1.421875 
Q 22.515625 -1.421875 17.65625 -0.515625 
Q 12.796875 0.390625 7.625 2.203125 
L 7.625 11.71875 
Q 11.71875 9.328125 16.59375 8.109375 
Q 21.484375 6.890625 26.8125 6.890625 
Q 36.078125 6.890625 40.9375 10.546875 
Q 45.796875 14.203125 45.796875 21.1875 
Q 45.796875 27.640625 41.28125 31.265625 
Q 36.765625 34.90625 28.71875 34.90625 
L 20.21875 34.90625 
L 20.21875 43.015625 
L 29.109375 43.015625 
Q 36.375 43.015625 40.234375 45.921875 
Q 44.09375 48.828125 44.09375 54.296875 
Q 44.09375 59.90625 40.109375 62.90625 
Q 36.140625 65.921875 28.71875 65.921875 
Q 24.65625 65.921875 20.015625 65.03125 
Q 15.375 64.15625 9.8125 62.3125 
L 9.8125 71.09375 
Q 15.4375 72.65625 20.34375 73.4375 
Q 25.25 74.21875 29.59375 74.21875 
Q 40.828125 74.21875 47.359375 69.109375 
Q 53.90625 64.015625 53.90625 55.328125 
Q 53.90625 49.265625 50.4375 45.09375 
Q 46.96875 40.921875 40.578125 39.3125 
z
" id="DejaVuSans-51"/>
      </defs>
      <g transform="translate(7.2 461.231375)scale(0.1 -0.1)">
       <use xlink:href="#DejaVuSans-51"/>
      </g>
     </g>
    </g>
    <g id="ytick_2">
     <g id="line2d_8">
      <g>
       <use style="stroke:#000000;stroke-width:0.8;" x="20.5625" xlink:href="#md5b296188c" y="353.095919"/>
      </g>
     </g>
     <g id="text_8">
      <!-- 4 -->
      <defs>
       <path d="M 37.796875 64.3125 
L 12.890625 25.390625 
L 37.796875 25.390625 
z
M 35.203125 72.90625 
L 47.609375 72.90625 
L 47.609375 25.390625 
L 58.015625 25.390625 
L 58.015625 17.1875 
L 47.609375 17.1875 
L 47.609375 0 
L 37.796875 0 
L 37.796875 17.1875 
L 4.890625 17.1875 
L 4.890625 26.703125 
z
" id="DejaVuSans-52"/>
      </defs>
      <g transform="translate(7.2 356.895138)scale(0.1 -0.1)">
       <use xlink:href="#DejaVuSans-52"/>
      </g>
     </g>
    </g>
    <g id="ytick_3">
     <g id="line2d_9">
      <g>
       <use style="stroke:#000000;stroke-width:0.8;" x="20.5625" xlink:href="#md5b296188c" y="248.759682"/>
      </g>
     </g>
     <g id="text_9">
      <!-- 5 -->
      <g transform="translate(7.2 252.558901)scale(0.1 -0.1)">
       <use xlink:href="#DejaVuSans-53"/>
      </g>
     </g>
    </g>
    <g id="ytick_4">
     <g id="line2d_10">
      <g>
       <use style="stroke:#000000;stroke-width:0.8;" x="20.5625" xlink:href="#md5b296188c" y="144.423445"/>
      </g>
     </g>
     <g id="text_10">
      <!-- 6 -->
      <defs>
       <path d="M 33.015625 40.375 
Q 26.375 40.375 22.484375 35.828125 
Q 18.609375 31.296875 18.609375 23.390625 
Q 18.609375 15.53125 22.484375 10.953125 
Q 26.375 6.390625 33.015625 6.390625 
Q 39.65625 6.390625 43.53125 10.953125 
Q 47.40625 15.53125 47.40625 23.390625 
Q 47.40625 31.296875 43.53125 35.828125 
Q 39.65625 40.375 33.015625 40.375 
z
M 52.59375 71.296875 
L 52.59375 62.3125 
Q 48.875 64.0625 45.09375 64.984375 
Q 41.3125 65.921875 37.59375 65.921875 
Q 27.828125 65.921875 22.671875 59.328125 
Q 17.53125 52.734375 16.796875 39.40625 
Q 19.671875 43.65625 24.015625 45.921875 
Q 28.375 48.1875 33.59375 48.1875 
Q 44.578125 48.1875 50.953125 41.515625 
Q 57.328125 34.859375 57.328125 23.390625 
Q 57.328125 12.15625 50.6875 5.359375 
Q 44.046875 -1.421875 33.015625 -1.421875 
Q 20.359375 -1.421875 13.671875 8.265625 
Q 6.984375 17.96875 6.984375 36.375 
Q 6.984375 53.65625 15.1875 63.9375 
Q 23.390625 74.21875 37.203125 74.21875 
Q 40.921875 74.21875 44.703125 73.484375 
Q 48.484375 72.75 52.59375 71.296875 
z
" id="DejaVuSans-54"/>
      </defs>
      <g transform="translate(7.2 148.222664)scale(0.1 -0.1)">
       <use xlink:href="#DejaVuSans-54"/>
      </g>
     </g>
    </g>
    <g id="ytick_5">
     <g id="line2d_11">
      <g>
       <use style="stroke:#000000;stroke-width:0.8;" x="20.5625" xlink:href="#md5b296188c" y="40.087208"/>
      </g>
     </g>
     <g id="text_11">
      <!-- 7 -->
      <defs>
       <path d="M 8.203125 72.90625 
L 55.078125 72.90625 
L 55.078125 68.703125 
L 28.609375 0 
L 18.3125 0 
L 43.21875 64.59375 
L 8.203125 64.59375 
z
" id="DejaVuSans-55"/>
      </defs>
      <g transform="translate(7.2 43.886427)scale(0.1 -0.1)">
       <use xlink:href="#DejaVuSans-55"/>
      </g>
     </g>
    </g>
   </g>
   <g id="line2d_12">
    <path clip-path="url(#p86ce4aa4f0)" d="M 50.998864 470.694733 
L 51.224402 470.694733 
L 51.44994 464.454079 
L 51.675478 467.964447 
L 51.901016 463.673997 
L 52.126554 467.964447 
L 52.352092 464.84412 
L 52.57763 465.624202 
L 52.803168 473.034979 
L 53.028706 475.375224 
L 53.254244 480.445756 
L 53.479782 466.794324 
L 53.705321 476.545347 
L 53.930859 471.084774 
L 54.156397 474.595142 
L 54.381935 472.644938 
L 54.607473 472.644938 
L 54.833011 471.864856 
L 55.058549 475.765265 
L 55.284087 472.254897 
L 55.509625 478.495551 
L 55.735163 474.595142 
L 55.960701 477.325429 
L 56.186239 481.615879 
L 56.411778 471.084774 
L 56.637316 482.39596 
L 56.862854 472.254897 
L 57.088392 468.744529 
L 57.31393 470.694733 
L 57.539468 480.445756 
L 57.765006 469.524611 
L 57.990544 467.964447 
L 58.216082 469.13457 
L 58.44162 468.354488 
L 58.667158 462.113834 
L 58.892696 466.404284 
L 59.118234 459.383547 
L 59.343773 467.184365 
L 59.569311 466.014243 
L 60.245925 477.325429 
L 60.697001 500.337842 
L 60.922539 492.927065 
L 61.148077 499.167719 
L 61.373615 502.288046 
L 61.599153 507.748619 
L 62.050229 496.047392 
L 62.275768 496.047392 
L 62.501306 493.317106 
L 62.726844 498.387637 
L 62.952382 499.947801 
L 63.17792 492.537024 
L 63.854534 482.005919 
L 64.080072 484.736206 
L 64.30561 475.375224 
L 64.531148 480.445756 
L 64.756686 482.786001 
L 64.982224 474.985183 
L 65.207763 486.68641 
L 65.433301 483.566083 
L 65.658839 487.466492 
L 65.884377 481.615879 
L 66.109915 484.736206 
L 66.335453 480.445756 
L 66.560991 482.39596 
L 66.786529 479.275633 
L 67.237605 487.856533 
L 67.463143 494.097187 
L 67.688681 492.927065 
L 67.914219 493.707146 
L 68.139758 496.047392 
L 68.590834 504.628292 
L 68.816372 503.84821 
L 69.04191 496.437433 
L 69.267448 501.117924 
L 69.492986 502.288046 
L 69.718524 486.68641 
L 69.944062 480.835797 
L 70.1696 481.615879 
L 70.395138 476.155306 
L 70.620676 473.815061 
L 70.846215 469.914652 
L 71.071753 464.064038 
L 71.297291 494.097187 
L 71.522829 497.997596 
L 71.748367 513.989273 
L 71.973905 496.047392 
L 72.199443 493.317106 
L 72.650519 472.254897 
L 72.876057 468.354488 
L 73.101595 470.304693 
L 73.327133 469.524611 
L 73.552671 462.503875 
L 74.003748 481.225838 
L 74.229286 484.736206 
L 74.454824 483.566083 
L 74.680362 479.665674 
L 74.9059 492.537024 
L 75.131438 493.317106 
L 75.356976 502.678087 
L 75.582514 499.55776 
L 75.808052 501.898005 
L 76.03359 484.346165 
L 76.259128 480.445756 
L 76.484666 480.055715 
L 76.710205 478.495551 
L 77.161281 491.756942 
L 77.386819 495.657351 
L 77.612357 487.856533 
L 77.837895 490.196778 
L 78.063433 487.856533 
L 78.288971 489.026656 
L 78.514509 482.39596 
L 78.740047 480.055715 
L 78.965585 486.68641 
L 79.191123 469.13457 
L 79.416661 468.744529 
L 79.6422 476.935388 
L 79.867738 479.665674 
L 80.093276 473.815061 
L 80.318814 478.495551 
L 80.76989 467.964447 
L 80.995428 480.055715 
L 81.220966 473.815061 
L 81.446504 478.495551 
L 81.672042 489.026656 
L 81.89758 483.176042 
L 82.123118 486.296369 
L 82.348656 486.68641 
L 82.574195 480.445756 
L 82.799733 494.097187 
L 83.025271 485.906328 
L 83.250809 486.68641 
L 83.476347 486.68641 
L 83.701885 489.026656 
L 83.927423 486.296369 
L 84.378499 492.927065 
L 84.604037 493.707146 
L 84.829575 490.586819 
L 85.055113 490.97686 
L 85.280652 494.877269 
L 85.50619 506.968537 
L 85.731728 505.798414 
L 85.957266 496.827474 
L 86.182804 494.877269 
L 86.408342 497.997596 
L 86.63388 490.196778 
L 86.859418 488.636615 
L 87.536032 495.26731 
L 87.76157 477.71547 
L 87.987108 488.246574 
L 88.212647 492.927065 
L 88.438185 489.026656 
L 89.114799 474.205102 
L 89.340337 471.084774 
L 89.565875 479.665674 
L 89.791413 482.786001 
L 90.016951 483.176042 
L 90.242489 483.176042 
L 90.693565 470.694733 
L 90.919103 466.794324 
L 91.144642 450.802648 
L 91.595718 438.321339 
L 93.174484 196.105941 
L 93.400022 189.085205 
L 93.851098 127.068702 
L 94.302175 172.313446 
L 94.753251 137.209765 
L 94.978789 157.491892 
L 95.204327 157.101851 
L 95.429865 159.832137 
L 95.655403 127.068702 
L 95.880941 160.612219 
L 96.106479 167.632955 
L 96.332017 144.620542 
L 96.783093 159.052056 
L 97.23417 186.744959 
L 97.459708 174.263651 
L 97.685246 171.143324 
L 98.136322 206.637045 
L 98.36186 206.637045 
L 98.812936 175.043733 
L 99.038474 178.944141 
L 99.264012 203.906759 
L 99.48955 213.657781 
L 100.166165 292.446043 
L 100.617241 373.184509 
L 101.068317 407.118067 
L 101.293855 409.068272 
L 101.519393 420.379458 
L 101.970469 453.532934 
L 102.196007 450.802648 
L 102.421545 451.97277 
L 102.647084 451.192689 
L 103.09816 476.935388 
L 103.323698 478.105511 
L 103.774774 486.296369 
L 104.22585 457.433343 
L 104.676926 472.644938 
L 104.902464 467.574406 
L 105.128002 470.304693 
L 105.35354 478.105511 
L 105.579079 476.545347 
L 105.804617 481.615879 
L 106.030155 490.97686 
L 106.255693 484.736206 
L 106.481231 472.644938 
L 106.932307 477.71547 
L 107.157845 484.736206 
L 107.383383 482.39596 
L 107.608921 485.906328 
L 107.834459 471.474815 
L 108.059997 474.985183 
L 108.285535 485.906328 
L 108.96215 451.192689 
L 109.187688 456.26322 
L 109.413226 465.234161 
L 109.638764 466.014243 
L 109.864302 473.034979 
L 110.08984 476.545347 
L 110.315378 470.304693 
L 110.540916 469.914652 
L 110.766454 485.906328 
L 110.991992 471.084774 
L 111.21753 489.416697 
L 111.443069 483.956124 
L 111.668607 486.68641 
L 112.119683 484.736206 
L 112.796297 418.429253 
L 113.021835 415.308926 
L 113.247373 398.147126 
L 113.698449 348.611932 
L 113.923987 323.649315 
L 114.149525 281.914939 
L 114.600602 169.193119 
L 114.82614 172.313446 
L 115.051678 157.491892 
L 115.277216 130.57907 
L 115.502754 136.819724 
L 115.728292 170.363242 
L 115.95383 180.504305 
L 116.179368 170.753283 
L 116.404906 171.143324 
L 116.630444 185.184796 
L 116.855982 175.823814 
L 117.081521 186.354919 
L 117.307059 178.554101 
L 117.532597 184.404714 
L 117.758135 198.056146 
L 117.983673 190.255328 
L 118.209211 191.815491 
L 118.660287 198.056146 
L 118.885825 188.305123 
L 119.111363 193.765696 
L 119.336901 185.574837 
L 119.562439 204.686841 
L 119.787977 210.147413 
L 120.013516 206.247004 
L 120.239054 199.616309 
L 120.464592 209.757372 
L 121.141206 277.234448 
L 121.592282 287.765552 
L 122.268896 363.433486 
L 123.396587 435.981093 
L 123.622125 437.541257 
L 123.847663 441.051625 
L 124.073201 450.412607 
L 124.298739 453.142893 
L 124.524277 464.454079 
L 124.749815 469.524611 
L 125.200891 464.454079 
L 125.426429 451.192689 
L 125.877506 460.943711 
L 126.103044 458.603466 
L 126.328582 457.433343 
L 126.55412 465.234161 
L 126.779658 465.234161 
L 127.005196 474.205102 
L 127.230734 471.474815 
L 127.456272 476.935388 
L 127.68181 473.034979 
L 127.907348 475.375224 
L 128.132886 480.445756 
L 128.358424 491.756942 
L 128.583962 475.765265 
L 128.809501 479.275633 
L 129.035039 489.416697 
L 129.260577 489.806737 
L 129.486115 491.756942 
L 129.711653 495.26731 
L 129.937191 490.586819 
L 130.162729 488.636615 
L 130.388267 478.495551 
L 130.613805 488.246574 
L 130.839343 486.68641 
L 131.064881 479.665674 
L 131.290419 488.636615 
L 131.515958 487.466492 
L 131.741496 484.346165 
L 131.967034 491.756942 
L 132.192572 482.005919 
L 132.41811 484.736206 
L 132.643648 478.105511 
L 132.869186 475.765265 
L 133.094724 478.495551 
L 133.320262 478.885592 
L 133.5458 490.97686 
L 133.996876 482.005919 
L 134.673491 430.13048 
L 135.124567 386.83594 
L 135.350105 364.99365 
L 136.252257 205.856963 
L 136.477795 182.064469 
L 136.703333 140.330093 
L 136.928871 145.010583 
L 137.154409 139.550011 
L 137.379948 168.803078 
L 138.056562 136.819724 
L 138.2821 162.562424 
L 138.507638 132.529275 
L 138.733176 137.989847 
L 138.958714 173.483569 
L 139.184252 189.475246 
L 139.40979 190.255328 
L 139.635328 189.865287 
L 139.860866 180.504305 
L 140.086404 189.865287 
L 140.537481 175.043733 
L 140.763019 182.064469 
L 140.988557 180.114264 
L 141.214095 189.085205 
L 141.439633 181.674428 
L 141.665171 168.413037 
L 142.116247 198.836227 
L 142.341785 220.678518 
L 143.243938 262.022853 
L 143.695014 319.748906 
L 143.920552 331.450133 
L 144.14609 352.902382 
L 144.597166 368.113977 
L 145.048242 400.097331 
L 145.27378 407.898149 
L 145.499318 427.400194 
L 145.724856 432.860766 
L 145.950395 441.831707 
L 146.175933 444.952034 
L 146.401471 445.732116 
L 146.627009 460.163629 
L 146.852547 456.26322 
L 147.078085 455.093098 
L 147.529161 444.561993 
L 147.754699 458.603466 
L 147.980237 457.433343 
L 148.205775 452.752852 
L 148.431313 456.653261 
L 148.656851 447.29228 
L 149.107928 444.561993 
L 149.559004 456.26322 
L 149.784542 453.142893 
L 150.01008 453.532934 
L 150.235618 453.532934 
L 150.461156 446.902239 
L 150.686694 445.342075 
L 150.912232 457.043302 
L 151.13777 454.313016 
L 151.588846 455.093098 
L 151.814385 457.043302 
L 152.039923 467.574406 
L 152.265461 467.964447 
L 152.490999 474.595142 
L 152.942075 478.495551 
L 153.167613 473.815061 
L 153.393151 479.275633 
L 153.618689 481.225838 
L 153.844227 478.885592 
L 154.069765 473.815061 
L 154.520841 480.445756 
L 154.74638 477.325429 
L 154.971918 476.935388 
L 155.197456 484.346165 
L 155.422994 470.694733 
L 155.648532 464.454079 
L 155.87407 446.122157 
L 156.099608 441.441666 
L 156.325146 427.790235 
L 157.227298 297.516575 
L 157.678375 217.55819 
L 157.903913 176.993937 
L 158.129451 171.923405 
L 158.580527 129.408947 
L 159.031603 162.562424 
L 159.257141 164.512628 
L 159.482679 164.902669 
L 159.708217 156.71181 
L 159.933755 143.060379 
L 160.159293 144.620542 
L 160.384832 148.910992 
L 160.61037 144.620542 
L 161.061446 168.803078 
L 161.286984 164.122587 
L 161.73806 185.964878 
L 161.963598 185.184796 
L 162.189136 180.894346 
L 162.414674 170.363242 
L 162.640212 174.263651 
L 162.86575 171.533364 
L 163.091288 176.603896 
L 163.316827 171.923405 
L 163.542365 182.064469 
L 163.767903 200.396391 
L 163.993441 230.42954 
L 164.218979 236.280154 
L 164.895593 278.794611 
L 165.121131 295.176329 
L 165.346669 357.972914 
L 165.572207 356.41275 
L 165.797745 377.474959 
L 166.248822 398.927208 
L 166.699898 437.151216 
L 166.925436 439.491462 
L 167.150974 440.661584 
L 167.376512 444.561993 
L 167.60205 445.732116 
L 167.827588 453.922975 
L 168.053126 455.093098 
L 168.504202 449.632525 
L 168.72974 456.653261 
L 168.955278 447.68232 
L 169.180817 447.68232 
L 169.631893 453.142893 
L 169.857431 456.26322 
L 170.082969 464.454079 
L 170.308507 464.454079 
L 170.534045 470.694733 
L 170.759583 465.234161 
L 170.985121 468.354488 
L 171.210659 468.744529 
L 171.436197 474.205102 
L 171.661735 476.545347 
L 171.887273 471.474815 
L 172.112812 471.084774 
L 172.33835 477.325429 
L 172.563888 480.055715 
L 173.014964 478.105511 
L 173.240502 482.005919 
L 173.46604 473.815061 
L 173.917116 480.445756 
L 174.142654 480.835797 
L 174.368192 477.325429 
L 174.59373 475.765265 
L 175.044807 465.234161 
L 175.270345 469.13457 
L 175.495883 467.574406 
L 175.721421 457.823384 
L 175.946959 457.823384 
L 176.172497 458.213425 
L 176.849111 460.163629 
L 177.300187 454.313016 
L 177.976802 419.209335 
L 179.555568 189.865287 
L 180.006644 179.334182 
L 180.232182 118.877843 
L 180.683259 158.271974 
L 181.134335 119.657925 
L 181.359873 128.628866 
L 181.585411 153.981524 
L 181.810949 142.670338 
L 182.036487 141.110174 
L 182.487563 162.952465 
L 182.713101 157.881933 
L 182.938639 157.491892 
L 183.164177 162.952465 
L 183.389715 155.931728 
L 183.615254 137.599806 
L 183.840792 138.769929 
L 184.06633 134.479479 
L 184.517406 169.973201 
L 184.968482 178.554101 
L 185.19402 197.276064 
L 185.419558 205.856963 
L 185.645096 240.570603 
L 185.870634 247.201299 
L 186.32171 304.927352 
L 186.772787 338.470869 
L 186.998325 378.645081 
L 187.674939 390.736349 
L 187.900477 407.508108 
L 188.126015 412.188599 
L 188.351553 437.541257 
L 188.577091 437.931298 
L 188.802629 422.719703 
L 189.028167 422.329662 
L 189.253705 421.159539 
L 189.479244 416.479049 
L 189.93032 471.864856 
L 190.155858 472.254897 
L 190.381396 476.545347 
L 190.606934 474.595142 
L 190.832472 473.815061 
L 191.05801 475.765265 
L 191.283548 471.474815 
L 191.509086 469.524611 
L 191.734624 464.454079 
L 191.960162 473.42502 
L 192.185701 465.234161 
L 192.411239 464.064038 
L 192.636777 456.26322 
L 192.862315 460.163629 
L 193.087853 458.993506 
L 193.538929 477.71547 
L 193.764467 483.956124 
L 193.990005 481.225838 
L 194.215543 481.615879 
L 194.441081 491.756942 
L 194.666619 487.856533 
L 194.892157 481.615879 
L 195.343234 480.055715 
L 195.568772 482.005919 
L 195.79431 479.665674 
L 196.019848 494.877269 
L 196.245386 498.777678 
L 196.470924 496.047392 
L 196.922 482.39596 
L 197.147538 496.827474 
L 197.373076 478.495551 
L 197.598614 483.176042 
L 197.824152 479.665674 
L 198.049691 501.898005 
L 198.275229 499.167719 
L 198.500767 487.076451 
L 198.726305 487.856533 
L 198.951843 487.466492 
L 199.177381 485.906328 
L 199.402919 489.806737 
L 199.628457 487.076451 
L 199.853995 496.047392 
L 200.079533 492.537024 
L 200.530609 482.786001 
L 200.981686 474.205102 
L 201.207224 466.794324 
L 201.432762 464.454079 
L 201.6583 464.454079 
L 201.883838 476.155306 
L 202.109376 472.644938 
L 203.011528 445.342075 
L 203.237066 460.55367 
L 203.462604 464.454079 
L 203.688142 466.404284 
L 203.913681 466.404284 
L 204.139219 468.354488 
L 204.364757 463.673997 
L 205.041371 444.561993 
L 205.266909 459.773588 
L 205.492447 456.653261 
L 205.717985 462.113834 
L 205.943523 447.68232 
L 206.169061 457.433343 
L 206.394599 460.163629 
L 206.620138 468.354488 
L 206.845676 466.404284 
L 207.071214 469.13457 
L 207.296752 470.304693 
L 207.52229 473.034979 
L 207.747828 468.354488 
L 207.973366 481.615879 
L 208.198904 484.736206 
L 208.424442 483.176042 
L 208.64998 480.055715 
L 208.875518 479.275633 
L 209.101056 471.084774 
L 209.326594 477.325429 
L 209.552133 476.155306 
L 209.777671 476.545347 
L 210.003209 475.375224 
L 210.228747 470.694733 
L 210.679823 480.445756 
L 210.905361 480.445756 
L 211.581975 488.636615 
L 211.807513 499.947801 
L 212.033051 500.727883 
L 212.258589 511.258987 
L 212.484128 512.81915 
L 212.709666 502.288046 
L 212.935204 503.458169 
L 213.160742 508.13866 
L 213.38628 500.727883 
L 213.611818 507.358578 
L 213.837356 502.288046 
L 214.062894 501.507964 
L 214.288432 505.408373 
L 214.51397 521.790091 
L 214.739508 527.250664 
L 214.965046 509.308782 
L 215.190584 509.698823 
L 215.416123 504.238251 
L 215.641661 501.898005 
L 215.867199 507.358578 
L 216.092737 500.727883 
L 216.543813 497.997596 
L 216.994889 508.918741 
L 217.220427 500.727883 
L 217.445965 500.727883 
L 217.671503 512.039069 
L 217.897041 506.968537 
L 218.122579 505.798414 
L 218.348118 494.487228 
L 218.573656 512.039069 
L 218.799194 515.549437 
L 219.024732 510.868946 
L 219.25027 496.047392 
L 219.475808 496.827474 
L 219.701346 496.437433 
L 219.926884 490.97686 
L 220.152422 511.649028 
L 220.37796 514.379314 
L 220.603498 521.010009 
L 220.829036 503.84821 
L 221.280113 497.217515 
L 221.505651 499.55776 
L 221.731189 492.927065 
L 221.956727 493.707146 
L 222.182265 495.657351 
L 222.633341 503.068128 
L 222.858879 499.167719 
L 223.084417 499.947801 
L 223.309955 507.358578 
L 223.535493 507.748619 
L 223.761031 495.657351 
L 223.98657 496.047392 
L 224.212108 498.387637 
L 224.663184 510.868946 
L 224.888722 512.039069 
L 225.11426 496.047392 
L 225.339798 492.537024 
L 225.565336 480.835797 
L 225.790874 478.495551 
L 226.24195 477.325429 
L 226.467488 474.985183 
L 226.693026 475.765265 
L 226.918565 473.42502 
L 227.144103 476.545347 
L 227.369641 476.155306 
L 227.820717 482.786001 
L 228.046255 480.445756 
L 228.271793 480.835797 
L 228.497331 476.935388 
L 228.722869 489.026656 
L 229.173945 477.325429 
L 229.399483 476.935388 
L 229.625021 479.275633 
L 229.85056 474.985183 
L 230.076098 492.146983 
L 230.301636 487.856533 
L 230.752712 492.927065 
L 230.97825 491.756942 
L 231.203788 491.366901 
L 231.429326 489.416697 
L 231.654864 491.756942 
L 231.880402 489.026656 
L 232.10594 489.416697 
L 232.331478 487.466492 
L 232.557016 488.246574 
L 233.008093 494.487228 
L 233.233631 492.537024 
L 233.459169 499.55776 
L 233.684707 497.997596 
L 233.910245 494.097187 
L 234.361321 494.877269 
L 234.586859 497.217515 
L 234.812397 490.196778 
L 235.037935 497.217515 
L 235.263473 496.047392 
L 235.489012 502.678087 
L 235.71455 503.068128 
L 235.940088 502.678087 
L 236.391164 495.657351 
L 236.616702 497.607555 
L 236.84224 505.798414 
L 237.067778 500.727883 
L 237.293316 510.868946 
L 237.518854 515.159396 
L 237.744392 514.769355 
L 237.96993 509.698823 
L 238.195468 510.478905 
L 238.421007 501.898005 
L 238.872083 494.487228 
L 239.097621 494.097187 
L 239.323159 490.196778 
L 239.548697 495.26731 
L 239.774235 496.827474 
L 239.999773 499.947801 
L 240.225311 496.437433 
L 240.450849 488.246574 
L 240.676387 487.076451 
L 240.901925 483.566083 
L 241.127463 482.786001 
L 241.57854 473.42502 
L 241.804078 473.42502 
L 242.029616 459.383547 
L 242.480692 455.873179 
L 242.70623 443.00183 
L 242.931768 437.151216 
L 243.157306 427.790235 
L 243.83392 315.458456 
L 244.510535 159.052056 
L 244.736073 155.151647 
L 244.961611 153.201442 
L 245.187149 141.890256 
L 245.412687 110.296943 
L 245.638225 149.301033 
L 245.863763 161.782342 
L 246.089301 152.03132 
L 246.314839 151.641279 
L 246.540377 157.491892 
L 246.765915 159.052056 
L 246.991453 153.981524 
L 247.216992 163.732546 
L 247.44253 154.371565 
L 247.668068 180.114264 
L 247.893606 175.823814 
L 248.119144 179.334182 
L 248.344682 190.255328 
L 248.57022 185.574837 
L 248.795758 175.433773 
L 249.021296 181.284387 
L 249.246834 181.674428 
L 249.472372 203.126677 
L 249.69791 200.396391 
L 249.923448 190.645368 
L 250.148987 193.375655 
L 250.374525 201.566514 
L 250.600063 202.346595 
L 250.825601 211.707577 
L 251.276677 256.952321 
L 251.502215 263.192976 
L 252.178829 356.802791 
L 252.629905 388.006063 
L 253.080982 409.848353 
L 253.30652 423.109744 
L 254.208672 448.072361 
L 254.43421 448.852443 
L 254.885286 452.752852 
L 255.336362 445.342075 
L 255.5619 450.802648 
L 256.012977 444.561993 
L 256.238515 451.582729 
L 256.464053 448.852443 
L 256.689591 442.611789 
L 257.366205 456.653261 
L 257.591743 454.313016 
L 257.817281 444.561993 
L 258.042819 448.072361 
L 258.268357 449.242484 
L 258.719434 456.653261 
L 258.944972 460.163629 
L 259.17051 468.744529 
L 259.396048 472.644938 
L 259.621586 469.524611 
L 259.847124 482.39596 
L 260.2982 475.765265 
L 260.523738 485.126247 
L 260.749276 475.765265 
L 260.974814 481.615879 
L 261.200352 476.545347 
L 261.651429 477.325429 
L 262.328043 463.673997 
L 262.779119 466.404284 
L 263.004657 466.404284 
L 263.455733 469.13457 
L 263.681271 460.943711 
L 263.906809 459.773588 
L 264.132347 453.922975 
L 264.583424 411.018476 
L 264.808962 404.777822 
L 265.711114 279.184652 
L 265.936652 198.446186 
L 266.16219 196.886023 
L 266.387728 171.923405 
L 266.613266 162.952465 
L 266.838804 125.118498 
L 267.289881 273.334039 
L 267.740957 255.002117 
L 267.966495 267.873466 
L 268.417571 207.417127 
L 268.643109 226.529131 
L 268.868647 195.325859 
L 269.094185 208.58725 
L 269.319723 233.939908 
L 269.545261 239.400481 
L 269.770799 191.035409 
L 270.447414 303.757229 
L 270.672952 289.715757 
L 270.89849 290.885879 
L 271.124028 299.466779 
L 271.349566 297.516575 
L 271.575104 317.798701 
L 271.800642 309.997883 
L 272.02618 237.060235 
L 272.251718 206.247004 
L 272.477256 203.906759 
L 272.702794 208.58725 
L 273.153871 228.089295 
L 273.604947 332.620255 
L 273.830485 348.611932 
L 274.507099 428.180276 
L 274.732637 434.810971 
L 274.958175 453.532934 
L 275.183713 460.163629 
L 275.409251 457.433343 
L 275.860327 484.736206 
L 276.085866 485.906328 
L 276.311404 484.736206 
L 276.536942 472.644938 
L 276.76248 469.524611 
L 276.988018 474.205102 
L 277.213556 473.034979 
L 277.439094 477.71547 
L 277.664632 473.42502 
L 277.89017 478.495551 
L 278.115708 478.885592 
L 278.341246 486.68641 
L 278.566784 480.055715 
L 278.792322 483.956124 
L 279.243399 507.748619 
L 279.468937 508.13866 
L 279.694475 506.578496 
L 279.920013 500.337842 
L 280.145551 506.968537 
L 280.371089 498.777678 
L 280.596627 504.628292 
L 280.822165 502.678087 
L 281.047703 493.317106 
L 281.273241 512.81915 
L 281.498779 488.246574 
L 281.724318 486.296369 
L 281.949856 489.026656 
L 282.175394 497.217515 
L 282.400932 495.657351 
L 282.62647 491.366901 
L 282.852008 480.055715 
L 283.077546 476.935388 
L 283.303084 483.566083 
L 283.528622 471.864856 
L 283.75416 478.105511 
L 283.979698 468.744529 
L 284.430774 490.97686 
L 284.656313 497.607555 
L 284.881851 487.856533 
L 285.107389 502.288046 
L 285.332927 494.877269 
L 285.558465 473.42502 
L 285.784003 464.064038 
L 286.460617 417.649171 
L 287.137231 325.209478 
L 287.588308 234.329949 
L 288.039384 193.765696 
L 288.264922 180.894346 
L 288.49046 160.222178 
L 288.715998 164.512628 
L 288.941536 185.574837 
L 289.392612 166.462833 
L 289.61815 168.803078 
L 289.843688 148.910992 
L 290.069226 139.550011 
L 290.294764 165.29271 
L 290.520303 177.774019 
L 290.745841 202.736636 
L 290.971379 204.2968 
L 291.196917 173.093528 
L 291.647993 187.915082 
L 291.873531 188.695164 
L 292.099069 207.027086 
L 292.324607 201.176473 
L 292.550145 207.807168 
L 292.775683 210.927495 
L 293.001221 211.707577 
L 293.226759 205.076882 
L 293.677836 227.309213 
L 293.903374 216.388068 
L 294.128912 231.209622 
L 294.35445 229.649458 
L 294.579988 244.471012 
L 295.031064 292.446043 
L 295.48214 354.072505 
L 295.707678 379.425163 
L 295.933216 379.425163 
L 296.158755 392.296513 
L 296.609831 440.271543 
L 296.835369 444.171952 
L 297.060907 442.221748 
L 297.286445 436.371134 
L 297.511983 455.093098 
L 297.737521 458.213425 
L 297.963059 462.893915 
L 298.188597 469.914652 
L 298.639673 474.205102 
L 298.865211 469.524611 
L 299.316288 476.935388 
L 299.541826 473.815061 
L 299.767364 477.71547 
L 299.992902 478.105511 
L 300.443978 462.503875 
L 300.669516 474.595142 
L 300.895054 478.885592 
L 301.120592 461.723793 
L 301.34613 462.893915 
L 301.571668 467.964447 
L 301.797206 460.943711 
L 302.022745 458.603466 
L 302.248283 461.333752 
L 302.473821 459.383547 
L 302.699359 463.283956 
L 302.924897 461.723793 
L 303.375973 473.42502 
L 303.827049 484.736206 
L 304.278125 479.275633 
L 304.503663 477.325429 
L 304.729201 477.71547 
L 304.95474 500.337842 
L 305.180278 500.727883 
L 305.405816 508.13866 
L 305.631354 489.416697 
L 305.856892 498.777678 
L 306.08243 494.097187 
L 306.307968 485.126247 
L 306.533506 493.707146 
L 306.759044 485.516288 
L 306.984582 492.927065 
L 307.21012 488.246574 
L 307.661196 459.383547 
L 307.886735 449.242484 
L 308.112273 424.669907 
L 308.563349 362.263364 
L 309.014425 294.396247 
L 309.239963 217.55819 
L 309.465501 223.408804 
L 309.691039 220.678518 
L 310.142115 167.242915 
L 310.367653 203.126677 
L 310.593192 215.607986 
L 310.81873 217.948231 
L 311.044268 169.193119 
L 311.269806 180.114264 
L 311.495344 161.00226 
L 311.720882 174.263651 
L 312.171958 157.101851 
L 312.397496 184.014673 
L 312.623034 169.973201 
L 312.848572 178.944141 
L 313.07411 169.973201 
L 313.525187 190.255328 
L 313.750725 198.836227 
L 313.976263 176.993937 
L 314.201801 166.462833 
L 314.427339 201.176473 
L 314.652877 183.624632 
L 314.878415 198.446186 
L 315.103953 204.2968 
L 315.329491 237.450276 
L 315.555029 211.707577 
L 315.780567 206.247004 
L 316.231643 269.043589 
L 316.68272 300.636902 
L 316.908258 340.421073 
L 317.133796 347.83185 
L 317.359334 379.425163 
L 317.584872 391.516431 
L 318.261486 443.781911 
L 318.712562 458.603466 
L 318.9381 462.893915 
L 319.163638 455.093098 
L 319.389177 468.354488 
L 319.614715 468.744529 
L 319.840253 476.545347 
L 320.065791 472.254897 
L 320.291329 471.864856 
L 320.516867 478.885592 
L 320.742405 474.595142 
L 320.967943 491.756942 
L 321.193481 487.076451 
L 321.419019 492.146983 
L 321.644557 488.636615 
L 321.870095 490.586819 
L 322.095633 489.026656 
L 322.321172 485.906328 
L 322.997786 488.636615 
L 323.223324 490.196778 
L 323.6744 487.076451 
L 323.899938 483.176042 
L 324.125476 489.806737 
L 324.351014 487.466492 
L 324.576552 491.756942 
L 324.80209 492.146983 
L 325.027628 487.466492 
L 325.253167 488.636615 
L 325.478705 497.607555 
L 325.704243 487.856533 
L 325.929781 491.756942 
L 326.155319 486.296369 
L 326.380857 484.346165 
L 326.606395 494.097187 
L 326.831933 494.097187 
L 327.057471 490.196778 
L 327.283009 489.026656 
L 327.508547 486.296369 
L 327.734085 487.076451 
L 328.185162 493.317106 
L 328.4107 500.337842 
L 328.636238 500.337842 
L 328.861776 486.296369 
L 329.087314 480.445756 
L 329.312852 484.736206 
L 329.989466 374.744672 
L 330.891619 229.259417 
L 331.117157 185.964878 
L 331.342695 171.143324 
L 331.793771 159.832137 
L 332.019309 145.400624 
L 332.244847 173.093528 
L 332.470385 184.794755 
L 332.695923 170.363242 
L 332.921461 172.703487 
L 333.146999 180.504305 
L 333.372537 179.334182 
L 333.598075 189.475246 
L 333.823614 187.525041 
L 334.27469 206.247004 
L 334.500228 185.964878 
L 334.725766 201.566514 
L 334.951304 200.786432 
L 335.176842 202.346595 
L 335.40238 214.437863 
L 335.627918 201.176473 
L 335.853456 205.466923 
L 336.078994 212.8777 
L 336.304532 209.757372 
L 336.53007 226.529131 
L 336.755609 231.599663 
L 337.206685 258.122444 
L 337.432223 266.703344 
L 337.657761 293.616166 
L 337.883299 304.14727 
L 338.108837 323.259274 
L 338.785451 398.927208 
L 339.236527 415.308926 
L 339.462065 417.25913 
L 340.13868 466.404284 
L 340.364218 466.014243 
L 340.589756 468.354488 
L 340.815294 474.595142 
L 341.040832 471.084774 
L 341.26637 478.105511 
L 341.491908 477.325429 
L 341.717446 481.225838 
L 341.942984 482.005919 
L 342.168522 474.985183 
L 342.394061 486.68641 
L 342.619599 483.176042 
L 342.845137 489.026656 
L 343.070675 481.225838 
L 343.296213 486.68641 
L 343.521751 480.055715 
L 343.747289 485.516288 
L 343.972827 484.346165 
L 344.198365 481.225838 
L 344.423903 487.466492 
L 344.649441 480.835797 
L 344.874979 483.956124 
L 345.100517 481.615879 
L 345.326056 484.736206 
L 345.551594 485.126247 
L 345.777132 486.296369 
L 346.00267 494.097187 
L 346.228208 486.68641 
L 346.453746 493.707146 
L 346.679284 496.047392 
L 346.904822 499.947801 
L 347.13036 494.877269 
L 347.355898 494.487228 
L 347.581436 496.047392 
L 347.806974 499.167719 
L 348.032512 504.628292 
L 348.258051 514.769355 
L 348.483589 515.159396 
L 348.709127 517.889682 
L 348.934665 517.499641 
L 349.160203 515.159396 
L 349.385741 519.839887 
L 349.611279 513.209191 
L 349.836817 512.039069 
L 350.062355 508.918741 
L 350.287893 507.358578 
L 350.513431 511.649028 
L 351.190046 499.167719 
L 351.415584 497.217515 
L 351.86666 484.736206 
L 352.092198 484.736206 
L 352.317736 480.835797 
L 352.543274 489.806737 
L 352.768812 489.026656 
L 352.99435 494.487228 
L 353.219888 488.636615 
L 353.445426 489.026656 
L 353.896502 493.317106 
L 354.122041 483.176042 
L 354.347579 488.246574 
L 354.573117 485.516288 
L 354.798655 485.906328 
L 355.024193 490.97686 
L 355.249731 482.786001 
L 355.475269 478.885592 
L 355.700807 482.39596 
L 355.926345 467.574406 
L 356.151883 471.474815 
L 356.377421 482.005919 
L 356.602959 484.346165 
L 356.828498 470.694733 
L 357.054036 470.304693 
L 357.279574 463.673997 
L 357.505112 471.084774 
L 357.73065 471.084774 
L 357.956188 469.524611 
L 358.407264 477.71547 
L 358.632802 489.026656 
L 358.85834 493.707146 
L 359.083878 491.366901 
L 359.309416 491.366901 
L 359.760493 490.586819 
L 359.986031 494.877269 
L 360.211569 493.707146 
L 360.888183 483.176042 
L 361.339259 494.487228 
L 361.564797 498.777678 
L 361.790335 489.416697 
L 362.015873 495.657351 
L 362.241411 496.047392 
L 362.466949 492.927065 
L 362.692488 485.906328 
L 362.918026 495.26731 
L 363.143564 496.437433 
L 363.369102 495.657351 
L 363.59464 497.997596 
L 363.820178 492.537024 
L 364.045716 498.777678 
L 364.271254 497.997596 
L 364.496792 496.437433 
L 364.72233 497.607555 
L 364.947868 496.437433 
L 365.173406 490.586819 
L 365.624483 494.487228 
L 365.850021 486.296369 
L 366.075559 489.806737 
L 366.301097 486.68641 
L 366.526635 496.047392 
L 366.752173 497.997596 
L 366.977711 501.117924 
L 367.203249 502.288046 
L 367.428787 501.898005 
L 367.654325 502.678087 
L 367.879863 513.209191 
L 368.105401 514.769355 
L 368.330939 517.499641 
L 368.556478 523.350255 
L 368.782016 517.889682 
L 369.007554 528.810827 
L 369.233092 517.1096 
L 369.45863 513.989273 
L 369.684168 521.010009 
L 369.909706 517.889682 
L 370.135244 510.478905 
L 370.360782 509.698823 
L 370.811858 515.549437 
L 371.037396 506.968537 
L 371.262935 505.408373 
L 371.488473 502.288046 
L 371.714011 506.188455 
L 371.939549 506.578496 
L 372.165087 500.337842 
L 372.390625 499.947801 
L 372.616163 497.217515 
L 372.841701 497.607555 
L 373.067239 500.337842 
L 373.292777 501.117924 
L 373.518315 499.947801 
L 373.743853 495.26731 
L 373.969391 496.437433 
L 374.19493 501.898005 
L 374.646006 501.117924 
L 374.871544 502.288046 
L 375.097082 508.13866 
L 375.32262 509.698823 
L 375.548158 499.947801 
L 375.773696 499.947801 
L 375.999234 496.437433 
L 376.45031 512.42911 
L 376.675848 513.599232 
L 376.901386 504.628292 
L 377.126925 509.308782 
L 377.352463 510.478905 
L 377.578001 509.698823 
L 377.803539 505.798414 
L 378.029077 505.408373 
L 378.254615 505.408373 
L 378.480153 508.528701 
L 378.705691 505.018332 
L 379.156767 503.068128 
L 379.382305 502.678087 
L 379.607843 492.537024 
L 379.833381 499.167719 
L 380.284458 492.927065 
L 380.509996 492.927065 
L 380.735534 493.707146 
L 381.18661 483.176042 
L 381.412148 488.246574 
L 381.637686 482.786001 
L 381.863224 488.246574 
L 382.088762 476.545347 
L 382.539838 484.346165 
L 382.765376 480.055715 
L 383.216453 469.914652 
L 383.441991 478.885592 
L 383.667529 477.325429 
L 383.893067 478.885592 
L 384.118605 485.906328 
L 384.569681 488.636615 
L 385.020757 504.238251 
L 385.246295 504.238251 
L 385.697372 502.288046 
L 385.92291 503.84821 
L 386.148448 506.188455 
L 386.373986 501.117924 
L 386.599524 506.968537 
L 386.825062 500.727883 
L 387.0506 509.308782 
L 387.276138 508.13866 
L 387.501676 505.018332 
L 387.727214 508.918741 
L 387.952752 508.13866 
L 388.17829 510.868946 
L 388.403828 509.698823 
L 388.854905 515.159396 
L 389.080443 519.449846 
L 389.305981 515.549437 
L 389.531519 520.229928 
L 389.757057 512.42911 
L 390.208133 505.798414 
L 390.433671 499.167719 
L 390.659209 500.337842 
L 390.884747 492.146983 
L 391.110285 494.487228 
L 391.335823 485.906328 
L 391.561362 489.416697 
L 391.7869 490.196778 
L 392.463514 487.466492 
L 392.689052 489.416697 
L 392.91459 492.927065 
L 393.140128 487.466492 
L 393.365666 490.97686 
L 393.591204 487.466492 
L 394.04228 471.474815 
L 394.267818 458.603466 
L 395.169971 383.715613 
L 395.395509 336.130624 
L 395.621047 317.40866 
L 396.072123 191.035409 
L 396.297661 199.226268 
L 396.523199 182.45451 
L 396.748737 152.811401 
L 396.974275 149.691074 
L 397.199813 185.964878 
L 397.425352 162.172383 
L 397.65089 156.321769 
L 397.876428 162.952465 
L 398.101966 151.251238 
L 398.553042 163.342506 
L 398.77858 165.29271 
L 399.004118 180.114264 
L 399.455194 191.42545 
L 399.680732 184.014673 
L 399.90627 185.574837 
L 400.131808 183.624632 
L 400.357347 199.226268 
L 400.582885 192.205532 
L 400.808423 199.616309 
L 401.033961 212.097618 
L 401.259499 198.056146 
L 401.485037 200.396391 
L 401.936113 227.309213 
L 402.161651 210.927495 
L 402.838265 254.222035 
L 403.063804 264.753139 
L 403.289342 294.396247 
L 403.740418 363.433486 
L 403.965956 379.425163 
L 404.191494 387.225981 
L 405.093646 437.931298 
L 405.319184 446.122157 
L 405.77026 448.852443 
L 405.995799 457.823384 
L 406.221337 460.55367 
L 406.446875 458.213425 
L 406.672413 453.532934 
L 406.897951 456.26322 
L 407.123489 451.97277 
L 407.349027 451.582729 
L 407.574565 446.512198 
L 407.800103 456.653261 
L 408.025641 452.362811 
L 408.251179 454.313016 
L 408.476717 451.582729 
L 408.702255 458.213425 
L 408.927794 468.744529 
L 409.153332 485.516288 
L 409.604408 468.354488 
L 409.829946 467.574406 
L 410.055484 464.454079 
L 410.281022 457.823384 
L 410.50656 458.213425 
L 410.732098 467.574406 
L 410.957636 457.823384 
L 411.183174 462.893915 
L 412.085327 497.217515 
L 412.536403 487.466492 
L 412.761941 506.578496 
L 412.987479 492.146983 
L 413.213017 501.117924 
L 413.889631 477.325429 
L 414.115169 476.545347 
L 414.340707 482.786001 
L 414.566245 468.354488 
L 414.791784 469.524611 
L 415.017322 471.864856 
L 415.24286 445.342075 
L 415.468398 444.952034 
L 415.693936 447.29228 
L 416.145012 404.387781 
L 416.37055 396.586963 
L 416.596088 366.943854 
L 416.821626 357.582873 
L 417.047164 311.948088 
L 417.272702 292.056002 
L 417.498241 222.628722 
L 417.949317 197.666105 
L 418.174855 182.064469 
L 418.400393 151.251238 
L 418.851469 195.7159 
L 419.077007 205.856963 
L 419.302545 184.404714 
L 419.528083 209.367332 
L 419.753621 195.7159 
L 419.979159 215.217945 
L 420.204697 199.226268 
L 420.430236 213.267741 
L 420.655774 198.836227 
L 420.881312 197.666105 
L 421.10685 188.305123 
L 421.332388 187.915082 
L 421.557926 182.064469 
L 421.783464 190.255328 
L 422.009002 191.42545 
L 422.23454 166.852874 
L 422.460078 176.603896 
L 422.685616 196.495982 
L 422.911154 188.305123 
L 423.362231 198.836227 
L 423.813307 217.16815 
L 424.038845 218.728313 
L 424.489921 266.703344 
L 424.715459 280.354775 
L 424.940997 311.168006 
L 425.392073 407.118067 
L 425.617611 412.188599 
L 425.843149 405.167863 
L 426.068687 407.118067 
L 426.745302 439.101421 
L 426.97084 444.561993 
L 427.196378 457.823384 
L 427.421916 457.433343 
L 427.647454 450.022566 
L 427.872992 449.242484 
L 428.09853 474.985183 
L 428.549606 454.703057 
L 428.775144 457.823384 
L 429.000682 454.313016 
L 429.226221 457.433343 
L 429.451759 468.354488 
L 429.677297 468.354488 
L 430.128373 476.935388 
L 430.353911 469.914652 
L 430.579449 479.275633 
L 430.804987 472.644938 
L 431.030525 469.524611 
L 431.256063 478.885592 
L 431.481601 471.474815 
L 431.707139 481.225838 
L 431.932678 480.835797 
L 432.158216 481.225838 
L 432.383754 473.815061 
L 432.609292 474.985183 
L 432.83483 473.034979 
L 433.511444 474.985183 
L 433.736982 469.13457 
L 433.96252 475.375224 
L 434.188058 473.42502 
L 434.413596 475.765265 
L 434.639134 473.815061 
L 434.864673 476.545347 
L 435.090211 473.815061 
L 435.315749 474.595142 
L 435.541287 467.574406 
L 435.766825 473.034979 
L 435.992363 465.234161 
L 436.217901 467.964447 
L 436.443439 465.234161 
L 436.668977 457.433343 
L 436.894515 460.943711 
L 437.120053 453.142893 
L 437.796668 409.848353 
L 438.247744 378.645081 
L 439.375434 206.247004 
L 439.600972 192.205532 
L 439.82651 164.902669 
L 440.052048 158.271974 
L 440.277586 135.259561 
L 440.503124 180.114264 
L 440.728663 168.413037 
L 440.954201 150.081115 
L 441.179739 166.852874 
L 441.405277 146.570747 
L 441.630815 148.520951 
L 441.856353 143.840461 
L 442.307429 178.944141 
L 442.532967 176.603896 
L 442.758505 175.823814 
L 442.984043 184.794755 
L 443.435119 183.624632 
L 443.660658 175.823814 
L 443.886196 178.16406 
L 444.111734 167.632955 
L 444.337272 178.944141 
L 444.56281 175.823814 
L 444.788348 171.143324 
L 445.239424 186.354919 
L 445.464962 186.354919 
L 445.6905 197.666105 
L 445.916038 218.338272 
L 446.141576 224.188886 
L 446.592653 269.823671 
L 446.818191 325.209478 
L 447.043729 352.512341 
L 447.269267 358.752996 
L 447.494805 382.935531 
L 447.945881 409.068272 
L 448.396957 438.321339 
L 448.622495 438.71138 
L 448.848033 445.342075 
L 449.073571 447.68232 
L 449.975724 460.943711 
L 450.4268 464.454079 
L 450.652338 460.943711 
L 450.877876 467.184365 
L 451.103414 462.503875 
L 451.328952 469.914652 
L 451.55449 468.744529 
L 451.780028 474.205102 
L 452.005566 467.574406 
L 452.231105 473.815061 
L 452.682181 472.254897 
L 453.133257 466.794324 
L 453.358795 470.694733 
L 453.584333 469.524611 
L 453.809871 465.624202 
L 454.035409 466.794324 
L 454.260947 472.644938 
L 454.486485 467.574406 
L 454.712023 467.574406 
L 454.937561 470.304693 
L 455.1631 471.084774 
L 455.388638 468.744529 
L 455.614176 469.914652 
L 455.839714 465.624202 
L 456.065252 470.694733 
L 456.516328 467.574406 
L 456.741866 471.864856 
L 456.967404 472.254897 
L 457.192942 473.42502 
L 457.41848 464.064038 
L 457.644018 470.304693 
L 457.869556 470.694733 
L 458.095095 471.474815 
L 458.320633 470.694733 
L 458.546171 458.213425 
L 458.771709 455.873179 
L 459.899399 361.093241 
L 460.801552 218.728313 
L 461.02709 216.778109 
L 461.252628 192.205532 
L 461.478166 182.45451 
L 461.703704 162.952465 
L 461.929242 176.993937 
L 462.15478 200.00635 
L 462.380318 153.981524 
L 462.605856 143.060379 
L 462.831394 161.392301 
L 463.056932 146.960788 
L 463.28247 141.500215 
L 463.959085 166.462833 
L 464.184623 173.87361 
L 464.410161 167.242915 
L 465.086775 123.948375 
L 465.537851 165.29271 
L 465.763389 186.744959 
L 465.988927 161.00226 
L 466.214465 185.574837 
L 466.440003 175.043733 
L 466.665542 205.856963 
L 466.89108 211.317536 
L 467.116618 213.267741 
L 467.342156 237.060235 
L 467.793232 255.392158 
L 468.01877 278.01453 
L 468.695384 367.723936 
L 469.14646 382.54549 
L 469.597537 424.279867 
L 469.823075 444.561993 
L 470.048613 452.752852 
L 470.274151 456.26322 
L 470.499689 453.922975 
L 470.725227 457.043302 
L 470.950765 468.354488 
L 471.176303 466.794324 
L 471.401841 471.474815 
L 471.627379 466.794324 
L 471.852917 468.354488 
L 472.078455 462.893915 
L 472.303993 464.454079 
L 472.529532 459.773588 
L 472.75507 462.503875 
L 472.980608 467.574406 
L 473.206146 457.043302 
L 473.431684 455.093098 
L 473.657222 451.97277 
L 473.88276 451.192689 
L 474.784912 488.246574 
L 475.01045 483.566083 
L 475.235988 493.707146 
L 475.461527 496.047392 
L 475.687065 491.366901 
L 475.912603 497.607555 
L 476.363679 494.877269 
L 476.589217 494.487228 
L 476.814755 496.827474 
L 477.040293 496.047392 
L 477.265831 496.047392 
L 477.491369 495.657351 
L 477.716907 500.727883 
L 477.942445 493.317106 
L 478.167984 500.727883 
L 478.393522 491.756942 
L 478.61906 490.586819 
L 479.521212 473.815061 
L 479.74675 480.055715 
L 479.972288 473.034979 
L 480.197826 469.524611 
L 480.423364 457.433343 
L 480.648902 463.283956 
L 480.87444 463.283956 
L 481.099979 435.981093 
L 481.325517 427.010153 
L 481.551055 398.147126 
L 482.002131 320.919028 
L 482.227669 285.425307 
L 482.453207 224.188886 
L 482.678745 213.267741 
L 482.904283 185.964878 
L 483.129821 174.653692 
L 483.355359 187.135 
L 483.580897 214.047822 
L 483.806435 223.408804 
L 484.031974 216.778109 
L 484.257512 219.118354 
L 484.48305 206.247004 
L 484.708588 180.114264 
L 484.934126 181.284387 
L 485.159664 196.105941 
L 485.385202 192.205532 
L 485.61074 214.047822 
L 485.836278 214.827904 
L 486.061816 220.678518 
L 486.287354 220.678518 
L 486.512892 236.280154 
L 486.73843 220.678518 
L 487.189507 217.16815 
L 487.415045 219.508395 
L 487.640583 243.690931 
L 487.866121 246.031176 
L 488.091659 245.251094 
L 488.317197 254.612076 
L 488.542735 253.831994 
L 488.768273 275.674284 
L 488.993811 285.035266 
L 489.895964 367.723936 
L 490.34704 428.960357 
L 490.572578 430.13048 
L 490.798116 441.831707 
L 491.023654 444.171952 
L 491.700268 482.005919 
L 491.925806 486.68641 
L 492.151344 484.346165 
L 492.376882 489.026656 
L 492.602421 496.827474 
L 492.827959 493.707146 
L 493.053497 501.117924 
L 493.279035 492.537024 
L 493.504573 494.487228 
L 493.730111 490.196778 
L 493.955649 496.437433 
L 494.181187 491.756942 
L 494.406725 494.097187 
L 494.632263 499.167719 
L 495.083339 491.756942 
L 495.308877 496.047392 
L 495.534416 496.047392 
L 495.759954 489.416697 
L 495.985492 491.366901 
L 496.21103 494.487228 
L 496.436568 491.756942 
L 496.662106 497.217515 
L 496.887644 496.827474 
L 497.113182 493.317106 
L 497.33872 499.55776 
L 497.564258 496.047392 
L 497.789796 494.487228 
L 498.015334 499.55776 
L 498.240872 493.707146 
L 498.691949 497.997596 
L 498.917487 495.657351 
L 499.143025 494.877269 
L 499.368563 490.196778 
L 499.594101 498.777678 
L 499.819639 496.437433 
L 500.045177 499.167719 
L 500.270715 496.437433 
L 500.496253 498.777678 
L 500.721791 493.707146 
L 500.947329 495.657351 
L 501.172867 493.707146 
L 501.398406 497.217515 
L 501.623944 492.537024 
L 502.07502 499.947801 
L 502.300558 493.707146 
L 502.526096 501.507964 
L 502.751634 494.877269 
L 502.977172 499.167719 
L 503.20271 498.387637 
L 503.653786 490.586819 
L 503.879324 494.877269 
L 504.330401 483.566083 
L 504.555939 483.566083 
L 504.781477 482.786001 
L 505.232553 501.117924 
L 505.683629 489.026656 
L 505.909167 472.254897 
L 506.134705 483.566083 
L 506.360243 485.126247 
L 506.585781 477.71547 
L 506.811319 487.076451 
L 507.036858 480.835797 
L 507.262396 488.636615 
L 507.487934 500.727883 
L 507.713472 499.167719 
L 507.93901 501.507964 
L 508.390086 495.26731 
L 508.615624 494.877269 
L 508.841162 501.898005 
L 509.0667 501.117924 
L 509.292238 497.607555 
L 509.517776 500.337842 
L 509.968853 497.217515 
L 510.194391 503.458169 
L 510.419929 495.26731 
L 510.645467 505.798414 
L 510.871005 507.748619 
L 511.096543 499.947801 
L 511.322081 505.018332 
L 511.547619 513.209191 
L 511.998695 504.628292 
L 512.224233 507.748619 
L 512.675309 494.487228 
L 512.900848 496.437433 
L 513.351924 497.217515 
L 513.577462 484.346165 
L 513.803 489.806737 
L 514.254076 483.176042 
L 514.479614 491.756942 
L 514.705152 496.047392 
L 514.93069 487.076451 
L 515.156228 485.906328 
L 515.381766 496.827474 
L 515.607304 497.607555 
L 515.832843 502.288046 
L 516.058381 501.898005 
L 516.283919 497.217515 
L 516.509457 502.678087 
L 516.734995 496.827474 
L 516.960533 504.628292 
L 517.186071 502.288046 
L 517.411609 506.578496 
L 517.637147 513.209191 
L 517.862685 513.599232 
L 518.088223 514.379314 
L 518.313761 512.81915 
L 518.764838 511.258987 
L 518.990376 522.570173 
L 519.441452 512.81915 
L 519.66699 519.059805 
L 519.892528 511.649028 
L 520.118066 516.719559 
L 520.343604 515.549437 
L 520.569142 508.918741 
L 520.79468 513.209191 
L 521.245756 509.308782 
L 521.471295 518.279723 
L 521.696833 512.42911 
L 521.922371 513.599232 
L 522.147909 515.549437 
L 522.373447 513.209191 
L 522.598985 520.619968 
L 522.824523 511.649028 
L 523.050061 509.698823 
L 523.275599 517.1096 
L 523.501137 511.649028 
L 523.726675 512.039069 
L 523.952213 508.528701 
L 524.177751 507.748619 
L 524.628828 517.499641 
L 525.079904 512.039069 
L 525.305442 507.748619 
L 525.53098 506.578496 
L 525.756518 512.42911 
L 525.982056 508.918741 
L 526.207594 509.308782 
L 526.433132 507.748619 
L 526.65867 508.13866 
L 526.884208 511.258987 
L 527.109746 512.039069 
L 527.335285 503.458169 
L 527.786361 527.250664 
L 528.011899 518.279723 
L 528.237437 517.499641 
L 528.688513 523.740296 
L 528.914051 513.989273 
L 529.365127 529.200868 
L 529.816203 513.599232 
L 530.041741 513.989273 
L 530.26728 513.599232 
L 530.718356 492.537024 
L 531.39497 514.379314 
L 531.620508 517.499641 
L 531.846046 508.13866 
L 532.071584 507.748619 
L 532.297122 509.308782 
L 532.52266 516.719559 
L 532.748198 506.968537 
L 532.973736 515.159396 
L 533.199275 501.117924 
L 533.424813 503.84821 
L 534.101427 521.40005 
L 534.326965 523.350255 
L 534.552503 513.989273 
L 535.003579 524.520377 
L 535.229117 522.570173 
L 535.680193 527.250664 
L 535.905731 512.42911 
L 536.13127 522.180132 
L 536.356808 520.229928 
L 536.582346 521.40005 
L 536.807884 514.769355 
L 537.033422 514.769355 
L 537.25896 509.698823 
L 537.484498 520.229928 
L 537.710036 511.649028 
L 538.161112 529.200868 
L 538.38665 528.030745 
L 538.837727 517.1096 
L 539.063265 515.159396 
L 539.288803 519.059805 
L 539.514341 506.188455 
L 539.739879 510.088864 
L 540.190955 529.590909 
L 540.867569 517.1096 
L 541.093107 521.010009 
L 541.318645 522.960214 
L 541.544183 526.080541 
L 541.769722 526.860623 
L 541.99526 521.010009 
L 542.220798 524.910418 
L 542.446336 517.1096 
L 542.671874 516.719559 
L 543.12295 515.549437 
L 543.348488 510.088864 
L 543.574026 514.769355 
L 543.799564 515.549437 
L 544.025102 517.889682 
L 544.476178 517.889682 
L 544.701717 521.40005 
L 544.927255 521.790091 
L 545.152793 511.258987 
L 545.378331 515.549437 
L 545.603869 513.599232 
L 545.829407 505.408373 
L 546.280483 465.234161 
L 547.633712 244.471012 
L 547.85925 221.84864 
L 548.084788 213.267741 
L 548.310326 169.193119 
L 548.761402 194.935818 
L 548.98694 192.595573 
L 549.212478 173.483569 
L 549.438016 168.022996 
L 549.663554 152.811401 
L 549.889092 162.952465 
L 550.11463 159.052056 
L 550.340168 162.562424 
L 550.565707 155.931728 
L 550.791245 191.035409 
L 551.016783 203.126677 
L 551.242321 207.807168 
L 551.467859 196.886023 
L 551.693397 197.276064 
L 551.918935 179.724223 
L 552.144473 181.674428 
L 552.370011 200.786432 
L 552.595549 203.126677 
L 553.046625 169.193119 
L 553.272164 179.334182 
L 553.497702 210.147413 
L 553.72324 206.247004 
L 553.948778 215.607986 
L 554.174316 241.350685 
L 554.399854 244.080972 
L 555.076468 352.512341 
L 555.302006 364.603609 
L 555.527544 389.176186 
L 555.753082 380.205245 
L 555.97862 396.586963 
L 556.204159 396.586963 
L 556.655235 438.321339 
L 556.880773 438.71138 
L 557.106311 437.151216 
L 557.331849 441.051625 
L 557.557387 480.055715 
L 557.782925 473.815061 
L 558.008463 452.362811 
L 558.234001 448.852443 
L 558.459539 480.445756 
L 558.685077 493.317106 
L 558.910615 481.225838 
L 559.136154 487.076451 
L 559.58723 476.935388 
L 559.812768 488.246574 
L 560.263844 459.773588 
L 560.71492 450.802648 
L 561.165996 476.155306 
L 561.391534 473.034979 
L 561.617072 468.354488 
L 561.84261 482.005919 
L 562.068149 474.205102 
L 562.293687 470.304693 
L 562.519225 482.786001 
L 563.195839 470.304693 
L 563.421377 474.595142 
L 563.646915 467.184365 
L 563.872453 470.304693 
L 564.097991 467.964447 
L 564.549067 445.732116 
L 564.774605 444.561993 
L 565.000144 446.122157 
L 565.225682 457.043302 
L 565.45122 450.412607 
L 565.902296 452.362811 
L 566.127834 452.752852 
L 566.353372 439.491462 
L 566.57891 440.271543 
L 566.804448 440.271543 
L 567.029986 447.29228 
L 567.481062 430.520521 
L 567.706601 407.508108 
L 567.932139 402.437576 
L 568.157677 394.246717 
L 568.383215 377.474959 
L 568.608753 331.060092 
L 568.834291 308.827761 
L 569.059829 182.064469 
L 569.285367 172.703487 
L 569.736443 35.409091 
L 569.961981 109.516862 
L 570.187519 108.346739 
L 570.413057 129.798988 
L 570.864134 82.994081 
L 571.089672 103.666248 
L 571.31521 173.093528 
L 571.540748 155.931728 
L 571.991824 192.205532 
L 572.4429 172.313446 
L 572.668438 178.944141 
L 572.893976 174.653692 
L 573.119514 161.782342 
L 573.345052 164.122587 
L 573.796129 172.703487 
L 574.021667 181.284387 
L 574.247205 184.404714 
L 574.472743 189.865287 
L 574.923819 176.603896 
L 575.374895 205.466923 
L 575.600433 211.317536 
L 575.825971 203.906759 
L 576.277047 246.031176 
L 576.953662 349.782055 
L 577.1792 376.304836 
L 577.404738 380.205245 
L 577.630276 389.566227 
L 578.081352 426.620112 
L 578.30689 429.350398 
L 578.532428 435.981093 
L 579.434581 480.835797 
L 579.660119 477.325429 
L 579.885657 482.005919 
L 580.336733 507.748619 
L 580.562271 502.678087 
L 580.787809 487.466492 
L 581.013347 447.68232 
L 581.238885 467.184365 
L 581.464423 462.893915 
L 581.689961 481.615879 
L 581.915499 457.433343 
L 582.141038 454.703057 
L 582.366576 460.55367 
L 582.592114 459.773588 
L 582.817652 457.043302 
L 583.04319 458.603466 
L 583.268728 457.823384 
L 583.494266 467.184365 
L 583.945342 477.71547 
L 584.17088 474.205102 
L 584.621956 479.275633 
L 584.847494 479.275633 
L 585.073033 477.71547 
L 585.298571 469.524611 
L 585.524109 472.644938 
L 585.749647 465.234161 
L 585.975185 463.283956 
L 586.200723 459.773588 
L 586.426261 458.993506 
L 586.651799 462.113834 
L 586.877337 455.873179 
L 587.328413 460.55367 
L 587.553951 465.234161 
L 587.779489 476.545347 
L 588.005028 468.744529 
L 588.230566 474.985183 
L 588.456104 460.943711 
L 588.90718 449.632525 
L 589.132718 447.68232 
L 589.809332 383.715613 
L 590.03487 358.752996 
L 590.711484 238.230358 
L 591.162561 211.707577 
L 591.613637 146.180706 
L 592.064713 178.554101 
L 592.515789 131.749193 
L 592.741327 132.919315 
L 592.966865 167.242915 
L 593.192403 157.881933 
L 593.417941 171.143324 
L 593.643479 172.703487 
L 593.869018 189.475246 
L 594.094556 193.375655 
L 594.320094 183.624632 
L 594.545632 162.952465 
L 594.77117 166.072792 
L 594.996708 171.143324 
L 595.447784 187.915082 
L 595.673322 171.533364 
L 595.89886 209.757372 
L 596.124398 191.035409 
L 596.349936 189.865287 
L 596.801013 180.504305 
L 597.252089 230.42954 
L 597.477627 244.471012 
L 597.703165 275.284243 
L 597.928703 286.98547 
L 598.154241 306.877556 
L 598.379779 351.732259 
L 598.830855 389.566227 
L 599.056393 376.694877 
L 599.281931 390.736349 
L 599.50747 444.952034 
L 599.733008 465.624202 
L 599.958546 445.732116 
L 600.184084 466.794324 
L 600.409622 467.574406 
L 600.63516 472.254897 
L 601.086236 430.910562 
L 601.311774 446.512198 
L 601.988388 470.304693 
L 602.213926 466.404284 
L 602.439465 471.864856 
L 602.665003 484.736206 
L 602.890541 477.325429 
L 603.567155 468.354488 
L 603.792693 468.744529 
L 604.018231 465.624202 
L 604.243769 455.093098 
L 604.469307 450.022566 
L 604.694845 459.383547 
L 604.920383 482.005919 
L 605.145921 480.835797 
L 605.37146 489.026656 
L 605.596998 486.68641 
L 605.822536 478.105511 
L 606.048074 450.802648 
L 606.273612 447.68232 
L 606.49915 452.752852 
L 606.724688 452.362811 
L 607.175764 457.823384 
L 607.401302 466.794324 
L 607.62684 464.84412 
L 607.852378 471.084774 
L 608.303455 494.097187 
L 608.754531 460.943711 
L 608.980069 470.694733 
L 609.205607 456.653261 
L 609.431145 466.014243 
L 609.656683 464.454079 
L 609.882221 466.014243 
L 610.107759 462.893915 
L 610.333297 447.68232 
L 610.558835 446.512198 
L 610.784373 461.723793 
L 611.460988 378.645081 
L 611.686526 358.362955 
L 612.137602 283.085061 
L 612.36314 214.827904 
L 612.814216 189.085205 
L 613.039754 168.413037 
L 613.265292 122.778252 
L 613.49083 126.678661 
L 613.716368 135.649602 
L 613.941907 169.193119 
L 614.167445 121.218089 
L 614.392983 141.890256 
L 614.618521 126.678661 
L 614.844059 154.371565 
L 615.069597 149.691074 
L 615.295135 124.728457 
L 615.520673 149.691074 
L 615.746211 142.670338 
L 615.971749 165.29271 
L 616.197287 145.010583 
L 616.422825 164.512628 
L 616.648363 157.491892 
L 616.873902 141.110174 
L 617.09944 141.500215 
L 617.550516 170.753283 
L 617.776054 173.483569 
L 618.001592 174.653692 
L 618.22713 195.7159 
L 618.452668 187.915082 
L 618.678206 203.516718 
L 618.903744 211.317536 
L 619.129282 227.699254 
L 619.35482 210.927495 
L 619.805897 239.790522 
L 620.708049 371.234304 
L 621.610201 462.113834 
L 621.835739 453.142893 
L 622.061277 439.101421 
L 622.286815 451.192689 
L 622.512353 443.781911 
L 622.737892 444.171952 
L 622.96343 466.404284 
L 623.188968 455.483138 
L 623.414506 463.283956 
L 623.640044 463.283956 
L 623.865582 459.773588 
L 624.09112 464.454079 
L 624.316658 453.922975 
L 624.542196 452.362811 
L 624.767734 457.433343 
L 624.993272 452.362811 
L 625.21881 468.354488 
L 625.444348 449.632525 
L 625.895425 471.084774 
L 626.120963 472.254897 
L 626.346501 471.474815 
L 626.797577 445.342075 
L 627.023115 460.943711 
L 627.248653 463.673997 
L 627.474191 472.644938 
L 627.699729 471.864856 
L 628.150805 481.615879 
L 628.376344 474.595142 
L 628.601882 474.595142 
L 628.82742 477.325429 
L 629.278496 472.644938 
L 629.504034 465.234161 
L 629.729572 470.694733 
L 629.95511 465.624202 
L 630.180648 452.752852 
L 630.406186 466.014243 
L 630.631724 465.624202 
L 630.857262 476.155306 
L 631.0828 476.155306 
L 631.308339 466.794324 
L 631.533877 466.794324 
L 631.759415 464.84412 
L 631.984953 461.333752 
L 632.210491 459.773588 
L 632.661567 422.329662 
L 633.112643 357.972914 
L 633.338181 339.250951 
L 633.563719 338.080828 
L 634.014795 248.761462 
L 634.240334 251.101708 
L 634.916948 194.155737 
L 635.142486 197.276064 
L 635.368024 207.417127 
L 635.593562 164.512628 
L 636.044638 176.993937 
L 636.270176 213.657781 
L 636.94679 166.462833 
L 637.172329 198.446186 
L 637.623405 149.301033 
L 637.848943 157.101851 
L 638.074481 157.881933 
L 638.300019 214.827904 
L 638.525557 187.915082 
L 638.751095 193.765696 
L 639.202171 224.578927 
L 639.427709 222.628722 
L 639.653247 238.620399 
L 639.878785 229.649458 
L 640.104324 237.450276 
L 640.329862 233.939908 
L 641.006476 315.068415 
L 641.232014 322.089151 
L 641.457552 339.640992 
L 641.68309 374.354632 
L 641.908628 350.172096 
L 642.134166 341.981237 
L 642.359704 350.172096 
L 642.810781 387.225981 
L 643.261857 450.022566 
L 643.487395 454.313016 
L 643.712933 466.794324 
L 643.938471 466.404284 
L 644.164009 467.964447 
L 644.389547 473.034979 
L 644.615085 480.835797 
L 644.840623 481.615879 
L 645.066161 483.176042 
L 645.291699 486.296369 
L 645.517237 483.956124 
L 645.742776 492.537024 
L 646.193852 460.943711 
L 646.41939 460.55367 
L 646.644928 462.503875 
L 647.096004 488.246574 
L 647.321542 483.566083 
L 647.54708 483.176042 
L 647.772618 479.275633 
L 647.998156 477.325429 
L 648.223694 473.034979 
L 648.449232 482.39596 
L 648.900309 475.765265 
L 649.125847 474.205102 
L 649.351385 473.42502 
L 649.576923 474.205102 
L 649.802461 460.943711 
L 650.027999 463.283956 
L 650.253537 461.333752 
L 650.479075 462.893915 
L 650.704613 463.673997 
L 650.930151 479.665674 
L 651.155689 483.566083 
L 651.381227 492.146983 
L 651.606766 519.839887 
L 652.057842 498.777678 
L 652.28338 508.918741 
L 652.508918 495.657351 
L 652.734456 496.827474 
L 652.959994 491.366901 
L 653.185532 489.806737 
L 653.41107 475.375224 
L 653.636608 482.005919 
L 653.862146 474.595142 
L 654.313222 497.997596 
L 654.538761 503.84821 
L 654.764299 529.200868 
L 655.440913 504.238251 
L 655.666451 496.047392 
L 655.891989 502.678087 
L 656.117527 489.806737 
L 656.343065 484.346165 
L 656.568603 463.283956 
L 656.794141 474.985183 
L 657.019679 494.877269 
L 657.245218 486.68641 
L 657.470756 501.898005 
L 657.696294 506.188455 
L 657.921832 501.507964 
L 658.14737 510.868946 
L 658.372908 492.927065 
L 658.598446 511.649028 
L 658.823984 519.449846 
L 659.049522 508.13866 
L 659.27506 515.549437 
L 659.500598 510.478905 
L 659.726136 519.839887 
L 659.726136 519.839887 
" style="fill:none;stroke:#1f77b4;stroke-linecap:square;stroke-width:1.5;"/>
   </g>
   <g id="patch_3">
    <path d="M 20.5625 554.3 
L 20.5625 10.7 
" style="fill:none;stroke:#000000;stroke-linecap:square;stroke-linejoin:miter;stroke-width:0.8;"/>
   </g>
   <g id="patch_4">
    <path d="M 690.1625 554.3 
L 690.1625 10.7 
" style="fill:none;stroke:#000000;stroke-linecap:square;stroke-linejoin:miter;stroke-width:0.8;"/>
   </g>
   <g id="patch_5">
    <path d="M 20.5625 554.3 
L 690.1625 554.3 
" style="fill:none;stroke:#000000;stroke-linecap:square;stroke-linejoin:miter;stroke-width:0.8;"/>
   </g>
   <g id="patch_6">
    <path d="M 20.5625 10.7 
L 690.1625 10.7 
" style="fill:none;stroke:#000000;stroke-linecap:square;stroke-linejoin:miter;stroke-width:0.8;"/>
   </g>
  </g>
 </g>
 <defs>
  <clipPath id="p86ce4aa4f0">
   <rect height="543.6" width="669.6" x="20.5625" y="10.7"/>
  </clipPath>
 </defs>
</svg>
